<?xml version="1.0" encoding="utf-8"?>
<!-- Generator: Adobe Illustrator 16.0.0, SVG Export Plug-In . SVG Version: 6.00 Build 0)  -->
<!DOCTYPE svg PUBLIC "-//W3C//DTD SVG 1.1//EN" "http://www.w3.org/Graphics/SVG/1.1/DTD/svg11.dtd">
<svg version="1.1" id="Layer_1" xmlns="http://www.w3.org/2000/svg" xmlns:xlink="http://www.w3.org/1999/xlink" x="0px" y="0px"
	 width="32px" height="32px" viewBox="0 0 32 32" enable-background="new 0 0 32 32" xml:space="preserve">
<g>
	<path fill="#0078D7" d="M27.6,0H4.4C3.8,0,3.4,0.5,3.4,1.1v29.9c0,0.6,0.5,1.1,1.1,1.1h23.1c0.6,0,1.1-0.5,1.1-1.1V1.1
		C28.6,0.5,28.2,0,27.6,0z M4.3,1.5c0-0.4,0.3-0.7,0.7-0.7s0.7,0.3,0.7,0.7c0,0.4-0.3,0.7-0.7,0.7S4.3,1.9,4.3,1.5z M7.7,30.3
		c-1.6,0-2.8-1.3-2.8-2.9c0-0.8,0.3-1.6,0.9-2.1l6.1-6.2c0.3-0.3,0.6-0.4,1-0.4c0.8,0,1.5,0.7,1.5,1.5c0,0.3-0.1,0.4-0.2,0.7l-4,7.9
		C9.7,29.7,8.8,30.3,7.7,30.3z M16,23.3c-0.6,0-1.3-0.1-1.9-0.2l0.9-2.2c0.4-0.7,0.1-1.4,0.1-1.4c-0.2-0.9-1.3-1.7-2.3-1.7
		s-1.9,1-1.9,1l-1.8,1.8c-2-1.8-3.3-4.5-3.3-7.4C5.9,7.6,10.4,3.1,16,3.1c5.6,0,10.1,4.5,10.1,10.1C26.1,18.8,21.5,23.3,16,23.3z
		 M26.7,30.9c-0.4,0-0.7-0.3-0.7-0.7s0.3-0.7,0.7-0.7s0.7,0.3,0.7,0.7S27.1,30.9,26.7,30.9z M26.7,2.2c-0.4,0-0.7-0.3-0.7-0.7
		c0-0.4,0.3-0.7,0.7-0.7s0.7,0.3,0.7,0.7C27.4,1.9,27.1,2.2,26.7,2.2z"/>
	<circle fill="#0078D7" cx="16" cy="13.3" r="1.4"/>
	<g>
		<circle fill="#0078D7" cx="16" cy="10.7" r="0.5"/>
		<circle fill="#0078D7" cx="17.8" cy="11.5" r="0.5"/>
		<circle fill="#0078D7" cx="18.5" cy="13.3" r="0.5"/>
		<circle fill="#0078D7" cx="17.8" cy="15.1" r="0.5"/>
		<circle fill="#0078D7" cx="16" cy="15.9" r="0.5"/>
		<circle fill="#0078D7" cx="14.2" cy="15.1" r="0.5"/>
		<circle fill="#0078D7" cx="13.5" cy="13.3" r="0.5"/>
		<circle fill="#0078D7" cx="14.2" cy="11.5" r="0.5"/>
	</g>
	<path fill="#0078D7" d="M16,8.6c-2.6,0-4.7,2.1-4.7,4.7c0,2.6,2.1,4.7,4.7,4.7c2.6,0,4.7-2.1,4.7-4.7C20.7,10.7,18.6,8.6,16,8.6z
		 M16,17.1c-2.1,0-3.8-1.7-3.8-3.8c0-2.1,1.7-3.8,3.8-3.8c2.1,0,3.8,1.7,3.8,3.8C19.8,15.4,18.1,17.1,16,17.1z"/>
	<path fill="#0078D7" d="M9,27.6c0,0.7-0.6,1.2-1.2,1.2c-0.7,0-1.2-0.6-1.2-1.2c0-0.7,0.6-1.2,1.2-1.2C8.4,26.3,9,26.9,9,27.6z"/>
	<path fill="#0078D7" d="M15,26.4C15.1,26.4,15.1,26.4,15,26.4L15,26.4"/>
</g>
</svg>
