<?xml version="1.0" encoding="UTF-8" ?>
<!DOCTYPE svg PUBLIC "-//W3C//DTD SVG 1.1//EN" "http://www.w3.org/Graphics/SVG/1.1/DTD/svg11.dtd">
<svg width="1745pt" height="573pt" viewBox="0 0 1745 573" version="1.1" xmlns="http://www.w3.org/2000/svg">
<path fill="#ffffff" d=" M 0.00 0.00 L 1745.00 0.00 L 1745.00 573.00 L 0.00 573.00 L 0.00 0.00 Z" />
<path fill="#093754" d=" M 1455.92 45.92 C 1470.39 33.38 1493.17 32.32 1508.88 43.15 C 1517.97 49.03 1524.32 58.55 1527.16 68.91 C 1529.32 79.15 1528.71 90.33 1523.53 99.61 C 1517.76 111.06 1506.50 119.05 1494.19 122.10 C 1424.65 241.11 1355.02 360.07 1285.50 479.10 C 1286.58 482.98 1287.66 486.89 1288.19 490.91 C 1289.30 509.68 1276.97 528.36 1259.16 534.53 C 1243.85 540.21 1225.49 536.64 1213.75 525.19 C 1204.61 516.81 1199.41 504.39 1199.84 492.01 C 1199.88 480.77 1204.97 469.84 1213.03 462.09 C 1219.21 456.17 1227.16 452.49 1235.40 450.42 C 1304.39 331.72 1373.81 213.26 1442.95 94.64 C 1436.27 77.77 1441.78 57.25 1455.92 45.92 Z" />
<path fill="#0f564d" d=" M 1641.49 42.68 C 1653.35 34.92 1669.12 33.48 1682.20 38.96 C 1696.88 44.77 1707.74 59.08 1709.35 74.80 C 1712.02 93.84 1699.78 113.31 1681.87 119.88 C 1679.31 121.21 1675.65 121.20 1674.25 124.06 C 1605.15 242.41 1535.82 360.63 1466.81 479.03 C 1467.62 483.68 1469.64 488.15 1469.44 492.96 C 1469.72 512.16 1455.88 530.50 1437.34 535.47 C 1422.43 539.86 1405.35 535.65 1394.34 524.64 C 1387.93 518.67 1383.96 510.54 1381.77 502.16 C 1380.70 496.09 1380.75 490.01 1381.78 483.95 C 1384.46 473.47 1390.62 463.68 1399.79 457.74 C 1404.72 454.16 1410.52 452.18 1416.29 450.43 C 1435.84 417.82 1454.68 384.74 1473.98 351.96 C 1523.72 266.73 1573.44 181.48 1623.22 96.27 C 1624.54 94.36 1623.20 92.11 1622.85 90.11 C 1617.42 72.46 1626.23 52.46 1641.49 42.68 Z" />
<path fill="#ffffff" d=" M 1460.23 78.99 C 1459.83 65.35 1473.54 53.98 1486.83 55.72 C 1498.44 56.81 1508.40 67.31 1508.40 79.05 C 1508.79 84.24 1506.85 89.16 1504.38 93.61 C 1499.66 99.42 1492.84 104.30 1485.01 103.77 C 1471.55 105.10 1459.00 92.41 1460.23 78.99 Z" />
<path fill="#ffffff" d=" M 1662.58 55.74 C 1674.05 54.12 1685.82 61.93 1688.74 73.15 C 1692.33 84.36 1685.99 97.58 1675.16 102.04 C 1670.45 104.27 1665.07 103.90 1660.04 103.50 C 1650.48 101.38 1642.50 92.97 1641.46 83.14 C 1641.25 79.24 1641.02 75.14 1642.66 71.48 C 1645.61 63.03 1653.72 56.75 1662.58 55.74 Z" />
<path fill="#093754" d=" M 892.83 113.82 C 898.59 108.61 906.35 106.32 913.94 105.54 C 917.94 105.12 922.01 105.60 926.00 104.91 C 934.00 104.53 941.98 105.39 949.99 105.22 C 959.29 104.71 968.64 104.49 977.94 105.18 C 989.27 105.66 1001.33 104.03 1011.87 109.23 C 1016.80 111.52 1020.27 115.98 1022.26 120.94 C 1022.54 121.93 1022.85 122.91 1023.17 123.89 C 1024.74 131.82 1025.40 139.91 1025.24 147.99 C 1025.23 258.94 1025.24 369.88 1025.24 480.83 C 1039.84 480.82 1054.45 480.85 1069.06 480.82 C 1074.83 480.75 1080.55 481.73 1086.22 482.76 C 1094.27 484.97 1101.96 490.40 1104.48 498.69 C 1107.36 508.24 1106.45 519.87 1099.33 527.39 C 1096.55 530.50 1092.66 532.19 1089.00 533.96 C 1078.65 537.21 1067.69 537.15 1056.96 537.07 C 1013.29 537.07 969.63 537.07 925.96 537.07 C 916.30 536.81 906.07 536.37 897.50 531.39 C 892.60 528.73 889.01 524.10 887.13 518.90 C 886.70 517.25 886.30 515.59 885.82 513.97 C 884.88 505.24 886.39 495.39 893.20 489.22 C 900.45 482.70 910.61 481.44 919.95 480.85 C 936.33 480.79 952.71 480.85 969.09 480.83 C 969.09 374.34 969.10 267.86 969.09 161.37 C 952.07 161.21 935.03 161.63 918.01 161.14 C 909.58 160.22 900.56 158.84 893.91 153.09 C 890.39 150.34 888.32 146.30 886.73 142.23 C 885.30 136.17 885.28 129.88 886.72 123.81 C 888.25 120.22 889.78 116.42 892.83 113.82 Z" />
<path fill="#093754" d=" M 1144.86 159.65 C 1153.47 156.51 1162.83 158.37 1171.07 161.74 C 1189.97 170.36 1201.23 192.96 1196.25 213.20 C 1193.20 224.30 1186.01 234.23 1176.06 240.11 C 1160.09 250.17 1137.65 248.05 1123.90 235.10 C 1115.37 227.51 1109.60 216.53 1109.34 205.01 C 1109.14 200.99 1109.39 196.95 1109.93 192.96 C 1113.86 176.26 1128.07 162.92 1144.86 159.65 Z" />
<path fill="#ffffff" d=" M 1141.23 181.27 C 1148.54 176.95 1158.25 176.92 1165.53 181.33 C 1173.17 185.54 1177.85 194.29 1177.48 202.96 C 1177.41 209.37 1174.43 215.50 1169.95 219.99 C 1166.37 223.37 1161.66 225.07 1157.02 226.38 C 1147.43 227.56 1137.30 223.01 1132.42 214.56 C 1128.72 208.77 1128.83 201.56 1129.94 195.03 C 1132.27 189.49 1135.69 184.06 1141.23 181.27 Z" />
<path fill="#093754" d=" M 145.98 223.96 C 155.47 221.74 165.25 221.21 174.96 221.16 C 208.31 221.16 241.66 221.16 275.01 221.16 C 284.14 221.33 293.75 222.34 301.63 227.36 C 308.82 231.87 312.35 240.72 311.76 249.00 C 312.21 256.56 309.56 264.57 303.47 269.35 C 296.09 275.42 286.20 276.62 277.02 277.29 C 245.34 277.34 213.66 277.29 181.98 277.31 C 176.45 277.38 170.79 276.82 165.42 278.49 C 153.42 281.53 143.71 289.64 134.58 297.59 C 123.71 306.73 112.90 315.93 101.99 325.02 C 96.60 329.81 92.53 336.58 92.73 343.99 C 92.65 366.34 92.74 388.69 92.69 411.03 C 92.71 414.88 92.74 418.86 94.27 422.47 C 96.46 428.18 101.20 432.34 105.75 436.20 C 115.92 444.67 126.03 453.20 136.09 461.80 C 146.53 470.94 158.52 479.95 172.91 480.79 C 203.26 480.89 233.61 480.80 263.95 480.83 C 275.99 480.81 288.88 480.18 299.78 486.15 C 307.64 490.36 312.26 499.29 311.74 508.11 C 312.47 516.45 309.40 525.53 302.22 530.30 C 293.47 536.40 282.35 536.75 272.08 537.06 C 241.39 537.09 210.71 537.06 180.02 537.07 C 168.60 536.88 157.08 536.70 145.90 534.16 C 128.34 529.62 114.59 517.24 100.99 505.96 C 89.34 496.27 77.67 486.59 66.02 476.90 C 62.24 473.38 58.61 469.70 55.01 466.01 C 46.99 457.35 41.53 446.52 38.86 435.05 C 36.80 424.48 36.67 413.72 36.43 402.99 C 36.45 386.66 36.44 370.32 36.43 353.99 C 36.72 343.29 36.78 332.50 39.20 322.01 C 42.00 309.43 48.82 297.91 58.05 288.98 C 63.38 283.29 69.39 278.33 75.38 273.37 C 87.67 263.31 99.80 253.03 112.09 242.96 C 122.14 234.71 133.23 227.22 145.98 223.96 Z" />
<path fill="#093754" d=" M 349.88 228.96 C 355.47 222.29 364.85 220.64 373.11 221.25 C 381.32 221.68 389.41 226.44 392.75 234.12 C 398.98 247.22 396.82 262.06 398.31 276.03 C 398.55 285.95 398.32 295.88 399.31 305.77 C 399.00 318.20 400.41 330.57 400.28 342.98 C 401.38 370.01 402.22 397.05 403.07 424.09 C 403.76 436.05 403.73 448.10 405.94 459.92 C 407.27 464.22 408.33 469.01 411.83 472.13 C 416.16 476.37 422.22 478.09 427.98 479.37 C 438.18 481.59 448.65 480.62 459.00 480.85 C 465.82 481.00 472.69 479.31 478.46 475.62 C 506.03 458.11 533.73 440.81 561.27 423.25 C 561.27 368.82 561.25 314.40 561.27 259.97 C 561.39 249.98 562.04 239.28 567.83 230.75 C 572.13 224.61 579.59 221.53 586.91 221.20 C 594.21 220.77 602.15 222.14 607.70 227.26 C 613.22 232.23 615.60 239.69 616.59 246.85 C 617.86 257.85 617.45 268.94 617.51 280.00 C 617.51 351.33 617.50 422.66 617.51 493.99 C 617.49 503.18 617.88 512.71 614.67 521.47 C 612.53 527.79 607.53 533.08 601.15 535.19 C 593.24 537.72 584.31 537.66 576.68 534.23 C 570.26 531.06 566.04 524.66 564.20 517.88 C 561.57 508.30 561.66 498.25 561.75 488.39 C 545.65 498.78 529.69 509.38 513.60 519.77 C 503.47 526.08 492.89 532.04 481.25 535.05 C 470.11 538.09 458.46 536.78 447.06 537.07 C 435.62 536.84 424.07 537.81 412.75 535.77 C 395.57 532.83 380.09 523.28 367.91 511.07 C 355.90 498.94 349.93 481.92 349.18 465.07 C 347.93 459.13 348.94 452.99 347.93 447.02 C 347.28 437.99 347.90 428.91 347.18 419.88 C 346.29 409.31 346.93 398.65 346.03 388.07 C 345.18 356.97 343.87 325.88 343.07 294.78 C 342.39 287.88 342.48 280.93 342.36 274.01 C 342.64 267.00 340.87 260.02 342.17 253.04 C 342.34 244.55 344.17 235.53 349.88 228.96 Z" />
<path fill="#093754" d=" M 663.86 222.75 C 673.56 219.74 685.44 220.50 693.05 227.86 C 699.66 234.33 701.82 243.85 702.44 252.77 C 703.03 262.28 702.59 271.82 702.74 281.35 C 719.19 268.28 735.06 254.51 751.50 241.42 C 763.66 231.90 777.34 222.91 793.07 221.26 C 809.38 221.03 825.70 221.22 842.01 221.16 C 857.93 221.03 874.04 225.55 886.95 235.02 C 903.39 247.09 916.24 264.85 919.99 285.15 C 921.84 292.27 921.38 299.64 922.16 306.89 C 921.60 316.80 921.68 327.40 916.11 336.08 C 911.93 342.94 903.82 346.28 896.04 346.49 C 886.81 346.99 876.83 343.17 871.88 335.02 C 864.91 324.73 865.90 311.77 865.42 299.94 C 863.76 292.49 860.06 284.74 852.91 281.21 C 842.38 276.05 830.33 277.53 819.01 277.31 C 813.14 277.51 807.12 276.59 801.43 278.44 C 792.27 281.13 785.18 287.82 777.87 293.62 C 752.84 314.40 727.69 335.04 702.75 355.93 C 702.71 400.63 702.74 445.32 702.73 490.01 C 702.63 501.45 703.30 513.62 698.03 524.15 C 694.98 530.72 688.39 535.18 681.33 536.36 C 671.89 538.03 660.75 536.53 654.24 528.81 C 647.23 520.21 646.87 508.59 646.49 498.03 C 646.47 422.68 646.49 347.34 646.48 271.99 C 646.56 260.23 646.05 248.15 649.71 236.81 C 652.24 230.45 657.15 224.76 663.86 222.75 Z" />
<path fill="#093754" d=" M 1121.69 326.75 C 1129.94 318.27 1141.58 314.43 1152.99 312.63 C 1164.12 312.56 1175.27 317.02 1183.20 324.85 C 1194.51 335.77 1200.08 352.75 1196.17 368.14 C 1195.83 369.16 1195.52 370.20 1195.24 371.24 C 1190.92 383.40 1181.33 393.63 1169.17 398.12 C 1159.89 401.84 1149.48 401.90 1139.95 399.11 C 1124.97 394.40 1113.30 381.38 1109.93 366.08 C 1109.16 360.47 1109.03 354.75 1109.74 349.13 C 1111.27 340.65 1115.60 332.81 1121.69 326.75 Z" />
<path fill="#ffffff" d=" M 1147.01 333.53 C 1158.32 329.92 1171.27 336.77 1175.66 347.59 C 1179.23 356.02 1177.57 366.58 1171.19 373.24 C 1165.43 379.76 1155.89 382.63 1147.49 380.40 C 1140.38 378.67 1134.08 373.54 1131.21 366.77 C 1128.41 360.79 1128.91 353.83 1130.66 347.62 C 1134.01 341.02 1139.58 335.23 1147.01 333.53 Z" />
<path fill="#ffffff" d=" M 1226.92 475.94 C 1230.81 471.76 1236.37 469.52 1241.96 468.80 C 1252.83 467.73 1263.34 474.96 1267.07 485.09 C 1267.43 487.07 1267.79 489.07 1268.29 491.04 C 1268.30 492.33 1268.32 493.62 1268.35 494.92 C 1267.43 500.54 1265.35 506.15 1261.06 510.08 C 1254.64 516.87 1244.14 519.06 1235.44 515.76 C 1228.98 513.28 1223.55 507.96 1221.24 501.40 C 1217.96 492.79 1220.13 482.26 1226.92 475.94 Z" />
<path fill="#ffffff" d=" M 1418.54 469.71 C 1430.60 465.81 1444.78 473.60 1448.27 485.73 C 1451.40 495.08 1447.86 506.06 1440.18 512.12 C 1434.31 516.64 1426.31 518.46 1419.13 516.50 C 1410.75 514.33 1403.70 507.49 1401.71 499.01 C 1398.17 486.84 1406.26 472.84 1418.54 469.71 Z" />
</svg>
