<svg width="24" height="24" fill="none" xmlns="http://www.w3.org/2000/svg">
    <path d="M16.4 12v10.285H2.42V12H16.4z" fill="#EEAD1E"/>
    <path d="M8.553 20.572V16.88a1.69 1.69 0 0 1-.857-1.452 1.715 1.715 0 0 1 3.429 0 1.692 1.692 0 0 1-.857 1.452v3.69H8.553zm14.706-15.43v5.144h-1.715V5.143c0-2.179-1.249-3.43-3.428-3.43-2.178 0-3.428 1.25-3.428 3.43v5.143h3.428V24H.741V10.277l12.232.01V5.142c0-3.124 2.02-5.143 5.143-5.143 3.122 0 5.143 2.02 5.143 5.143zM2.421 12v10.285h13.98V12H2.422z" fill="#333"/>
</svg>
