<svg width="24" height="24" fill="none" xmlns="http://www.w3.org/2000/svg">
    <path d="M1.811 10.225c-.047 0-.058-.024-.035-.059l.246-.316c.023-.036.081-.059.128-.059h4.172c.046 0 .058.035.035.07l-.199.305c-.023.035-.082.07-.117.07l-4.23-.011zM.047 11.304c-.047 0-.059-.023-.035-.058l.245-.317c.023-.035.082-.059.129-.059h5.328c.047 0 .07.036.058.07l-.093.282c-.012.047-.058.07-.105.07l-5.527.012zm2.828 1.079c-.047 0-.059-.035-.035-.07l.163-.293c.023-.036.07-.07.117-.07h2.337c.047 0 .07.034.07.081l-.023.282c0 .047-.047.082-.082.082l-2.547-.012zm12.129-2.369c-.736.188-1.239.328-1.963.516-.176.047-.187.059-.34-.117-.175-.2-.303-.329-.548-.446-.737-.364-1.45-.258-2.115.176-.795.516-1.204 1.278-1.192 2.228.011.939.654 1.713 1.577 1.842.795.105 1.46-.176 1.987-.774.105-.13.198-.27.315-.434H10.47c-.245 0-.304-.153-.222-.352.152-.364.432-.973.596-1.279a.315.315 0 0 1 .292-.187h4.253c-.023.317-.023.633-.07.95a5.01 5.01 0 0 1-.958 2.299c-.841 1.114-1.94 1.806-3.33 1.994-1.145.152-2.209-.07-3.143-.774-.865-.657-1.356-1.525-1.485-2.604-.151-1.279.223-2.428.994-3.437.83-1.09 1.928-1.783 3.272-2.029 1.098-.2 2.15-.07 3.096.575.62.41 1.063.973 1.356 1.654.07.105.023.164-.117.199z" fill="#44C0B0"/>
    <path d="M18.872 16.5c-1.064-.023-2.034-.328-2.852-1.032a3.682 3.682 0 0 1-1.262-2.264c-.21-1.325.152-2.498.947-3.542.853-1.126 1.881-1.712 3.272-1.959 1.192-.21 2.314-.093 3.33.599.923.633 1.496 1.49 1.648 2.615.198 1.584-.257 2.874-1.344 3.976-.771.786-1.718 1.279-2.805 1.502-.315.058-.63.07-.934.105zm2.78-4.738c-.011-.153-.011-.27-.034-.387-.21-1.162-1.274-1.818-2.384-1.56-1.087.246-1.788.938-2.045 2.04-.21.915.234 1.842 1.075 2.217.643.282 1.285.247 1.905-.07.923-.481 1.425-1.232 1.484-2.24z" fill="#44C0B0"/>
</svg>
