<svg width="48" height="48" fill="none" xmlns="http://www.w3.org/2000/svg">
    <path d="M7.765 15.933c-1.55 0-2.784 1.26-2.784 2.845v11.85c0 1.585 1.233 2.846 2.784 2.846 1.55 0 2.784-1.26 2.784-2.845v-11.85c0-1.585-1.234-2.846-2.784-2.846zm32.47 0c-1.55 0-2.784 1.26-2.784 2.845v11.85c0 1.585 1.234 2.846 2.784 2.846 1.55 0 2.785-1.26 2.785-2.845v-11.85c0-1.585-1.234-2.846-2.785-2.846zM19.361 29.457c-1.55 0-2.784 1.26-2.784 2.845v11.85c0 1.585 1.234 2.846 2.784 2.846 1.55 0 2.784-1.26 2.784-2.845v-11.85c0-1.585-1.233-2.846-2.784-2.846zm9.278 0c-1.55 0-2.784 1.26-2.784 2.845v11.85c0 1.585 1.233 2.846 2.784 2.846 1.55 0 2.784-1.26 2.784-2.845v-11.85c0-1.585-1.234-2.846-2.784-2.846z" fill="#A4C639"/>
    <path fill-rule="evenodd" clip-rule="evenodd" d="M16.104 1.054a.388.388 0 0 1 .537.157l1.987 3.66A12.993 12.993 0 0 1 24 3.72c1.924 0 3.747.413 5.372 1.15l1.987-3.66a.388.388 0 0 1 .537-.157.397.397 0 0 1 .153.55l-1.96 3.62c3.773 2.006 6.321 5.819 6.326 10.195h-24.83c.005-4.376 2.553-8.189 6.327-10.195l-1.961-3.62a.397.397 0 0 1 .153-.55zm-4.52 33.758V16.42h24.831v18.39c0 1.7-1.338 3.068-3.001 3.068H14.586c-1.663 0-3.001-1.368-3.001-3.067zm5.65-25.096c0-.58.469-1.059 1.036-1.059.567 0 1.036.48 1.036 1.059 0 .58-.47 1.059-1.036 1.059-.567 0-1.036-.48-1.036-1.06zm11.46 0c0-.58.47-1.059 1.036-1.059.567 0 1.036.48 1.036 1.059 0 .58-.47 1.059-1.036 1.059-.567 0-1.036-.48-1.036-1.06z" fill="#A4C639"/>
</svg>
