<svg width="48" height="48" fill="none" xmlns="http://www.w3.org/2000/svg">
    <rect width="48" height="48" rx="2" fill="#59BAE4"/>
    <path d="M15.387 33h-2.871V16.195h2.87V33zm7.008 0h-2.872V16.195h2.872V33zm3.375-.668v-2.871c.257.234.562.445.914.633a7.82 7.82 0 0 0 1.136.48 9.47 9.47 0 0 0 1.196.293c.398.07.765.106 1.101.106 1.172 0 2.043-.196 2.613-.586.579-.39.868-.957.868-1.7 0-.398-.098-.742-.293-1.03a2.891 2.891 0 0 0-.797-.81 7.971 7.971 0 0 0-1.219-.69 57.14 57.14 0 0 0-1.488-.704 24.625 24.625 0 0 1-1.594-.926 7.177 7.177 0 0 1-1.289-1.03 4.577 4.577 0 0 1-.855-1.29c-.204-.477-.305-1.035-.305-1.676 0-.789.176-1.472.527-2.05a4.504 4.504 0 0 1 1.406-1.442 6.333 6.333 0 0 1 1.993-.844 9.246 9.246 0 0 1 2.273-.28c1.758 0 3.04.198 3.844.597v2.754c-.953-.688-2.18-1.032-3.68-1.032a6.68 6.68 0 0 0-1.242.118 3.754 3.754 0 0 0-1.102.386 2.4 2.4 0 0 0-.785.692c-.203.28-.305.62-.305 1.02 0 .374.079.698.235.972.156.273.383.523.68.75.304.226.671.45 1.101.668.438.21.942.441 1.512.691.586.305 1.137.625 1.652.961.524.336.98.707 1.371 1.113.399.407.711.86.938 1.36.234.492.351 1.055.351 1.687 0 .852-.172 1.57-.515 2.157a4.138 4.138 0 0 1-1.395 1.43 6.118 6.118 0 0 1-2.004.796c-.758.164-1.558.246-2.402.246-.281 0-.629-.023-1.043-.07a12.458 12.458 0 0 1-1.254-.188 10.51 10.51 0 0 1-1.219-.293 3.857 3.857 0 0 1-.925-.398z" fill="#fff"/>
</svg>
