<svg width="24" height="24" fill="none" xmlns="http://www.w3.org/2000/svg">
    <path d="M15.75 3V1.5c0-.21-.039-.407-.117-.586a1.534 1.534 0 0 0-.797-.797A1.454 1.454 0 0 0 14.25 0h-4.5c-.21 0-.406.039-.586.117a1.534 1.534 0 0 0-.797.797c-.078.18-.117.375-.117.586V3h-6v1.5h1.5v17.25a2.25 2.25 0 0 0 1.371 2.075c.274.116.566.175.879.175h12a2.251 2.251 0 0 0 2.075-1.371c.116-.274.175-.566.175-.879V4.5h1.5V3h-6zm-1.5 0h-4.5V1.5h4.5V3z" fill="#333"/>
    <path d="M18.75 4.5H5.25v17.25a.72.72 0 0 0 .223.527A.72.72 0 0 0 6 22.5h12a.72.72 0 0 0 .527-.223.72.72 0 0 0 .223-.527V4.5z" fill="#C8C8C8"/>
    <path d="M9.75 7.5h-1.5v12h1.5v-12zm3 0h-1.5v12h1.5v-12zm3 0h-1.5v12h1.5v-12z" fill="#333"/>
</svg>
