<svg width="24" height="24" fill="none" xmlns="http://www.w3.org/2000/svg">
    <path d="M15.651.114c-.374.222-.995.851-1.737 1.763l.681 1.294a16.89 16.89 0 0 1 1.513-1.899l-.058.062c-.159.176-.64.74-1.366 1.863.699-.035 1.773-.179 2.65-.33.26-1.47-.256-2.142-.256-2.142s-.656-1.069-1.427-.61z" fill="url(#paint0_linear)"/>
    <path d="M13.362 10.986c-.087.016-.177.032-.269.047l-.002.001.138-.022c.045-.008.089-.016.133-.026z" fill="#BE202E"/>
    <path opacity=".35" d="M13.362 10.986c-.087.016-.177.032-.269.047l-.002.001.138-.022c.045-.008.089-.016.133-.026z" fill="#BE202E"/>
    <path d="M13.59 9.855h-.002c.015 0 .029-.004.043-.005.058-.009.115-.02.17-.031l-.211.036z" fill="#BE202E"/>
    <path opacity=".35" d="M13.59 9.855h-.002c.015 0 .029-.004.043-.005.058-.009.115-.02.17-.031l-.211.036z" fill="#BE202E"/>
    <path d="M12.586 6.517c.207-.39.417-.771.629-1.142.22-.385.443-.758.668-1.118l.04-.065c.222-.354.447-.695.673-1.02l-.682-1.295-.155.192c-.197.247-.4.512-.61.793a38.174 38.174 0 0 0-1.414 2.037c-.197.303-.394.615-.59.934l-.022.036.887 1.763c.19-.377.382-.75.576-1.115z" fill="url(#paint1_linear)"/>
    <path d="M8.545 16.45c-.117.326-.235.656-.353.994l-.005.015-.05.143c-.08.227-.15.432-.308.899.261.12.471.435.67.793a1.444 1.444 0 0 0-.464-.989c1.289.059 2.399-.269 2.972-1.217.052-.084.099-.173.14-.268-.26.333-.583.474-1.192.44l-.004.002.004-.002c.896-.404 1.346-.791 1.743-1.433.094-.152.186-.319.28-.503-.784.81-1.692 1.04-2.649.865l-.717.079-.067.183z" fill="url(#paint2_linear)"/>
    <path d="M8.88 14.834a97.595 97.595 0 0 1 1.467-3.61 79.643 79.643 0 0 1 1.085-2.406 65.59 65.59 0 0 1 .559-1.148.348.348 0 0 1 .02-.038l-.888-1.763-.043.071a41.802 41.802 0 0 0-1.215 2.136 37.152 37.152 0 0 0-.577 1.138c-.194.4-.368.787-.526 1.159a23.477 23.477 0 0 0-.723 1.931 22.31 22.31 0 0 0-.177.597 18.57 18.57 0 0 0-.34 1.398l.89 1.77a127.45 127.45 0 0 1 .468-1.235z" fill="url(#paint3_linear)"/>
    <path d="M7.51 14.362a13.855 13.855 0 0 0-.232 1.692l-.004.059c-.279-.449-1.024-.886-1.022-.883.533.778.938 1.55.998 2.309-.285.059-.676-.026-1.128-.194.471.436.825.556.963.588-.433.028-.884.327-1.338.672.664-.273 1.2-.38 1.585-.294-.61 1.737-1.22 3.654-1.832 5.689a.534.534 0 0 0 .362-.354c.109-.368.831-2.786 1.964-5.964l.098-.273.027-.076c.12-.333.244-.673.372-1.02l.088-.238.002-.004-.89-1.77-.014.06z" fill="url(#paint4_linear)"/>
    <path d="M12.148 7.781c-.025.052-.05.105-.077.158-.077.16-.155.322-.233.489-.086.18-.171.364-.258.552l-.132.288a76.058 76.058 0 0 0-.916 2.085A90.343 90.343 0 0 0 9.54 13.8a91.72 91.72 0 0 0-.446 1.164l-.021.058a109.171 109.171 0 0 0-.46 1.247l.716-.079-.043-.007c.858-.107 1.998-.752 2.735-1.548.34-.367.648-.8.933-1.306a11.3 11.3 0 0 0 .6-1.258c.167-.405.326-.842.48-1.317a2.59 2.59 0 0 1-.672.235 4.135 4.135 0 0 1-.27.047h.001c.8-.31 1.304-.908 1.67-1.64a2.84 2.84 0 0 1-.961.424 2.375 2.375 0 0 1-.17.031l-.043.006h.001c.278-.118.512-.248.715-.403a2.27 2.27 0 0 0 .304-.273 2.8 2.8 0 0 0 .469-.685 8.582 8.582 0 0 0 .365-.85 5.961 5.961 0 0 0 .1-.316c.027-.1.043-.178.052-.236a.86.86 0 0 1-.093.064c-.242.146-.656.278-.99.34l.659-.073-.659.072-.015.003-.101.017c.006-.003.011-.006.018-.008l-2.254.249-.012.024z" fill="url(#paint5_linear)"/>
    <path d="M14.684 3.198c-.2.309-.419.66-.654 1.059-.013.02-.025.042-.037.063a47.929 47.929 0 0 0-1.259 2.292c-.185.359-.377.74-.573 1.144l2.253-.249c.656-.303.95-.578 1.235-.976a14.31 14.31 0 0 0 .889-1.505c.195-.384.368-.765.5-1.108a5.84 5.84 0 0 0 .2-.6c.04-.158.073-.307.097-.45-.877.15-1.952.295-2.65.33z" fill="url(#paint6_linear)"/>
    <path d="M13.587 9.856l.043-.006-.043.006z" fill="#BE202E"/>
    <path opacity=".35" d="M13.587 9.856l.043-.006-.043.006z" fill="#BE202E"/>
    <path d="M13.587 9.856l.043-.006-.043.006z" fill="url(#paint8_linear)"/>
    <path d="M13.59 9.856v-.001z" fill="#BE202E"/>
    <path opacity=".35" d="M13.59 9.856v-.001z" fill="#BE202E"/>
    <path d="M13.59 9.856v-.001z" fill="url(#paint9_linear)"/>
    <path d="M18.02 2.198v.066h.154v.44h.072v-.44h.156v-.066h-.382zm.893 0l-.173.353-.173-.353h-.087v.506h.066v-.402l.171.348h.046l.171-.348v.402H19v-.506h-.087z" fill="#6D6E71"/>
    <defs>
        <linearGradient id="paint0_linear" x1="14.491" y1="2.035" x2="19.489" y2=".654" gradientUnits="userSpaceOnUse">
            <stop stop-color="#F69923"/>
            <stop offset=".312" stop-color="#F79A23"/>
            <stop offset=".838" stop-color="#E97826"/>
        </linearGradient>
        <linearGradient id="paint1_linear" x1="3.561" y1="24.588" x2="13.823" y2="2.719" gradientUnits="userSpaceOnUse">
            <stop offset=".323" stop-color="#9E2064"/>
            <stop offset=".63" stop-color="#C92037"/>
            <stop offset=".751" stop-color="#CD2335"/>
            <stop offset="1" stop-color="#E97826"/>
        </linearGradient>
        <linearGradient id="paint2_linear" x1="6.972" y1="22.967" x2="13.087" y2="9.935" gradientUnits="userSpaceOnUse">
            <stop stop-color="#282662"/>
            <stop offset=".095" stop-color="#662E8D"/>
            <stop offset=".788" stop-color="#9F2064"/>
            <stop offset=".949" stop-color="#CD2032"/>
        </linearGradient>
        <linearGradient id="paint3_linear" x1="3.929" y1="23.262" x2="14.19" y2="1.392" gradientUnits="userSpaceOnUse">
            <stop offset=".323" stop-color="#9E2064"/>
            <stop offset=".63" stop-color="#C92037"/>
            <stop offset=".751" stop-color="#CD2335"/>
            <stop offset="1" stop-color="#E97826"/>
        </linearGradient>
        <linearGradient id="paint4_linear" x1="4.964" y1="21.801" x2="10.357" y2="10.308" gradientUnits="userSpaceOnUse">
            <stop stop-color="#282662"/>
            <stop offset=".095" stop-color="#662E8D"/>
            <stop offset=".788" stop-color="#9F2064"/>
            <stop offset=".949" stop-color="#CD2032"/>
        </linearGradient>
        <linearGradient id="paint5_linear" x1="6.183" y1="24.319" x2="16.445" y2="2.45" gradientUnits="userSpaceOnUse">
            <stop offset=".323" stop-color="#9E2064"/>
            <stop offset=".63" stop-color="#C92037"/>
            <stop offset=".751" stop-color="#CD2335"/>
            <stop offset="1" stop-color="#E97826"/>
        </linearGradient>
        <linearGradient id="paint6_linear" x1="5.441" y1="25.627" x2="15.703" y2="3.757" gradientUnits="userSpaceOnUse">
            <stop offset=".323" stop-color="#9E2064"/>
            <stop offset=".63" stop-color="#C92037"/>
            <stop offset=".751" stop-color="#CD2335"/>
            <stop offset="1" stop-color="#E97826"/>
        </linearGradient>
        <linearGradient id="paint7_linear" x1="6.854" y1="24.634" x2="17.115" y2="2.764" gradientUnits="userSpaceOnUse">
            <stop offset=".323" stop-color="#9E2064"/>
            <stop offset=".63" stop-color="#C92037"/>
            <stop offset=".751" stop-color="#CD2335"/>
            <stop offset="1" stop-color="#E97826"/>
        </linearGradient>
        <linearGradient id="paint8_linear" x1="6.777" y1="24.597" x2="17.037" y2="2.729" gradientUnits="userSpaceOnUse">
            <stop offset=".323" stop-color="#9E2064"/>
            <stop offset=".63" stop-color="#C92037"/>
            <stop offset=".751" stop-color="#CD2335"/>
            <stop offset="1" stop-color="#E97826"/>
        </linearGradient>
        <linearGradient id="paint9_linear" x1="12.159" y1="12.975" x2="15.101" y2="6.773" gradientUnits="userSpaceOnUse">
            <stop offset=".323" stop-color="#9E2064"/>
            <stop offset=".63" stop-color="#C92037"/>
            <stop offset=".751" stop-color="#CD2335"/>
            <stop offset="1" stop-color="#E97826"/>
        </linearGradient>
    </defs>
</svg>
