<svg width="48" height="48" fill="none" xmlns="http://www.w3.org/2000/svg">
    <mask id="a" maskUnits="userSpaceOnUse" x="0" y="0" width="48" height="48">
        <path d="M8.4 2a2 2 0 0 1 2-2h27.2a2 2 0 0 1 2 2v22H46a2 2 0 0 1 2 2v20a2 2 0 0 1-2 2H2a2 2 0 0 1-2-2V26a2 2 0 0 1 2-2h6.4V2z" fill="#fff"/>
    </mask>
    <g mask="url(#a)">
        <path d="M0 25.667C0 24.747.746 24 1.667 24h20.666c.92 0 1.667.746 1.667 1.667v20.666c0 .92-.746 1.667-1.667 1.667H1.667C.747 48 0 47.254 0 46.333V25.667z" fill="#B21756"/>
        <path d="M17.6 24h4.733c.92 0 1.667.746 1.667 1.667v19.666c0 .92-.746 1.667-1.667 1.667H17.6V24z" fill="#A61550"/>
        <rect x="8.4" y="27.6" width="8.4" height="2.4" rx="1.2" fill="#8D0A3F"/>
        <g filter="url(#filter0_f)">
            <path d="M8 1.667C8 .747 8.746 0 9.667 0h28.666C39.253 0 40 .746 40 1.667V24H8V1.667z" fill="#8C0039"/>
        </g>
        <path d="M8.4 1.667C8.4.747 9.146 0 10.067 0h27.866c.92 0 1.667.746 1.667 1.667V24H8.4V1.667z" fill="#CB2E6D"/>
        <rect x="15.6" y="4.8" width="7.2" height="2.4" rx="1.2" fill="#B01C57"/>
        <path d="M31.2 0h6.733c.92 0 1.667.746 1.667 1.667V24h-8.4V0z" fill="#BD2461"/>
        <g opacity=".5" filter="url(#filter1_f)">
            <path d="M16 24h30.333c.92 0 1.667.746 1.667 1.667v20.666c0 .92-.746 1.667-1.667 1.667H17.667c-.92 0-1.667-.746-1.667-1.667V24z" fill="#75002F"/>
        </g>
        <path d="M15.6 24h30.733c.92 0 1.667.746 1.667 1.667v20.666c0 .92-.746 1.667-1.667 1.667H17.267c-.92 0-1.667-.746-1.667-1.667V24z" fill="#EF74A6"/>
        <path d="M17.829 48H31.2V24H15.6v21.913c0 1.153.998 2.087 2.229 2.087z" fill="url(#paint0_linear)"/>
        <rect x="24" y="27.6" width="7.2" height="2.4" rx="1.2" fill="#C82F6D"/>
        <path d="M39.6 24h6.733c.92 0 1.667.746 1.667 1.667v20.666c0 .92-.746 1.667-1.667 1.667H39.6V24z" fill="#E66398"/>
        <path d="M31 38H19v2.4h12V38zm-4.8 3.6H19V44h7.2v-2.4z" fill="#FC92BE"/>
        <path opacity=".2" d="M8.4 2a2 2 0 0 1 2-2h27.2a2 2 0 0 1 2 2v22H46a2 2 0 0 1 2 2v20a2 2 0 0 1-2 2H2a2 2 0 0 1-2-2V26a2 2 0 0 1 2-2h6.4V2z" fill="url(#paint1_linear)"/>
    </g>
    <defs>
        <filter id="filter0_f" x="4" y="-4" width="40" height="32" filterUnits="userSpaceOnUse" color-interpolation-filters="sRGB">
            <feFlood flood-opacity="0" result="BackgroundImageFix"/>
            <feBlend in="SourceGraphic" in2="BackgroundImageFix" result="shape"/>
            <feGaussianBlur stdDeviation="2" result="effect1_foregroundBlur"/>
        </filter>
        <filter id="filter1_f" x="12" y="20" width="40" height="32" filterUnits="userSpaceOnUse" color-interpolation-filters="sRGB">
            <feFlood flood-opacity="0" result="BackgroundImageFix"/>
            <feBlend in="SourceGraphic" in2="BackgroundImageFix" result="shape"/>
            <feGaussianBlur stdDeviation="2" result="effect1_foregroundBlur"/>
        </filter>
        <linearGradient id="paint0_linear" x1="23.4" y1="24" x2="23.4" y2="48" gradientUnits="userSpaceOnUse">
            <stop stop-color="#E66398"/>
            <stop offset="1" stop-color="#EF74A6"/>
        </linearGradient>
        <linearGradient id="paint1_linear" x1="24" y1="0" x2="24" y2="48" gradientUnits="userSpaceOnUse">
            <stop stop-color="#fff"/>
            <stop offset="1" stop-color="#fff" stop-opacity="0"/>
        </linearGradient>
    </defs>
</svg>
