<svg width="24" height="24" fill="none" xmlns="http://www.w3.org/2000/svg">
    <path d="M10.958 2.098a9.918 9.918 0 0 0-6.697 3.638 9.922 9.922 0 0 0-2.164 7.308 9.92 9.92 0 0 0 3.639 6.696 9.914 9.914 0 0 0 7.307 2.164 9.927 9.927 0 0 0 6.698-3.639 9.922 9.922 0 0 0 2.162-7.308c-.291-2.76-1.693-5.12-3.707-6.75a9.78 9.78 0 0 0-6.171-2.165c-.352 0-.708.018-1.067.056z" fill="#fff"/>
    <path opacity=".4" d="M7.899 9.347L5.476 7.385a7.981 7.981 0 0 0-1.436 4.912l3.098-.326c0-.907.25-1.819.76-2.624z" fill="#7FBA00"/>
    <path opacity=".8" d="M14.676 7.814l1.962-2.423a7.986 7.986 0 0 0-4.915-1.432l.326 3.098a4.9 4.9 0 0 1 2.627.757z" fill="#7FBA00"/>
    <path opacity=".6" d="M10.97 7.179l-.327-3.101a7.992 7.992 0 0 0-4.487 2.459l2.421 1.96A4.89 4.89 0 0 1 10.97 7.18z" fill="#7FBA00"/>
    <path opacity=".25" d="M7.258 13.05l-3.1.328a7.987 7.987 0 0 0 2.457 4.491l1.96-2.42a4.892 4.892 0 0 1-1.317-2.398z" fill="#7FBA00"/>
    <path d="M23.932 10.744c-.35-3.33-2.05-6.184-4.45-8.126a11.642 11.642 0 0 0-1.489-1.008l-.942 1.813c.398.237.785.492 1.145.784 2.014 1.63 3.415 3.99 3.707 6.75a9.924 9.924 0 0 1-2.162 7.308A9.926 9.926 0 0 1 7.885 21.06l-.94 1.812a11.93 11.93 0 0 0 6.312 1.062 11.96 11.96 0 0 0 8.07-4.384 11.956 11.956 0 0 0 2.605-8.805z" fill="#A0A1A2"/>
    <path d="M5.737 19.74a9.917 9.917 0 0 1-3.64-6.694 9.919 9.919 0 0 1 2.164-7.31A9.915 9.915 0 0 1 10.958 2.1a9.866 9.866 0 0 1 6.093 1.325l.942-1.813a11.918 11.918 0 0 0-7.25-1.543c-3.292.347-6.14 2-8.07 4.383l-.003.005a11.971 11.971 0 0 0-2.603 8.802 11.97 11.97 0 0 0 4.385 8.071c.759.615 1.6 1.126 2.493 1.542l.941-1.812a9.988 9.988 0 0 1-2.15-1.318z" fill="#A0A1A2"/>
    <path opacity=".2" d="M5.737 19.74a9.917 9.917 0 0 1-3.64-6.694 9.919 9.919 0 0 1 2.164-7.31A9.915 9.915 0 0 1 10.958 2.1a9.866 9.866 0 0 1 6.093 1.325l.942-1.813a11.918 11.918 0 0 0-7.25-1.543c-3.292.347-6.14 2-8.07 4.383l-.003.005a11.971 11.971 0 0 0-2.603 8.802 11.97 11.97 0 0 0 4.385 8.071c.759.615 1.6 1.126 2.493 1.542l.941-1.812a9.988 9.988 0 0 1-2.15-1.318z" fill="#fff"/>
    <path d="M17.486 6.07l-1.96 2.422a4.878 4.878 0 0 1 1.087 1.65h3.252a7.98 7.98 0 0 0-2.379-4.071z" fill="#7FBA00"/>
    <path d="M11.08 12.98a1.401 1.401 0 0 1 .989-2.399c.356 0 .713.12.987.39.003.004.005-.003.01 0h6.856l.299-.002.001.003c.563 0 1.02.452 1.024 1.014a1.021 1.021 0 0 1-1.018 1.025h-7.24c-.265.231-.593.374-.924.374-.355 0-.711-.134-.985-.405z" fill="#DD5900"/>
    <path d="M20.222 10.98l-.002-.003-.298.003h-6.857c-.004-.004-.006.003-.009 0a1.382 1.382 0 0 0-.987-.39 1.401 1.401 0 0 0-1.404 1.402h10.58a1.022 1.022 0 0 0-1.023-1.012z" fill="#FF8C00"/>
</svg>
