<svg width="24" height="24" fill="none" xmlns="http://www.w3.org/2000/svg">
    <path d="M3 3.279v17.442C3 22.531 7.03 24 12 24V3.279H3z" fill="#0072C6"/>
    <path d="M11.876 24H12c4.97 0 9-1.468 9-3.28V3.28h-9.123V24z" fill="#0072C6"/>
    <path opacity=".15" d="M11.876 24H12c4.97 0 9-1.468 9-3.28V3.28h-9.123V24z" fill="#fff"/>
    <path d="M21 3.279c0 1.81-4.03 3.279-9 3.279S3 5.09 3 3.279 7.03 0 12 0s9 1.468 9 3.279z" fill="#fff"/>
    <path d="M19.16 3.09c0 1.195-3.206 2.164-7.16 2.164S4.84 4.285 4.84 3.09C4.84 1.895 8.044.926 12 .926s7.16.968 7.16 2.164z" fill="#7FBA00"/>
    <path d="M17.66 4.412c.937-.366 1.5-.823 1.5-1.32 0-1.196-3.205-2.164-7.16-2.164-3.954 0-7.16.968-7.16 2.163 0 .498.563.956 1.501 1.321 1.31-.51 3.354-.84 5.659-.84 2.305-.001 4.35.329 5.66.84z" fill="#B8D432"/>
    <path d="M9.141 15.386c0 .542-.195.962-.586 1.26-.39.297-.93.446-1.619.446-.586 0-1.076-.107-1.47-.32v-1.274c.455.388.955.582 1.501.582.264 0 .469-.053.612-.16a.5.5 0 0 0 .217-.422.593.593 0 0 0-.208-.45c-.139-.128-.42-.293-.846-.494-.866-.41-1.3-.967-1.3-1.674 0-.512.19-.923.567-1.233.377-.309.88-.464 1.505-.464.555 0 1.014.074 1.378.22v1.19a2.238 2.238 0 0 0-1.307-.398c-.245 0-.439.052-.582.157a.496.496 0 0 0-.213.42c0 .18.057.329.172.444.115.115.35.258.707.428.53.253.909.508 1.135.769.225.261.337.585.337.973zm6.112-1.291c0 .672-.152 1.256-.456 1.75-.304.494-.73.84-1.283 1.04l1.648 1.533H13.5l-1.177-1.326a2.748 2.748 0 0 1-1.364-.403 2.51 2.51 0 0 1-.939-1.026 3.16 3.16 0 0 1-.331-1.452c0-.593.12-1.12.358-1.584.24-.464.575-.82 1.008-1.07.433-.249.929-.374 1.49-.374.522 0 .99.12 1.404.363.413.242.733.585.962 1.032.228.446.343.952.343 1.517zm-1.347.072c0-.579-.125-1.036-.376-1.372-.251-.336-.594-.504-1.03-.504-.443 0-.798.169-1.065.505-.266.338-.4.787-.4 1.347 0 .558.13 1.004.393 1.337.261.333.608.5 1.041.5.441 0 .791-.161 1.05-.484.258-.323.387-.766.387-1.329zm5.668 2.825h-3.382v-5.714h1.278v4.67h2.104v1.044z" fill="#fff"/>
</svg>
