<?xml version="1.0" encoding="utf-8"?>
<!-- Generator: Adobe Illustrator 23.0.3, SVG Export Plug-In . SVG Version: 6.00 Build 0)  -->
<svg version="1.1" id="Layer_1" xmlns="http://www.w3.org/2000/svg" xmlns:xlink="http://www.w3.org/1999/xlink" x="0px" y="0px"
	 width="50px" height="50px" viewBox="0 0 50 50" enable-background="new 0 0 50 50" xml:space="preserve">
<path fill="#7A7A7A" d="M33,38h-1.207H19.892h-0.621C20.92,43.999,18.705,44.859,9,44.859V48h12.342h9.011H42v-3.141
	c-9.705,0-10.656-0.857-9.005-6.859"/>
<path fill="#A0A1A2" d="M46.98,2H2.719C1.215,2,0.002,3.345,0.002,4.847v31.329c0,1.493,1.213,2.823,2.717,2.823H46.98
	c1.501,0,3.021-1.33,3.021-2.823V4.847C50.001,3.341,48.481,2,46.98,2"/>
<path opacity="0.2" fill="#FFFFFF" enable-background="new    " d="M47.011,2.003c-0.011,0-0.021-0.002-0.031-0.002H2.718
	c-1.504,0-2.717,1.344-2.717,2.847v31.328C0.001,37.67,1.214,39,2.718,39h1.053L47.011,2.003z"/>
<polygon fill="#59B4D9" points="46,6 46,35 4,35 4,6 "/>
<rect x="9" y="45" fill="#A0A1A2" width="33" height="3"/>
<path fill="#B8D432" d="M25.518,4.095c0,0.392-0.318,0.71-0.71,0.71c-0.393,0-0.709-0.318-0.709-0.71c0-0.393,0.316-0.71,0.709-0.71
	C25.2,3.385,25.518,3.702,25.518,4.095"/>
<path fill="#FFFFFF" d="M25.028,19.394c-0.045,0-0.091-0.014-0.134-0.038l-8.804-5.082c-0.081-0.048-0.132-0.137-0.132-0.231
	c0-0.095,0.051-0.183,0.132-0.23l8.751-5.049c0.082-0.046,0.182-0.046,0.263,0l8.807,5.084c0.082,0.047,0.131,0.135,0.131,0.23
	c0,0.096-0.049,0.183-0.131,0.23l-8.748,5.048C25.12,19.38,25.076,19.394,25.028,19.394"/>
<path opacity="0.7" fill="#FFFFFF" enable-background="new    " d="M23.763,31.746c-0.05,0-0.095-0.012-0.134-0.036l-8.778-5.066
	c-0.085-0.047-0.136-0.133-0.136-0.231V16.247c0-0.096,0.051-0.183,0.136-0.231c0.081-0.049,0.181-0.049,0.268,0l8.777,5.064
	c0.078,0.05,0.13,0.137,0.13,0.233v10.166c0,0.097-0.052,0.183-0.13,0.231C23.852,31.734,23.806,31.746,23.763,31.746"/>
<path opacity="0.4" fill="#FFFFFF" enable-background="new    " d="M26.248,31.746c-0.048,0-0.093-0.012-0.138-0.036
	c-0.078-0.048-0.129-0.134-0.129-0.231V21.377c0-0.094,0.051-0.182,0.129-0.231l8.777-5.064c0.084-0.048,0.182-0.048,0.264,0
	c0.084,0.047,0.135,0.135,0.135,0.23v10.101c0,0.098-0.051,0.184-0.135,0.231l-8.774,5.066
	C26.34,31.734,26.294,31.746,26.248,31.746"/>
</svg>
