<?xml version="1.0" encoding="utf-8"?>
<!-- Generator: Adobe Illustrator 18.1.0, SVG Export Plug-In . SVG Version: 6.00 Build 0)  -->
<!DOCTYPE svg PUBLIC "-//W3C//DTD SVG 1.0//EN" "http://www.w3.org/TR/2001/REC-SVG-20010904/DTD/svg10.dtd">
<svg version="1.0" xmlns="http://www.w3.org/2000/svg" xmlns:xlink="http://www.w3.org/1999/xlink" x="0px" y="0px"
	 viewBox="0 0 152 117.5" enable-background="new 0 0 152 117.5" xml:space="preserve">
<g id="Layer_1">
	<g id="Azure">
	</g>
	<g id="BizTalk_Services" transform="translate(37.3575,-2500.2)">
	</g>
	<g id="Key_Vault">
		<g>
			<path fill="#0078D7" d="M99.2,61.4c0-7.3-3.5-13.7-8.8-17.8c0,0.2,0,0.5,0,0.7c0,2.2-0.6,4.3-1.5,6.1c2.6,2.9,4.2,6.7,4.2,10.9
				c0,9-7.3,16.3-16.3,16.3s-16.3-7.3-16.3-16.3c0-4.5,1.8-8.5,4.7-11.5c-0.8-1.7-1.3-3.6-1.3-5.6c0-0.4,0-0.9,0.1-1.3
				c-5.8,4-9.6,10.8-9.6,18.4c0,12.4,10,22.4,22.4,22.4S99.2,73.8,99.2,61.4z"/>
			<g>
				<path fill="#0078D7" d="M77.1,33.8c-5.7,0-10.3,4.6-10.3,10.3c0,4.7,3.1,8.6,7.4,9.9v10.2h-4.8v5.2h4.8v3.8h5.7V54
					c4.3-1.2,7.4-5.2,7.4-9.9C87.4,38.4,82.8,33.8,77.1,33.8z M77.1,39.2c2.7,0,4.9,2.2,4.9,4.9c0,2.7-2.2,4.9-4.9,4.9
					c-2.7,0-4.9-2.2-4.9-4.9C72.2,41.4,74.4,39.2,77.1,39.2z"/>
			</g>
		</g>
	</g>
</g>
<g id="paths">
	<g id="Access_control">
	</g>
	<g id="Azure_active_directory">
	</g>
	<g id="API_Management">
	</g>
	<g id="Azure_automation">
	</g>
	<g id="Azure_SQL_database">
	</g>
	<g id="Azure_subscription">
	</g>
	<g id="Backup_service">
	</g>
	<g id="Bitbucket_code_source">
	</g>
	<g id="Azure_cache">
	</g>
	<g id="Content_delivery_network__x28_CDN_x29_">
	</g>
	<g id="Cloud_service">
	</g>
	<g id="CodePlex">
	</g>
	<g id="Dropbox_code_source">
	</g>
	<g id="Express_route">
	</g>
	<g id="Git_repository">
	</g>
	<g id="GitHub_code">
	</g>
	<g id="HD_Insight">
	</g>
	<g id="Health_monitoring">
	</g>
	<g id="Healthy">
	</g>
	<g id="BizTalk_hybrid_connection">
	</g>
	<g id="Hybrid_connection_manager_for_BizTalk_hybrid_connection">
	</g>
	<g id="Hyper-V_recovery_manager">
	</g>
</g>
</svg>
