<?xml version="1.0" encoding="utf-8"?>
<!-- Generator: Adobe Illustrator 16.0.0, SVG Export Plug-In . SVG Version: 6.00 Build 0)  -->
<!DOCTYPE svg PUBLIC "-//W3C//DTD SVG 1.0//EN" "http://www.w3.org/TR/2001/REC-SVG-20010904/DTD/svg10.dtd">
<svg version="1.0" id="Layer_1" xmlns="http://www.w3.org/2000/svg" xmlns:xlink="http://www.w3.org/1999/xlink" x="0px" y="0px"
	 width="32px" height="32px" viewBox="0 0 32 32" enable-background="new 0 0 32 32" xml:space="preserve">
<rect fill="#415773" width="32" height="32"/>
<g>
	<g>
		<path fill="#FFFFFF" d="M11.426,25.771c-0.61,0.322-1.372,0.484-2.282,0.484c-1.176,0-2.117-0.379-2.824-1.136
			s-1.061-1.75-1.061-2.98c0-1.321,0.397-2.39,1.192-3.204c0.796-0.815,1.805-1.223,3.026-1.223c0.784,0,1.434,0.113,1.948,0.34
			v1.032c-0.592-0.33-1.245-0.496-1.96-0.496c-0.949,0-1.719,0.317-2.309,0.951c-0.59,0.635-0.885,1.481-0.885,2.542
			c0,1.007,0.276,1.81,0.827,2.407c0.552,0.597,1.275,0.896,2.171,0.896c0.83,0,1.548-0.184,2.155-0.553V25.771z"/>
		<path fill="#FFFFFF" d="M15.449,26.256c-0.872,0-1.568-0.276-2.089-0.827c-0.521-0.552-0.781-1.283-0.781-2.193
			c0-0.991,0.271-1.766,0.813-2.323c0.542-0.557,1.274-0.836,2.196-0.836c0.88,0,1.566,0.271,2.061,0.813
			c0.494,0.542,0.741,1.294,0.741,2.254c0,0.941-0.267,1.696-0.799,2.263C17.059,25.973,16.345,26.256,15.449,26.256z
			 M15.519,20.872c-0.607,0-1.087,0.206-1.44,0.619c-0.354,0.413-0.53,0.983-0.53,1.709c0,0.7,0.178,1.251,0.535,1.654
			c0.357,0.404,0.836,0.605,1.436,0.605c0.611,0,1.081-0.198,1.409-0.594c0.329-0.396,0.493-0.959,0.493-1.688
			c0-0.738-0.164-1.307-0.493-1.706C16.6,21.071,16.13,20.872,15.519,20.872z"/>
		<path fill="#FFFFFF" d="M22.978,21.172c-0.166-0.127-0.403-0.19-0.715-0.19c-0.403,0-0.741,0.19-1.012,0.57
			c-0.271,0.381-0.406,0.899-0.406,1.557v3.009h-0.945v-5.902h0.945v1.216h0.022c0.135-0.415,0.341-0.738,0.617-0.971
			s0.586-0.349,0.928-0.349c0.246,0,0.435,0.026,0.565,0.08V21.172z"/>
		<path fill="#FFFFFF" d="M28.747,23.402h-4.168c0.016,0.657,0.192,1.164,0.53,1.521s0.803,0.536,1.395,0.536
			c0.665,0,1.276-0.219,1.833-0.657v0.888c-0.519,0.377-1.204,0.565-2.058,0.565c-0.834,0-1.489-0.269-1.965-0.805
			c-0.477-0.536-0.715-1.29-0.715-2.262c0-0.919,0.26-1.667,0.78-2.245c0.521-0.579,1.168-0.868,1.94-0.868s1.369,0.25,1.792,0.75
			c0.423,0.499,0.635,1.192,0.635,2.08V23.402z M27.778,22.601c-0.004-0.545-0.136-0.97-0.395-1.273
			c-0.26-0.304-0.62-0.455-1.081-0.455c-0.446,0-0.824,0.159-1.136,0.479c-0.312,0.318-0.503,0.735-0.576,1.25H27.778z"/>
	</g>
	<g>
		<path fill="#FFFFFF" d="M13.898,15.541h-1.407L7.449,7.732C7.322,7.536,7.217,7.331,7.135,7.117H7.094
			c0.037,0.21,0.055,0.658,0.055,1.346v7.078H6.001V5.744H7.49l4.905,7.686c0.205,0.319,0.337,0.538,0.396,0.656h0.027
			c-0.046-0.282-0.068-0.763-0.068-1.441v-6.9h1.147V15.541z"/>
		<path fill="#FFFFFF" d="M21.66,15.541h-5.192V5.744h4.974v1.038h-3.826v3.259h3.539v1.032h-3.539v3.43h4.045V15.541z"/>
		<path fill="#FFFFFF" d="M29.339,6.782h-2.828v8.759h-1.148V6.782h-2.821V5.744h6.798V6.782z"/>
	</g>
	<rect x="2.661" y="14.133" fill="#FFFFFF" width="1.327" height="1.326"/>
</g>
</svg>
