<svg width="24" height="24" fill="none" xmlns="http://www.w3.org/2000/svg">
    <path fill-rule="evenodd" clip-rule="evenodd" d="M23 1H4v18H1v4h17.5V5H23V1z" fill="#fff"/>
    <path d="M21 0a3.012 3.012 0 0 1 2.121.879 3.012 3.012 0 0 1 .645 3.293 3.012 3.012 0 0 1-1.606 1.594C21.8 5.922 21.414 6 21 6h-1.5v15a2.963 2.963 0 0 1-.879 2.121A3.012 3.012 0 0 1 16.5 24H3a2.964 2.964 0 0 1-2.121-.879A2.96 2.96 0 0 1 0 21a3.012 3.012 0 0 1 1.828-2.766A2.964 2.964 0 0 1 3 18V3A3.012 3.012 0 0 1 4.828.234 2.962 2.962 0 0 1 6 0h15zm-7.102 22.5A2.995 2.995 0 0 1 13.5 21c0-.531.133-1.031.398-1.5H3c-.21 0-.406.039-.586.117a1.546 1.546 0 0 0-.797.797c-.078.18-.117.375-.117.586 0 .21.04.406.117.586.078.18.184.34.317.48.14.133.3.239.48.317.18.078.375.117.586.117h10.898zm2.602 0c.21 0 .406-.039.586-.117a1.546 1.546 0 0 0 .797-.797c.078-.18.117-.375.117-.586V3c0-.531.133-1.031.398-1.5H6a1.477 1.477 0 0 0-1.066.445c-.133.133-.239.29-.317.47A1.448 1.448 0 0 0 4.5 3v15h12c.203 0 .379.074.527.223a.722.722 0 0 1 .223.527.722.722 0 0 1-.223.527.722.722 0 0 1-.527.223 1.48 1.48 0 0 0-.574.117c-.188.07-.352.176-.492.317-.141.14-.25.304-.329.492-.07.187-.105.379-.105.574 0 .21.039.406.117.586.078.18.184.34.317.48.14.133.3.239.48.317.18.078.375.117.586.117zm4.5-18c.21 0 .406-.04.586-.117a1.546 1.546 0 0 0 .797-.797c.078-.18.117-.375.117-.586a1.413 1.413 0 0 0-.445-1.055A1.41 1.41 0 0 0 21 1.5c-.21 0-.406.04-.586.117a1.546 1.546 0 0 0-.797.797c-.078.18-.117.375-.117.586v1.5H21zm-15 0h10.5V6H6V4.5zm0 3h10.5V9H6V7.5zm0 3h10.5V12H6v-1.5zm0 3h10.5V15H6v-1.5z" fill="#333"/>
</svg>
