<?xml version="1.0" encoding="UTF-8" standalone="no"?>
<!-- Generated by Microsoft Visio, SVG Export ant.svg Page-1 -->

<svg
   xmlns:v="http://schemas.microsoft.com/visio/2003/SVGExtensions/"
   xmlns:dc="http://purl.org/dc/elements/1.1/"
   xmlns:cc="http://creativecommons.org/ns#"
   xmlns:rdf="http://www.w3.org/1999/02/22-rdf-syntax-ns#"
   xmlns:svg="http://www.w3.org/2000/svg"
   xmlns="http://www.w3.org/2000/svg"
   xmlns:sodipodi="http://sodipodi.sourceforge.net/DTD/sodipodi-0.dtd"
   xmlns:inkscape="http://www.inkscape.org/namespaces/inkscape"
   width="1024"
   height="1024"
   viewBox="0 0 819.19994 819.20132"
   xml:space="preserve"
   class="st2"
   id="svg2"
   version="1.1"
   inkscape:version="0.91 r13725"
   sodipodi:docname="ant.svg"
   style="font-size:12px;overflow:visible;color-interpolation-filters:sRGB;fill:none;fill-rule:evenodd;stroke-linecap:square;stroke-miterlimit:3"
   inkscape:export-filename="C:\Users\Jamie\Sources\vso-agent-tasks\Tasks\ANT\icon.png"
   inkscape:export-xdpi="2.8099999"
   inkscape:export-ydpi="2.8099999"><metadata
     id="metadata19"><rdf:RDF><cc:Work
         rdf:about=""><dc:format>image/svg+xml</dc:format><dc:type
           rdf:resource="http://purl.org/dc/dcmitype/StillImage" /><dc:title></dc:title></cc:Work></rdf:RDF></metadata><defs
     id="defs17" /><sodipodi:namedview
     pagecolor="#ffffff"
     bordercolor="#666666"
     borderopacity="1"
     objecttolerance="10"
     gridtolerance="10"
     guidetolerance="10"
     inkscape:pageopacity="0"
     inkscape:pageshadow="2"
     inkscape:window-width="1166"
     inkscape:window-height="825"
     id="namedview15"
     showgrid="true"
     units="px"
     inkscape:snap-bbox="true"
     inkscape:bbox-nodes="true"
     inkscape:zoom="0.38773211"
     inkscape:cx="295.85767"
     inkscape:cy="598.71615"
     inkscape:window-x="905"
     inkscape:window-y="235"
     inkscape:window-maximized="0"
     inkscape:current-layer="svg2"><inkscape:grid
       type="xygrid"
       id="grid4147"
       spacingx="25.599998"
       spacingy="25.600041"
       empspacing="8" /></sodipodi:namedview><v:documentProperties
     v:langID="1033"
     v:viewMarkup="false" /><style
     type="text/css"
     id="style4"><![CDATA[
		.st1 {fill:#a81c7d;stroke:none;stroke-linecap:round;stroke-linejoin:round;stroke-width:0.75}
		.st2 {fill:none;fill-rule:evenodd;font-size:12px;overflow:visible;stroke-linecap:square;stroke-miterlimit:3}
	]]></style><g
     v:mID="0"
     v:index="1"
     v:groupContext="foregroundPage"
     id="g6"
     transform="matrix(38.189262,0,0,38.18923,-6.8359486e-4,76.800132)"><title
       id="title8">Page-1</title><v:pageProperties
       v:drawingScale="1.38889"
       v:pageScale="1"
       v:drawingUnits="19"
       v:shadowOffsetX="9"
       v:shadowOffsetY="-9" /><g
       id="shape497-1"
       v:mID="497"
       v:groupContext="shape"><title
         id="title11">Sheet.497</title><path
         d="M 21.6,3.44 C 21.2,3.2 20.88,3 20.74,2.88 20.52,2.69 20.15,2.72 19.44,2.83 c 0,0 -1.98,0.46 -2.69,0.79 -0.7,0.33 -2.28,1.21 -2.54,1.44 0,0 -0.3,0 -0.41,0.13 C 13.79,5.18 13.78,5.17 13.76,5.17 13.58,5.06 12.4,3.91 12.4,3.91 11.81,3.39 10.81,2.33 10.19,1.81 9.55,1.29 7.03,0.49 5.98,0.59 4.99,0.68 4.53,1.32 4.28,1.95 4.06,1.59 3.84,1.22 3.62,0.96 2.99,0.22 2.8,0 2.8,0 2.8,0 2.14,0 1.48,0.44 1.07,0.71 0.51,1.32 0.13,1.75 0.08,1.75 0.04,1.77 0,1.77 L 0,9.33 C 0.22,9.19 0.47,9.05 0.71,8.86 1.03,8.62 1.27,8.25 1.32,7.93 1.37,7.86 1.42,7.79 1.48,7.72 2.01,6.89 2.64,6.26 2.96,5.57 3.08,5.59 3.2,5.61 3.31,5.62 c 0.04,0.7 0.36,1.25 0.6,1.68 0.17,0.32 0.57,0.68 1.01,1 -0.26,0.04 -0.5,0.1 -0.69,0.15 0,0 -2.99,0.6 -3.55,0.9 C 0.43,9.48 0.21,9.62 0,9.74 l 0,1.63 c 0.7,0.23 1.41,0.39 1.65,0.15 0.43,-0.43 2.36,-1.49 2.7,-1.67 0.34,-0.19 0.98,-0.33 1.19,-0.27 0.22,0.04 0.66,1.65 1.42,3.02 0.76,1.37 0.63,1.95 1.13,1.76 0.49,-0.2 0.49,0.37 0.94,0.36 0.46,-0.02 0.54,0.3 0.81,0.81 0.27,0.51 0.54,1.14 1.2,1.25 0.66,0.09 3.26,0.77 3.56,0.61 0.3,-0.16 0.32,-0.57 -0.44,-0.73 -0.76,-0.17 -2.53,-0.17 -2.93,-0.45 -0.39,-0.28 -0.49,-1.73 -0.9,-1.9 C 9.91,14.14 9.27,13.94 9.2,13.77 9.13,13.62 7.64,10.99 7.08,9.59 c 0.75,0.32 1.92,0.78 2.62,1 1.03,0.33 2.81,0.89 3.55,0.89 0.46,0 0.65,-0.16 0.72,-0.29 0.06,0.13 0.09,0.23 0.13,0.29 0.14,0.26 0.37,0.44 0.37,0.44 0,0 -0.08,0.15 0.14,0.25 0.22,0.12 1.74,0.34 2.29,0.85 0.56,0.52 1.33,1.52 1.41,2.44 0.07,0.92 0.66,1.92 0.95,1.96 0.3,0.04 0.63,0 0.33,-1.25 C 19.3,14.91 18.85,13.91 18.15,13.36 17.46,12.8 15.65,11.92 15.42,11.81 15.2,11.7 14.9,11.4 14.8,11.4 c -0.11,0 -0.07,-0.1 -0.26,-0.74 -0.04,-0.11 -0.07,-0.23 -0.1,-0.36 0.05,-0.12 0.22,-0.59 0.29,-1.22 0.07,-0.74 -0.26,-2.37 -0.56,-2.77 0,0 -0.03,-0.26 -0.04,-0.47 0.09,0.04 0.19,0.05 0.26,-0.01 0.22,-0.18 0.81,-0.96 1.73,-1.36 0.92,-0.41 1.81,-0.78 2.85,-0.85 1.03,-0.08 1.18,-0.15 1.18,-0.15 0,0 0.47,-0.08 1.03,0.22 0.05,0.03 0.32,0.16 0.42,0.21 l 0,-0.46 z M 2.59,0.74 C 2.74,0.73 2.86,0.83 2.91,1.03 2.98,1.28 3.18,2.18 3.33,2.86 2.97,2.92 2.72,2.98 2.56,3.06 2.26,2.64 1.91,2.35 1.55,2.14 1.68,1.84 1.83,1.48 2.07,1.15 2.25,0.89 2.43,0.75 2.59,0.74 Z M 8.86,6.26 C 9.23,6.3 9.23,6.39 9.6,6.95 9.96,7.5 10.06,8.24 9.78,8.51 9.51,8.79 9.18,8.88 8.4,7.82 7.61,6.76 8.38,6.19 8.86,6.26 Z"
         class="st1"
         id="path13"
         inkscape:connector-curvature="0"
         style="fill:#a81c7d;stroke:none;stroke-width:0.75;stroke-linecap:round;stroke-linejoin:round" /></g></g></svg>