<?xml version="1.0" encoding="UTF-8" standalone="no"?>
<svg
   xmlns:dc="http://purl.org/dc/elements/1.1/"
   xmlns:cc="http://creativecommons.org/ns#"
   xmlns:rdf="http://www.w3.org/1999/02/22-rdf-syntax-ns#"
   xmlns:svg="http://www.w3.org/2000/svg"
   xmlns="http://www.w3.org/2000/svg"
   xmlns:sodipodi="http://sodipodi.sourceforge.net/DTD/sodipodi-0.dtd"
   xmlns:inkscape="http://www.inkscape.org/namespaces/inkscape"
   width="1024"
   height="1024"
   id="svg3336"
   version="1.1"
   inkscape:version="0.91 r13725"
   sodipodi:docname="icon.svg"
   inkscape:export-filename="C:\Users\Jamie\Sources\vsts-tasks\Tasks\PublishSymbols\icon.png"
   inkscape:export-xdpi="2.8099999"
   inkscape:export-ydpi="2.8099999">
  <defs
     id="defs3344" />
  <sodipodi:namedview
     pagecolor="#ffffff"
     bordercolor="#666666"
     borderopacity="1"
     objecttolerance="10"
     gridtolerance="20"
     guidetolerance="10"
     inkscape:pageopacity="0"
     inkscape:pageshadow="2"
     inkscape:window-width="3440"
     inkscape:window-height="1377"
     id="namedview3342"
     showgrid="true"
     inkscape:zoom="0.5"
     inkscape:cx="-618.56218"
     inkscape:cy="1103.463"
     inkscape:window-x="-8"
     inkscape:window-y="-8"
     inkscape:window-maximized="1"
     inkscape:current-layer="svg3336"
     inkscape:snap-bbox="true"
     inkscape:snap-global="true"
     inkscape:bbox-paths="false"
     inkscape:bbox-nodes="true"
     showguides="false"
     inkscape:object-nodes="true"
     inkscape:snap-nodes="false">
    <inkscape:grid
       type="xygrid"
       id="grid4170"
       spacingx="32"
       spacingy="32"
       empspacing="4"
       dotted="false" />
  </sodipodi:namedview>
  <metadata
     id="metadata3338">
    <rdf:RDF>
      <cc:Work>
        <dc:subject>
                    Miscellaneous
                </dc:subject>
        <dc:identifier>
                    visual-studio-online
                </dc:identifier>
        <dc:title />
        <dc:format>
                    image/svg+xml
                </dc:format>
        <dc:publisher>
                    Amido Limited
                </dc:publisher>
        <dc:creator>
                    Richard Slater
                </dc:creator>
        <dc:type
           rdf:resource="http://purl.org/dc/dcmitype/StillImage" />
      </cc:Work>
    </rdf:RDF>
  </metadata>
  <path
     style="fill:#ffffff;fill-opacity:1;stroke:none"
     d="m 160,32 0,832 640,0 0,-671.50977 L 640.75586,32 160,32 Z"
     id="rect4135"
     inkscape:export-xdpi="2.8099999"
     inkscape:export-ydpi="2.8099999"
     inkscape:connector-curvature="0" />
  <path
     inkscape:connector-curvature="0"
     style="fill:#424242;fill-opacity:1;stroke-width:64;stroke-miterlimit:4;stroke-dasharray:none"
     d="M 239.57079,64 C 213.21624,64 192,85.21656 192,111.57152 l 0,672.86879 c 0,26.35494 21.21624,47.5715 47.57079,47.5715 0.144,0 0.28549,-0.009 0.42918,-0.0105 l 0,0.0105 480.00003,0 c 26.592,0 48,-21.40833 48,-48.00074 L 768,212.61946 619.38285,64 l -379.38288,0 0,0.0103 C 239.85628,64.00932 239.71479,64 239.57079,64 Z m 0.42918,48.00073 47.14309,0 312.85694,0 0,96.00147 c 0,13.29621 10.704,24.00038 24,24.00038 l 96,0 0,552.00849 -480.00003,0 0,-672.01034 z"
     id="rect3340" />
  <rect
     style="fill:#424242;fill-opacity:1;stroke-width:64;stroke-miterlimit:4;stroke-dasharray:none"
     id="rect3339"
     width="320"
     height="64"
     x="320"
     y="288"
     ry="31.999998" />
  <rect
     ry="31.999998"
     y="448"
     x="320"
     height="64"
     width="320"
     id="rect3341"
     style="fill:#424242;fill-opacity:1;stroke-width:64;stroke-miterlimit:4;stroke-dasharray:none" />
  <rect
     style="fill:#ffffff;fill-opacity:1"
     id="rect4722"
     height="128"
     width="448"
     y="896"
     x="576" />
  <rect
     x="608"
     y="928"
     width="384"
     height="64"
     id="rect8"
     style="fill:#424242;fill-opacity:1" />
  <rect
     x="640"
     y="-896"
     width="288"
     height="192"
     id="rect4724"
     style="fill:#ffffff;fill-opacity:1"
     transform="matrix(0,1,-1,0,0,0)" />
  <path
     style="fill:#ffffff;fill-opacity:1"
     d="M 800 416 L 640 576 L 512 704 L 704 704 L 800 656 L 896 704 L 1088 704 L 960 576 L 800 416 z "
     id="rect4726" />
  <path
     d="m 736,864 128,0 0,-192 128,0 -192,-192 -192,192 128,0 z"
     id="polygon6"
     inkscape:connector-curvature="0"
     sodipodi:nodetypes="cccccccc"
     style="fill:#424242;fill-opacity:1" />
  <circle
     style="fill:#424242;fill-opacity:1;stroke:#ffffff;stroke-width:48;stroke-linecap:round;stroke-miterlimit:4;stroke-dasharray:none;stroke-opacity:1"
     id="path4156"
     cx="224"
     cy="736"
     r="188.63158" />
</svg>
