<svg width="24" height="24" fill="none" xmlns="http://www.w3.org/2000/svg">
    <g clip-path="url(#clip0)">
        <path d="M20.803 8.956a6.01 6.01 0 0 0 .14-1.269c0-3.18-2.592-5.767-5.777-5.767a5.76 5.76 0 0 0-5.19 3.233 4.15 4.15 0 0 0-7.081 2.935c0 .31.035.623.105.944-1.883.767-3 2.359-3 4.294 0 2.61 2.133 4.654 4.854 4.654h.31a4.409 4.409 0 0 0 4.399 4.308c1.61 0 3.069-.868 3.838-2.247.579.502 1.32.782 2.093.782 1.642 0 3-1.244 3.192-2.843h.461c2.722 0 4.853-2.044 4.853-4.654 0-2.016-1.221-3.674-3.197-4.37z" fill="#3E3E3E"/>
        <path d="M18.929 11.132l.353-.836-.874-.759.004-.677.87-.778-.342-.841c-.385.026-.77.055-1.154.082l-.476-.483.064-1.165-.836-.353-.759.874-.677-.005-.779-.869-.84.342.081 1.154-.482.476-1.165-.065-.354.836.875.76-.005.677-.869.778.342.841 1.154-.082.476.483-.065 1.164.837.354.758-.874.678.004.778.87.84-.342-.08-1.155.482-.476 1.165.065zm-4.229-.24c-.875-.344-1.36-1.414-1.04-2.3.277-.9 1.308-1.465 2.216-1.214.904.206 1.54 1.162 1.385 2.075-.115.92-1.003 1.649-1.928 1.584a1.859 1.859 0 0 1-.633-.144zm-1.088 4.443v-.909c-.367-.119-.733-.24-1.1-.36l-.258-.625.499-1.055-.642-.642-1.032.523-.626-.26-.393-1.099h-.907l-.36 1.1-.626.258-1.055-.499-.642.642.523 1.033-.26.625-1.099.393v.907l1.1.36.259.627-.5 1.054.642.643 1.033-.524.625.26.393 1.098h.908l.36-1.099.626-.259 1.054.5.643-.642-.524-1.032.26-.626 1.099-.392zm-3.99 1.42c-.975.024-1.856-.837-1.857-1.811-.048-.974.79-1.877 1.764-1.903.972-.073 1.897.74 1.947 1.714.098.97-.692 1.915-1.664 1.991-.063.006-.127.01-.19.01z" fill="#fff"/>
        <path d="M16.536 9.65a1.206 1.206 0 1 1-2.223-.938 1.206 1.206 0 0 1 2.223.938zm-5.706 5.248a1.207 1.207 0 1 1-2.415-.002 1.207 1.207 0 0 1 2.415.002z" fill="#B8D432"/>
    </g>
    <defs>
        <clipPath id="clip0">
            <path fill="#fff" d="M0 0h24v24H0z"/>
        </clipPath>
    </defs>
</svg>
