<svg width="24" height="24" fill="none" xmlns="http://www.w3.org/2000/svg">
    <g clip-path="url(#clip0)">
        <path d="M23.85 12.15c.225-.225.188-.637 0-.862l-1.163-1.163L17.512 5.1c-.224-.225-.562-.225-.825 0-.225.225-.3.638 0 .863l5.438 5.325a.635.635 0 0 1 0 .862l-5.55 5.513a.635.635 0 0 0 0 .862c.225.225.637.188.825 0l5.138-5.1.037-.037 1.275-1.238zm-23.7 0c-.225-.225-.187-.637 0-.862l1.162-1.163L6.487 5.1c.226-.225.563-.225.825 0 .225.225.3.638 0 .863l-5.325 5.325a.635.635 0 0 0 0 .862l5.438 5.513a.635.635 0 0 1 0 .862c-.225.225-.638.188-.825 0L1.35 13.5l-.038-.037L.15 12.15z" fill="#3999C6"/>
        <path d="M17.85.938h-7.313L6.6 12.037l4.8.037-3.75 10.988L18 8.4h-5.025L17.85.937z" fill="#FCD116"/>
        <path opacity=".3" d="M12.975 8.4L17.85.937h-3.825l-4.05 9.226 4.8.037L7.65 23.063 18 8.4h-5.025z" fill="#FF8C00"/>
    </g>
    <defs>
        <clipPath id="clip0">
            <path fill="#fff" d="M0 0h24v24H0z"/>
        </clipPath>
    </defs>
</svg>
