<?xml version="1.0" encoding="UTF-8" standalone="no"?>
<svg
   xmlns:dc="http://purl.org/dc/elements/1.1/"
   xmlns:cc="http://creativecommons.org/ns#"
   xmlns:rdf="http://www.w3.org/1999/02/22-rdf-syntax-ns#"
   xmlns:svg="http://www.w3.org/2000/svg"
   xmlns="http://www.w3.org/2000/svg"
   xmlns:sodipodi="http://sodipodi.sourceforge.net/DTD/sodipodi-0.dtd"
   xmlns:inkscape="http://www.inkscape.org/namespaces/inkscape"
   width="1024"
   height="1024"
   id="svg2"
   version="1.1"
   inkscape:version="0.91 r13725"
   sodipodi:docname="icon.svg"
   inkscape:export-filename="C:\Users\Jamie\Sources\vso-agent-tasks\Tasks\SqlServerDacpacDeployment\icon.png"
   inkscape:export-xdpi="2.8099999"
   inkscape:export-ydpi="2.8099999">
  <defs
     id="defs10" />
  <sodipodi:namedview
     pagecolor="#ffffff"
     bordercolor="#666666"
     borderopacity="1"
     objecttolerance="10"
     gridtolerance="10"
     guidetolerance="10"
     inkscape:pageopacity="0"
     inkscape:pageshadow="2"
     inkscape:window-width="1175"
     inkscape:window-height="736"
     id="namedview8"
     showgrid="true"
     inkscape:snap-bbox="true"
     inkscape:bbox-nodes="true"
     inkscape:zoom="0.297995"
     inkscape:cx="264.00686"
     inkscape:cy="709.36125"
     inkscape:window-x="1116"
     inkscape:window-y="483"
     inkscape:window-maximized="0"
     inkscape:current-layer="svg2">
    <inkscape:grid
       type="xygrid"
       id="grid4138"
       spacingx="32"
       spacingy="32"
       empspacing="4" />
  </sodipodi:namedview>
  <metadata
     id="metadata4">
    <rdf:RDF>
      <cc:Work>
        <dc:subject>
                    Data
                </dc:subject>
        <dc:identifier>
                    sql-database-generic
                </dc:identifier>
        <dc:title />
        <dc:format>
                    image/svg+xml
                </dc:format>
        <dc:publisher>
                    Amido Limited
                </dc:publisher>
        <dc:creator>
                    Richard Slater
                </dc:creator>
        <dc:type
           rdf:resource="http://purl.org/dc/dcmitype/StillImage" />
      </cc:Work>
    </rdf:RDF>
  </metadata>
  <g
     id="g4136"
     transform="matrix(1.3333333,0,0,1.3333333,-170.66664,-170.66666)">
    <path
       sodipodi:nodetypes="cccccc"
       inkscape:connector-curvature="0"
       id="rect4140"
       d="M 289.18644,194.40678 512,160 734.81356,193.22034 736,672 288,672 Z"
       style="fill:#ffffff;fill-opacity:1" />
    <path
       style="fill:#424242;fill-opacity:1"
       inkscape:connector-curvature="0"
       id="path6"
       d="m 466.31775,895.50786 c -71.95832,-5.18183 -143.0799,-23.27689 -186.69793,-47.50168 -24.84483,-13.7976 -43.77309,-30.75493 -51.20067,-45.868 L 224,793.14605 l 0,-282.05273 0,-282.05304 3.49701,-7.093 c 15.62706,-31.69628 65.50022,-60.27121 135.12024,-77.41617 23.63274,-5.82031 57.75,-11.61648 85.58325,-14.53926 28.42112,-2.98531 103.75419,-2.53109 132.10469,0.80091 75.35011,8.84402 139.46793,28.64405 178.9813,55.27047 15.2382,10.2681 30.8745,26.69772 36.17156,38.00701 l 4.54195,9.6965 -0.38877,281.19948 -0.38876,281.20134 -3.64547,7.3991 c -2.005,4.06928 -8.06147,12.07618 -13.45878,17.79116 -32.8561,34.7957 -103.33184,60.53566 -195.77303,71.50268 -18.8415,2.2359 -100.69581,4.044 -120.02646,2.6517 z M 598.92563,653.82612 c -0.27674,-0.72412 -11.03384,-10.29444 -23.90465,-21.2758 -12.8708,-10.98134 -23.95594,-20.48211 -24.63363,-21.11286 -0.6776,-0.63085 1.70012,-2.86418 5.2842,-4.96311 3.58399,-2.09894 10.45082,-7.93779 15.25952,-12.97529 14.06244,-14.73148 20.69735,-32.92848 20.69735,-56.76455 0,-23.46557 -7.15611,-42.39886 -21.48861,-56.85143 -14.44497,-14.56779 -31.03011,-20.82696 -55.18307,-20.82696 -37.22979,0 -65.82267,21.70247 -74.94872,56.88765 -3.13931,12.10251 -3.1224,36.5578 0.0329,47.28912 8.23003,27.99192 30.64464,48.32164 58.54093,53.09551 9.44014,1.61541 10.71899,2.31177 17.15501,9.34145 3.82492,4.17768 11.67397,12.51658 17.44238,18.53109 l 10.48793,10.93516 27.88092,0 c 15.3345,0 27.65447,-0.59246 27.37771,-1.30998 z m -95.61521,-77.98965 c -6.71209,-3.49635 -9.24959,-6.20969 -13.07725,-13.98333 -2.95626,-6.00399 -3.46176,-9.41904 -3.49493,-23.61006 -0.0329,-14.41968 0.42611,-17.53554 3.51282,-23.7969 5.05008,-10.24617 12.00937,-15.09661 22.77493,-15.87448 14.9854,-1.08617 23.63516,6.26136 28.16865,23.91868 5.55821,21.64882 -0.5535,44.66521 -13.88907,52.3037 -6.99631,4.00751 -17.43251,4.46085 -23.99515,1.04228 z m -123.5822,40.18473 c 29.2318,-5.53836 45.82573,-22.52202 45.82573,-46.90206 0,-21.62863 -10.71274,-34.23111 -40.32156,-47.43624 -16.9494,-7.55928 -23.08868,-12.30441 -23.08868,-17.84824 0,-4.5948 5.82617,-9.62957 12.60878,-10.89457 6.62238,-1.23537 24.18645,1.81247 34.55851,5.99806 l 8.69412,3.50863 0,-19.22621 0,-19.22733 -9.43606,-2.09115 c -5.83178,-1.29242 -18.08617,-2.0681 -32.08251,-2.0286 -19.82562,0 -23.70808,0.48274 -31.16893,3.44281 -21.79325,8.64325 -32.13479,23.36682 -31.96941,45.51473 0.15484,20.73369 11.1037,33.66718 38.35216,45.3021 16.07754,6.865 22.52147,12.09242 22.52147,18.26975 0,13.12724 -21.89396,14.74278 -45.07425,3.32596 -6.34814,-3.12662 -12.05155,-5.93956 -12.67433,-6.25105 -0.62269,-0.31159 -1.13235,8.66991 -1.13235,19.95879 0,20.43296 0.0219,20.53149 3.72498,21.93988 13.94484,5.29676 44.76552,7.65659 60.66233,4.64474 z m 334.19137,-18.9548 0,-17.34551 -26.42095,0 -26.42087,0 0,-59.57838 0,-59.57782 -23.40144,0 -23.40136,0 0,76.92355 0,76.92367 49.8223,0 49.82232,0 0,-17.34551 z M 550.86473,293.10429 c 46.503,-3.22229 81.36133,-9.30591 112.03607,-19.55208 30.55897,-10.20775 48.6111,-22.55932 52.64917,-36.02339 1.55573,-5.18836 1.44372,-7.15662 -0.73029,-12.84528 -9.74929,-25.50294 -64.21116,-45.09671 -147.43274,-53.04108 -35.59862,-3.39893 -100.33944,-2.2974 -134.28198,2.28314 -51.79159,6.99096 -93.82295,19.97667 -112.51181,34.7606 -37.80567,29.90794 2.17368,62.8023 95.14781,78.2851 40.31321,6.71338 92.54255,9.0843 135.12421,6.13299 z" />
  </g>
</svg>
