<svg width="24" height="24" fill="none" xmlns="http://www.w3.org/2000/svg">
    <path d="M12 24c6.627 0 12-5.373 12-12S18.627 0 12 0 0 5.373 0 12s5.373 12 12 12z" fill="#5C2D91"/>
    <path opacity=".1" d="M3.961 3.329a11.836 11.836 0 1 0 16.71 16.71L3.961 3.329z" fill="#fff"/>
    <path d="M3.066 13.777a.498.498 0 0 1-.37-.155.51.51 0 0 1-.151-.37.518.518 0 0 1 .151-.37.496.496 0 0 1 .37-.16.509.509 0 0 1 .37.16.514.514 0 0 1 0 .74.51.51 0 0 1-.37.155zm7.349-.093h-.969L5.981 8.308a2.22 2.22 0 0 1-.215-.422h-.03c.034.307.046.616.038.925v4.874h-.788V6.942H6.01l3.373 5.282c.141.22.232.37.274.45h.019a7.131 7.131 0 0 1-.048-.99V6.942h.787v6.742zm4.669 0H11.5V6.942h3.417v.714h-2.61v2.241h2.433v.71h-2.434v2.338h2.782l-.004.74zm5.293-6.028h-1.96v6.029h-.789v-6.03H15.69v-.713h4.687v.714z" fill="#fff"/>
    <path d="M9.99 18.27a1.82 1.82 0 0 1-.858.182 1.384 1.384 0 0 1-1.062-.425 1.576 1.576 0 0 1-.399-1.11 1.65 1.65 0 0 1 .448-1.206 1.523 1.523 0 0 1 1.139-.458c.253-.009.504.035.74.13v.369a1.479 1.479 0 0 0-.74-.185 1.132 1.132 0 0 0-.87.37c-.23.263-.35.605-.332.954a1.28 1.28 0 0 0 .31.906 1.058 1.058 0 0 0 .818.337c.284.007.564-.064.81-.207l-.004.344zm1.513.182a1.027 1.027 0 0 1-.788-.33 1.15 1.15 0 0 1-.292-.824 1.197 1.197 0 0 1 .307-.873 1.109 1.109 0 0 1 .824-.314.993.993 0 0 1 .773.307c.197.237.296.54.278.847a1.19 1.19 0 0 1-.3.85 1.05 1.05 0 0 1-.802.337zm.025-2.023a.677.677 0 0 0-.54.233.958.958 0 0 0-.2.643.906.906 0 0 0 .2.622.683.683 0 0 0 .54.23.651.651 0 0 0 .53-.223.97.97 0 0 0 .184-.636.984.984 0 0 0-.185-.64.647.647 0 0 0-.529-.23zm2.804.111a.437.437 0 0 0-.27-.07.455.455 0 0 0-.37.214.99.99 0 0 0-.151.584V18.4h-.37v-2.219h.37v.462a.776.776 0 0 1 .233-.37.529.529 0 0 1 .347-.129.583.583 0 0 1 .211.03v.366zm2.168.843h-1.565c-.01.207.057.41.188.57a.69.69 0 0 0 .526.2c.25-.003.493-.09.688-.248v.332c-.229.151-.5.225-.773.211a.94.94 0 0 1-.74-.303 1.24 1.24 0 0 1-.27-.85c-.013-.309.091-.61.292-.844a.944.944 0 0 1 .74-.325.835.835 0 0 1 .673.28c.17.225.254.504.237.785l.003.192zm-.37-.3a.74.74 0 0 0-.148-.477.507.507 0 0 0-.407-.17.573.573 0 0 0-.426.181.818.818 0 0 0-.218.47l1.199-.003z" fill="#F2F2F2"/>
</svg>
