<svg width="24" height="24" fill="none" xmlns="http://www.w3.org/2000/svg">
    <path d="M20.648 15.757H3.352v6.99h17.296v-6.99z" fill="#0078D7" stroke="#333" stroke-width=".5" stroke-miterlimit="10"/>
    <path d="M21.892 23.99H2.11v-8.526h19.783v8.526zm-18.54-1.243h17.296v-6.04H3.352v6.04z" fill="#333"/>
    <path d="M20.648 1.254H3.352v14.21h5.887l-.033.764c0 1.493 1.235 2.728 2.754 2.728a2.756 2.756 0 0 0 2.753-2.753.442.442 0 0 1-.012-.097l-.022-.643h5.97V1.253z" fill="#fff"/>
    <path d="M11.959 20.2a4.002 4.002 0 0 1-3.965-3.493H2.109V.01h19.783v16.697h-5.968a4.002 4.002 0 0 1-3.965 3.493zm-8.607-4.736h5.887l-.033.764c0 1.493 1.235 2.728 2.754 2.728a2.756 2.756 0 0 0 2.753-2.753.434.434 0 0 1-.012-.097l-.022-.643h5.97V1.253H3.352v14.21z" fill="#333"/>
    <path d="M16.918 8.125L12.04 3.25 7.165 8.125l1.02 1.02L11.32 6.01v8.479h1.443v-8.48l3.135 3.136 1.02-1.02z" fill="#333"/>
</svg>
