<svg width="24" height="24" fill="none" xmlns="http://www.w3.org/2000/svg">
    <path d="M9.698 19.374h4.8v2.186H8.696l1.001-2.186z" fill="#DC5900"/>
    <path d="M2.988 13.46l1.452 5.142 2.379-.913-.676-1.126-1.24-4.353-1.915 1.25z" fill="#DE6D45"/>
    <path d="M18.687 13.385L17.4 18.058l2.6.544-.206-1.2 1.403-4.786-2.511.77zM14.505 6.69l3.092 2.643 1.315-1.752-4.056-3.277-1.09 2.403.739-.017z" fill="#DC5900"/>
    <path d="M8.373 4.921L5.579 7.118 6.99 9.104l.198-.567L9.891 6.5 8.373 4.921zM5.978 16.537c-.71.114-1.297.48-1.892.846a570.667 570.667 0 0 0-.945-3.43c.06-.076.152-.084.244-.076.556.007 1.106.022 1.64-.199.045-.015.114.03.175.046.13.061.16.183.198.305.206.716.397 1.44.61 2.157.023.107.061.229-.03.35z" fill="#DE6D45"/>
    <path d="M14.505 6.62c.13-.343.473-.503.64-.815.168-.305.36-.603.443-.946.839.702 1.678 1.395 2.517 2.096-.084.313-.412.39-.587.61-.237.32-.473.648-.71.968-.099.054.22.214.151.16-.648-.525-1.684-1.288-2.317-1.837-.06-.06-.175-.106-.137-.236z" fill="#DC5900"/>
    <path d="M3.796 13.995a3.795 3.795 0 0 0 3.797-3.793c0-2.096-1.7-3.794-3.797-3.794A3.795 3.795 0 0 0 0 10.202c0 2.095 1.7 3.793 3.796 3.793zm6.631 6.211a3.793 3.793 0 0 1-4.134 3.78 3.799 3.799 0 0 1-3.429-3.309 3.792 3.792 0 0 1 2.508-4.05 3.798 3.798 0 0 1 5.055 3.579z" fill="#FE9545"/>
    <path d="M7.267 23.923c.26-1.166.51-2.333.77-3.491.221-1.006.45-2.005.687-3.01a.385.385 0 0 1 .076-.13c.541.114.763.579 1.03.975.254.394.428.835.51 1.296.138.541.1 1.075-.038 1.608-.038.152-.083.29-.213.389-.511 1.174-1.343 1.99-2.601 2.332a1.038 1.038 0 0 1-.221.03z" fill="#FE8B00"/>
    <path d="M11.996 7.588a3.795 3.795 0 0 0 3.796-3.794c0-2.095-1.7-3.794-3.796-3.794a3.795 3.795 0 0 0-3.797 3.794c0 2.095 1.7 3.794 3.797 3.794z" fill="#FE9545"/>
    <path d="M12.682.08c2.212.405 3.576 2.546 2.966 4.78a8.257 8.257 0 0 1-.183.476c-.229.533-.579.934-.96 1.353-.877.74-1.9.968-3.02.869-.176-.015-.359-.03-.496-.16-.076-.153-.015-.297.015-.442.458-2.081.946-4.154 1.411-6.228.046-.228.054-.48.267-.647zm7.522 13.915A3.795 3.795 0 0 0 24 10.202c0-2.096-1.7-3.794-3.796-3.794a3.795 3.795 0 0 0-3.797 3.794c0 2.095 1.7 3.793 3.797 3.793zM17.401 24a3.795 3.795 0 0 0 3.797-3.794c0-2.095-1.7-3.794-3.797-3.794a3.795 3.795 0 0 0-3.796 3.794c0 2.095 1.7 3.794 3.796 3.794z" fill="#FE8B00"/>
</svg>
