<svg width="24" height="24" fill="none" xmlns="http://www.w3.org/2000/svg">
    <path d="M18.561 1.89H6.097v20.42h16.105V5.22l-3.64-3.33z" fill="#EAEAEA" stroke="#EAEAEA" stroke-width=".75" stroke-miterlimit="10"/>
    <path d="M19.096.017L4.298 0v24H24V4.557L19.096.017z" fill="#333"/>
    <path d="M22.202 22.309H6.098l-.001-7.736V1.89H18.56l3.64 3.33v17.088z" fill="#333"/>
    <path d="M18.561 1.89H6.097v20.42h16.105V5.22l-3.64-3.33z" fill="#EAEAEA"/>
    <path d="M18.67 1.61H5.817v20.98h16.668V5.097L18.67 1.61z" fill="#fff"/>
    <path d="M14.982 18.75h-1.645v-7.93l-3.173 3.174L9 12.831l5.16-5.16 5.159 5.16-1.164 1.163-3.173-3.173v7.929zm3.53-13.485H9.786V6.75h8.726V5.265z" fill="#333"/>
    <path d="M18.7 6.938H9.598v-1.86H18.7v1.86zm-8.727-.375h8.352v-1.11H9.973v1.11zM4.92 24a4.785 4.785 0 0 1-2.467-.669A5.01 5.01 0 0 1 .67 21.547 4.781 4.781 0 0 1 0 19.08c0-.886.225-1.717.669-2.467a5.004 5.004 0 0 1 1.784-1.785 4.896 4.896 0 0 1 4.933 0 5.008 5.008 0 0 1 1.785 1.785c.445.753.67 1.583.67 2.467 0 .884-.225 1.713-.67 2.467a5.015 5.015 0 0 1-1.784 1.784 4.783 4.783 0 0 1-2.467.67zm0-8.34c-.621 0-1.178.15-1.704.46a3.486 3.486 0 0 0-1.256 1.255 3.262 3.262 0 0 0-.46 1.705c0 .623.15 1.18.46 1.703a3.49 3.49 0 0 0 1.257 1.257c1.048.62 2.358.62 3.406 0a3.49 3.49 0 0 0 1.256-1.257 3.26 3.26 0 0 0 .462-1.703 3.26 3.26 0 0 0-.461-1.704 3.478 3.478 0 0 0-1.257-1.256 3.263 3.263 0 0 0-1.703-.46z" fill="#333"/>
    <path d="M7.96 17.328a3.563 3.563 0 0 0-1.29-1.29 3.35 3.35 0 0 0-1.75-.473 3.36 3.36 0 0 0-1.753.474 3.574 3.574 0 0 0-1.288 1.29 3.351 3.351 0 0 0-.473 1.75c0 .64.154 1.212.473 1.752a3.58 3.58 0 0 0 1.29 1.29 3.436 3.436 0 0 0 3.502 0 3.573 3.573 0 0 0 1.289-1.29 3.35 3.35 0 0 0 .475-1.752 3.35 3.35 0 0 0-.475-1.75z" fill="#0078D7"/>
</svg>
