<svg width="24" height="24" fill="none" xmlns="http://www.w3.org/2000/svg">
    <path d="M21.825 16.94H11.777l.236-.966h6.268c2.602 0 4.719-2.162 4.719-4.819.005-1.86-1.038-3.527-2.648-4.323a5.68 5.68 0 0 0 .123-1.176C20.475 2.537 17.975 0 14.9 0a5.535 5.535 0 0 0-4.756 2.714 4.16 4.16 0 0 0-2.418-.76c-2.324 0-4.214 1.92-4.214 4.28 0 .218.017.438.049.654A4.853 4.853 0 0 0 1 11.153c0 2.657 2.116 4.82 4.717 4.82h5.772l-.236.967H2.175a.77.77 0 0 0-.76.78v5.5c0 .43.342.78.76.78h19.65a.77.77 0 0 0 .758-.78v-5.5a.77.77 0 0 0-.758-.78zM5.717 14.65c-1.89 0-3.427-1.568-3.427-3.494 0-1.435.9-2.744 2.24-3.258l.566-.217-.173-.595a3.081 3.081 0 0 1-.12-.85c0-1.63 1.312-2.954 2.924-2.954.833 0 1.597.331 2.151.934l.682.74.382-.94c.664-1.634 2.217-2.689 3.958-2.689 2.362 0 4.284 1.942 4.284 4.33 0 .458-.073.914-.217 1.358l-.206.63.615.21a3.461 3.461 0 0 1 2.334 3.299c0 1.926-1.537 3.494-3.429 3.494h-5.945l.89-3.655.044-.261.25-.058c.253-.058.489-.164.7-.316l.258-.184 1.994 1.97-.052.22c-.06.255-.042.516.05.754.185.488.635.804 1.146.805.154 0 .305-.029.447-.088.633-.254.948-.99.7-1.64a1.227 1.227 0 0 0-1.148-.805c-.154 0-.305.03-.448.088a.489.489 0 0 0-.05.027l-.06.034-.244.128-1.984-1.961.102-.25c.102-.25.153-.515.153-.786 0-1.134-.898-2.056-2-2.056-.513 0-1.002.202-1.377.569l-.215.213-1.319-.844.02-.24a1.29 1.29 0 0 0-.073-.57 1.227 1.227 0 0 0-1.148-.805c-.155 0-.305.03-.448.087-.632.254-.946.99-.699 1.64.186.489.636.805 1.148.805a1.18 1.18 0 0 0 .717-.245l.21-.156 1.31.839-.067.278a2.066 2.066 0 0 0 .04 1.125l.095.293-2.12 1.37-.201-.12a.963.963 0 0 0-.863-.071c-.511.206-.765.8-.565 1.326.151.395.515.65.927.65a.972.972 0 0 0 .363-.07c.384-.156.636-.55.627-.98l-.006-.224 2.167-1.4.213.18c.183.151.39.27.617.35l.307.108-.052.323-.88 3.605H5.717zm15.577 8.027H2.706v-4.41h8.223l-.13.535c-.875.022-1.581.755-1.581 1.66 0 .918.727 1.665 1.62 1.665.894 0 1.62-.747 1.62-1.665 0-.75-.488-1.377-1.153-1.585l.149-.61h9.84v4.41z" fill="#0072C6"/>
    <path d="M20.25 18.978h-1.07v1.076h1.07v-1.076zm0 1.857h-1.07v1.076h1.07v-1.076z" fill="#0072C6"/>
</svg>
