<svg width="48" height="48" fill="none" xmlns="http://www.w3.org/2000/svg">
    <path d="M24.002 48a4.393 4.393 0 0 1-3.131-1.297L1.297 27.13A4.456 4.456 0 0 1 0 24a4.45 4.45 0 0 1 1.297-3.129L20.871 1.299A4.388 4.388 0 0 1 24.001 0c1.182 0 2.296.46 3.131 1.298l19.57 19.572A4.39 4.39 0 0 1 48 24a4.39 4.39 0 0 1-1.299 3.132l-19.569 19.57A4.395 4.395 0 0 1 24.002 48z" fill="#7FBA00"/>
    <path d="M44 24.057l-6.416-6.216v4.389l-6.807-.006c-.657-2.272-2.497-4.069-4.836-4.72v-6.288h4.475L24 5l-6.416 6.216h4.475v6.289c-2.334.65-4.173 2.44-4.833 4.707l-6.81-.006v-4.34L4 24.082l6.416 6.217V25.91l6.813.006c.663 2.263 2.497 4.047 4.83 4.696v4.358c-.97.685-2.453 2.123-2.453 3.799 0 2.332 1.973 4.23 4.38 4.23 2.408 0 4.376-1.898 4.376-4.23 0-1.657-1.451-3.078-2.421-3.773v-4.383c2.327-.647 4.161-2.428 4.827-4.684l6.816.006v4.34L44 24.057z" fill="#fff"/>
    <path d="M24 19c-2.756 0-5 2.244-5 5s2.244 5 5 5 5-2.242 5-5-2.244-5-5-5z" fill="#59B4D9"/>
    <path opacity=".15" d="M26.947 1.29A4.36 4.36 0 0 0 23.837 0a4.36 4.36 0 0 0-3.107 1.29L1.289 20.753A4.432 4.432 0 0 0 0 23.866c0 1.161.47 2.295 1.289 3.114L12.294 38 33 7.35l-6.053-6.06z" fill="#fff"/>
</svg>
