<?xml version="1.0" encoding="UTF-8" standalone="no"?>
<svg
   xmlns:dc="http://purl.org/dc/elements/1.1/"
   xmlns:cc="http://creativecommons.org/ns#"
   xmlns:rdf="http://www.w3.org/1999/02/22-rdf-syntax-ns#"
   xmlns:svg="http://www.w3.org/2000/svg"
   xmlns="http://www.w3.org/2000/svg"
   version="1.1"
   id="svg2"
   height="1024"
   width="1024">
  <title
     id="title4145">copy-files</title>
  <defs
     id="defs10">
    <pattern
       id="EMFhbasepattern"
       patternUnits="userSpaceOnUse"
       width="6"
       height="6"
       x="0"
       y="0" />
  </defs>
  <metadata
     id="metadata4">
    <rdf:RDF>
      <cc:Work>
        <dc:subject>
                    Data
                </dc:subject>
        <dc:identifier>
                    sql-database-generic
                </dc:identifier>
        <dc:title>copy-files</dc:title>
        <dc:format>
                    image/svg+xml
                </dc:format>
        <dc:publisher>
                    Amido Limited
                </dc:publisher>
        <dc:creator>
                    Richard Slater
                </dc:creator>
        <dc:type
           rdf:resource="http://purl.org/dc/dcmitype/StillImage" />
      </cc:Work>
    </rdf:RDF>
  </metadata>
  <path
     id="rect4758"
     d="m 384,320 0,544 448,0 0,-355.2168 L 643.2168,320 384,320 Z"
     style="fill:#ffffff;fill-opacity:1" />
  <path
     id="rect4756"
     d="m 192,160 0,544 384,0 0,-384.66602 L 416.66602,160 192,160 Z"
     style="fill:#ffffff;fill-opacity:1" />
  <path
     d="M 864,493.64299 864,896 l -518.6969,0 0,-146.48183 -185.3031,0 L 160,128 l 259.34845,0 148.0906,146.10737 74.0453,0 L 864,493.64299 Z M 456.18124,274.10737 382.1359,201.05366 l -148.47032,0 0,475.41085 111.63752,0 0,-402.35714 110.87814,0 z m 333.77346,292.58928 -222.51565,0 0,-219.16099 -148.0906,0 0,475.03617 370.60625,0 0,-255.87518 z m -37.21255,-73.05366 -111.2578,-109.76781 0,109.76781 111.2578,0 z"
     style="font-style:normal;font-variant:normal;font-weight:400;font-size:180px;line-height:125%;font-family:'Segoe UI Symbol';text-align:start;letter-spacing:0px;word-spacing:0px;text-anchor:start;fill:#000000;fill-opacity:1;stroke:none"
     id="path4726" />
  <text
     xml:space="preserve"
     style="font-style:normal;font-variant:normal;font-weight:400;font-size:13.8125px;line-height:125%;font-family:Calibri;text-align:start;letter-spacing:0px;word-spacing:0px;text-anchor:start;fill:#000000;fill-opacity:1;stroke:none"
     x="38.329788"
     y="-1.9297017"
     id="text4708"><tspan
       x="-35.113876"
       y="-66.530151"
       id="tspan4710"><tspan
         dx="0"
         dy="0"
         style="font-style:normal;font-variant:normal;font-weight:400;font-size:13.8125px;font-family:Calibri;fill:#000000"
         id="tspan4712" /></tspan></text>
</svg>
