<?xml version="1.0" encoding="UTF-8" standalone="no"?>
<svg
   xmlns:dc="http://purl.org/dc/elements/1.1/"
   xmlns:cc="http://creativecommons.org/ns#"
   xmlns:rdf="http://www.w3.org/1999/02/22-rdf-syntax-ns#"
   xmlns:svg="http://www.w3.org/2000/svg"
   xmlns="http://www.w3.org/2000/svg"
   xmlns:sodipodi="http://sodipodi.sourceforge.net/DTD/sodipodi-0.dtd"
   xmlns:inkscape="http://www.inkscape.org/namespaces/inkscape"
   width="1024"
   height="1024"
   id="svg2"
   version="1.1"
   inkscape:version="0.91 r13725"
   sodipodi:docname="icon.svg"
   style="fill:#000000"
   inkscape:export-filename="C:\Users\Jamie\Sources\vsts-tasks\Tasks\ShellScript\icon.png"
   inkscape:export-xdpi="2.8099999"
   inkscape:export-ydpi="2.8099999">
  <metadata
     id="metadata20">
    <rdf:RDF>
      <cc:Work
         rdf:about="">
        <dc:format>image/svg+xml</dc:format>
        <dc:type
           rdf:resource="http://purl.org/dc/dcmitype/StillImage" />
        <dc:title></dc:title>
      </cc:Work>
    </rdf:RDF>
  </metadata>
  <defs
     id="defs18" />
  <sodipodi:namedview
     pagecolor="#ffffff"
     bordercolor="#666666"
     borderopacity="1"
     objecttolerance="10"
     gridtolerance="10"
     guidetolerance="10"
     inkscape:pageopacity="0"
     inkscape:pageshadow="2"
     inkscape:window-width="3440"
     inkscape:window-height="1377"
     id="namedview16"
     showgrid="true"
     inkscape:zoom="0.69532167"
     inkscape:cx="248.83191"
     inkscape:cy="433.91151"
     inkscape:window-x="-8"
     inkscape:window-y="-8"
     inkscape:window-maximized="1"
     inkscape:current-layer="svg2"
     inkscape:snap-bbox="true"
     inkscape:bbox-nodes="true">
    <inkscape:grid
       type="xygrid"
       id="grid4149"
       spacingx="32"
       spacingy="32"
       empspacing="4" />
  </sodipodi:namedview>
  <rect
     style="fill:#424242;fill-opacity:1;stroke:none;stroke-width:64;stroke-miterlimit:4;stroke-dasharray:none;stroke-opacity:1"
     id="rect4185"
     width="1024"
     height="1024"
     x="0"
     y="0" />
  <path
     style="fill-opacity:1;stroke:none;stroke-width:64;stroke-miterlimit:4;stroke-dasharray:none;stroke-opacity:1;fill:#ffffff"
     d="M 256 224 L 256 352 L 128 352 L 128 448 L 256 448 L 256 576 L 128 576 L 128 672 L 256 672 L 256 800 L 352 800 L 352 672 L 480 672 L 480 800 L 576 800 L 576 672 L 704 672 L 704 576 L 576 576 L 576 448 L 704 448 L 704 352 L 576 352 L 576 224 L 480 224 L 480 352 L 352 352 L 352 224 L 256 224 z M 352 448 L 480 448 L 480 576 L 352 576 L 352 448 z "
     id="rect4156" />
  <rect
     y="224"
     x="800"
     height="416"
     width="96"
     id="rect4164"
     style="fill-opacity:1;stroke:none;stroke-width:64;stroke-miterlimit:4;stroke-dasharray:none;stroke-opacity:1;fill:#ffffff" />
  <rect
     style="fill-opacity:1;stroke:none;stroke-width:64;stroke-miterlimit:4;stroke-dasharray:none;stroke-opacity:1;fill:#ffffff"
     id="rect4166"
     width="96"
     height="96"
     x="800"
     y="704" />
</svg>
