<svg width="24" height="24" fill="none" xmlns="http://www.w3.org/2000/svg">
    <g clip-path="url(#clip0)">
        <ellipse cx="12" cy="12.25" rx="11.5" ry="11.75" fill="#fff"/>
        <path fill-rule="evenodd" clip-rule="evenodd" d="M11.996 0a11.812 11.812 0 0 0-7.774 2.932 12.386 12.386 0 0 0-4.067 7.403 12.572 12.572 0 0 0 1.579 8.342c1.475 2.5 3.77 4.38 6.473 5.303.6.113.818-.267.818-.593 0-.293-.01-1.066-.017-2.093-3.335.744-4.04-1.65-4.04-1.65a3.25 3.25 0 0 0-1.331-1.803c-1.09-.763.082-.748.082-.748.38.054.744.196 1.062.416.318.22.583.511.775.852.163.303.382.57.646.787.264.216.567.376.891.47a2.49 2.49 0 0 0 1.953-.235 2.657 2.657 0 0 1 .761-1.645c-2.663-.307-5.462-1.366-5.462-6.081A4.826 4.826 0 0 1 5.58 8.355 4.533 4.533 0 0 1 5.7 5.1s1.004-.331 3.298 1.262a11.089 11.089 0 0 1 6.004 0C17.292 4.77 18.3 5.1 18.3 5.1a4.526 4.526 0 0 1 .119 3.256 4.818 4.818 0 0 1 1.233 3.302c0 4.726-2.804 5.767-5.475 6.075.286.298.507.656.647 1.049.14.393.197.812.167 1.23 0 1.645-.015 2.972-.015 3.375 0 .329.216.712.824.591 2.703-.924 4.996-2.805 6.47-5.306a12.572 12.572 0 0 0 1.574-8.344 12.386 12.386 0 0 0-4.072-7.4A11.811 11.811 0 0 0 11.996 0z" fill="#181616"/>
    </g>
    <defs>
        <clipPath id="clip0">
            <path fill="#fff" d="M0 0h24v24H0z"/>
        </clipPath>
    </defs>
</svg>
