<svg width="24" height="24" fill="none" xmlns="http://www.w3.org/2000/svg">
    <path d="M15.797 14.326a1.518 1.518 0 0 1-2.91.607H3.948a3.949 3.949 0 1 1 0-7.896h.355a4.861 4.861 0 0 1 8.629-.749c-.416.094-.815.23-1.194.405a3.644 3.644 0 0 0-6.523 1.56H3.948v-.001a2.734 2.734 0 1 0 0 5.466h8.938a1.519 1.519 0 0 1 2.911.608zm3.38-4.544a5.468 5.468 0 0 0-10.234 1.234 4.25 4.25 0 0 0-3.07 1.791h6.51a2.43 2.43 0 1 1 0 3.037H5.144a4.253 4.253 0 0 0 4.21 3.656h9.786a4.86 4.86 0 0 0 .037-9.718z" fill="#0072C6"/>
</svg>
