<svg width="24" height="24" fill="none" xmlns="http://www.w3.org/2000/svg">
    <path d="M11.92.337a1.53 1.53 0 0 0-.595.152L3.212 4.397a1.551 1.551 0 0 0-.84 1.052L.371 14.23a1.552 1.552 0 0 0 .299 1.313l5.615 7.04a1.55 1.55 0 0 0 1.213.583l9.005-.002a1.55 1.55 0 0 0 1.213-.582l5.613-7.041a1.552 1.552 0 0 0 .3-1.313l-2.005-8.78a1.552 1.552 0 0 0-.839-1.052L12.671.489a1.55 1.55 0 0 0-.752-.152z" fill="#326CE5"/>
    <path d="M12 3.325c-.269 0-.486.243-.486.544l.001.013c0 .041-.002.09-.001.126.006.173.044.306.066.465.041.342.075.625.054.888-.02.1-.093.19-.157.254l-.012.207a6.234 6.234 0 0 0-4.05 1.964 8.149 8.149 0 0 1-.176-.126c-.087.012-.174.039-.288-.028-.218-.148-.415-.351-.655-.597-.11-.117-.19-.229-.32-.342l-.107-.087a.575.575 0 0 0-.339-.128.466.466 0 0 0-.387.172c-.167.212-.113.535.12.722l.007.005c.032.027.071.06.1.082.139.103.265.156.403.238.29.18.531.33.722.511.075.08.088.221.098.283l.155.14a6.377 6.377 0 0 0-.99 4.417l-.204.06c-.053.07-.13.179-.208.212-.25.079-.531.108-.87.144-.16.013-.298.005-.467.038-.037.007-.089.02-.13.03l-.004.001-.007.002c-.286.07-.47.335-.41.597.058.26.338.42.626.357h.007l.01-.004c.04-.009.09-.019.125-.028.166-.045.287-.11.436-.169.321-.116.587-.213.847-.25.108-.01.222.067.279.099l.211-.037a6.362 6.362 0 0 0 2.8 3.526l-.088.213c.032.083.067.195.044.277-.095.246-.256.506-.44.797-.089.134-.18.237-.26.39-.02.037-.044.094-.063.133-.124.269-.033.579.207.695.241.117.54-.006.67-.276l.001-.001v-.001c.019-.038.045-.088.06-.125.07-.158.092-.295.14-.448.129-.326.2-.667.376-.88.049-.058.128-.08.21-.103l.11-.2a6.226 6.226 0 0 0 4.48.011c.032.055.09.162.105.188.083.028.174.042.248.152.132.228.222.498.333.823.048.154.072.29.14.45l.061.125c.13.27.43.394.671.277.24-.117.332-.427.207-.696-.019-.039-.044-.095-.063-.132-.08-.153-.172-.256-.261-.39-.184-.29-.336-.53-.43-.777-.04-.127.006-.206.037-.289-.019-.021-.058-.141-.081-.198a6.363 6.363 0 0 0 2.8-3.55l.207.036c.073-.048.14-.112.272-.101.259.038.525.135.846.25.15.059.27.126.436.17.035.01.085.019.126.028l.009.003h.007c.288.063.568-.096.627-.357.059-.261-.125-.527-.411-.596-.042-.01-.1-.026-.141-.034-.17-.032-.307-.024-.466-.037-.34-.036-.62-.066-.87-.145-.102-.04-.175-.162-.21-.212l-.196-.058a6.375 6.375 0 0 0-.102-2.286 6.366 6.366 0 0 0-.91-2.12c.05-.046.146-.131.172-.156.008-.088.002-.18.092-.277.19-.181.431-.331.722-.512.138-.082.265-.134.404-.237l.106-.087c.233-.188.287-.51.12-.722-.168-.211-.492-.231-.725-.044-.033.026-.078.061-.108.087-.13.113-.21.225-.32.342-.24.245-.438.45-.655.597-.094.056-.232.036-.295.033l-.184.133a6.343 6.343 0 0 0-4.031-1.964l-.011-.219c-.064-.06-.14-.113-.16-.245-.02-.263.015-.546.056-.888.022-.16.06-.292.066-.465.002-.04 0-.097 0-.14 0-.3-.218-.543-.487-.543h0zm-.608 3.797l-.145 2.569-.01.005a.43.43 0 0 1-.68.33l-.004.002-2.088-1.492a4.99 4.99 0 0 1 2.927-1.414zm1.217 0a5.028 5.028 0 0 1 2.909 1.415l-2.075 1.483-.008-.003a.43.43 0 1 1-.68-.33h-.002l-.144-2.565zM7.707 9.495l1.907 1.72-.002.01a.434.434 0 0 1-.168.742l-.002.008-2.445.712a5.076 5.076 0 0 1 .71-3.192zm8.571 0c.284.464.498.981.626 1.542.126.554.158 1.107.106 1.641l-2.457-.713-.002-.01a.432.432 0 0 1-.168-.742l-.001-.005 1.896-1.712h0zm-4.67 1.853h.782l.485.612-.174.763-.702.34-.703-.34-.174-.764.486-.611zm2.505 2.094a.422.422 0 0 1 .099.007l.004-.005 2.528.431a5.041 5.041 0 0 1-2.024 2.564l-.982-2.39.004-.004a.434.434 0 0 1 .371-.603h0zm-4.247.01a.43.43 0 0 1 .387.602l.008.01-.972 2.366a5.062 5.062 0 0 1-2.018-2.546l2.507-.43.004.006a.43.43 0 0 1 .084-.008v0zm2.118 1.037a.427.427 0 0 1 .392.227h.01l1.235 2.252a4.981 4.981 0 0 1-3.234-.003l1.233-2.248h.002a.428.428 0 0 1 .362-.228z" fill="#fff" stroke="#fff" stroke-width=".25"/>
</svg>
