<svg width="48" height="48" fill="none" xmlns="http://www.w3.org/2000/svg">
    <path fill-rule="evenodd" clip-rule="evenodd" d="M24.025 48a23.9 23.9 0 0 0 14.56-4.946 24.274 24.274 0 0 0 2.1-1.805c-2.407-.005-5.627-.16-9.304-.979a4.722 4.722 0 0 1-1.063 1.168 4.797 4.797 0 0 1-6.704-.883 4.777 4.777 0 0 1-.93-3.377 40.003 40.003 0 0 1-6.993-4.459 62.056 62.056 0 0 1-1.944-1.643 7.204 7.204 0 0 1-3.344.544c-1.632 4.384-1.818 8.279-1.645 10.92l-.096-.079C13.039 46.107 18.509 48 24.025 48zM4.317 37.722a36.32 36.32 0 0 1 1.396-8.304 7.428 7.428 0 0 1-.537-.62 7.24 7.24 0 0 1 .005-8.788c-1.65-3.973-1.517-7.28-.97-9.595-5.533 8.05-5.732 18.95.106 27.307zM6.806 7.26c-.334 1.965-.476 5.694 1.669 10.322a7.243 7.243 0 0 1 3.952-.27c.262-.3.53-.598.808-.895a44.44 44.44 0 0 1 6.667-5.775l-.006-.006-.01-.01c-2.533-2.69-4.78-5.446-6.457-8.18a23.848 23.848 0 0 0-4.008 2.498c-.94.72-1.812 1.494-2.615 2.316zm9.814-6.106A23.967 23.967 0 0 1 23.98 0c5.502 0 10.96 1.883 15.332 5.514-3.712-.567-9.46-.492-16.024 3l-.002-.002h-.001a192.235 192.235 0 0 1-6.665-7.36zm26.162 7.914c-.458-.043-6.562-.508-15.022 4.042a215.366 215.366 0 0 0 7.961 7.522 5.146 5.146 0 0 1 6.659 1.322c1.12 1.47 1.314 3.352.7 4.965 1.87 1.515 3.163 2.51 4.12 3.222-.06.22-.12.436-.182.65 2.089-7.092.88-15.05-3.963-21.371-.09-.119-.181-.236-.273-.352zm3.79 23.09l-.016.04-.543-.369c-.95-.643-2.375-1.61-4.281-2.952-.041.037-.08.076-.12.115a1.792 1.792 0 0 1-.197.181 5.17 5.17 0 0 1-7.24-.964c-1.21-1.582-1.334-3.638-.539-5.326-3.008-2.347-6.185-4.973-9.181-7.744h.002l-.123-.117-.107-.102.097.096c.042.043.085.086.13.128-1.953 1.332-4.04 2.991-6.258 5.064-.238.222-.46.445-.682.668l-.154.155a7.277 7.277 0 0 1-.306 7.25c.419.358.853.715 1.305 1.073a44.979 44.979 0 0 0 6.488 4.311c2.066-1.33 4.837-.9 6.353 1.088.442.58.718 1.231.862 1.901 5.968 1.715 10.335 1.115 11.808.807l-.316.459a23.891 23.891 0 0 0 3.017-5.762z" fill="#59B4D9"/>
</svg>
