<svg width="24" height="24" fill="none" xmlns="http://www.w3.org/2000/svg">
    <path fill-rule="evenodd" clip-rule="evenodd" d="M23.898 18.272a.722.722 0 0 0-.255-.15 1.53 1.53 0 0 0-.337-.077 2.976 2.976 0 0 0-.343-.021 2.02 2.02 0 0 0-1.273.44v-.071a.352.352 0 0 0-.11-.261.367.367 0 0 0-.267-.108.372.372 0 0 0-.27.108.353.353 0 0 0-.11.26v3.239a.35.35 0 0 0 .11.26.372.372 0 0 0 .27.109.367.367 0 0 0 .267-.108.352.352 0 0 0 .11-.261v-1.62a1.2 1.2 0 0 1 .1-.486 1.256 1.256 0 0 1 .676-.662 1.388 1.388 0 0 1 .994-.009.41.41 0 0 0 .16.04.382.382 0 0 0 .268-.109.414.414 0 0 0 .081-.119.345.345 0 0 0 .031-.145.327.327 0 0 0-.102-.249zm-6.547 1.37a1.12 1.12 0 0 1 .177-.356c.08-.108.174-.2.283-.277a1.35 1.35 0 0 1 .761-.243c.138 0 .272.02.4.063a1.292 1.292 0 0 1 .638.456c.082.109.143.227.184.357h-2.443zm2.657-1.036a1.994 1.994 0 0 0-1.436-.582c-.56 0-1.04.194-1.435.582a1.896 1.896 0 0 0-.595 1.406c0 .549.198 1.018.595 1.406.396.388.874.582 1.435.582.51 0 .953-.16 1.327-.483a.364.364 0 0 0 .11-.266.355.355 0 0 0-.108-.265.37.37 0 0 0-.27-.104.403.403 0 0 0-.25.092 1.21 1.21 0 0 1-.809.284 1.282 1.282 0 0 1-.76-.243 1.253 1.253 0 0 1-.461-.634h2.871a.378.378 0 0 0 .27-.105.349.349 0 0 0 .11-.264c0-.275-.049-.53-.148-.765-.1-.236-.248-.45-.446-.641zm-3.81-.213c0-.05-.01-.097-.03-.142a.414.414 0 0 0-.082-.12.364.364 0 0 0-.268-.107.376.376 0 0 0-.203.056l-2.168 1.382v-2.77a.357.357 0 0 0-.11-.264.368.368 0 0 0-.267-.109.371.371 0 0 0-.27.109.357.357 0 0 0-.11.264v4.935c0 .102.036.19.11.263.073.073.163.11.27.11a.364.364 0 0 0 .266-.11.358.358 0 0 0 .111-.263v-1.281l.442-.284 1.675 1.842a.354.354 0 0 0 .254.096c.053 0 .103-.01.149-.028a.357.357 0 0 0 .12-.08.41.41 0 0 0 .081-.12.337.337 0 0 0 .03-.141.372.372 0 0 0-.104-.26l-1.56-1.718 1.52-.965c.096-.064.145-.162.145-.295zm-6.227.736a1.302 1.302 0 0 1 .903-.363c.16 0 .307.026.443.078.135.052.264.129.387.23a.39.39 0 0 0 .247.086.367.367 0 0 0 .377-.373.358.358 0 0 0-.13-.28 1.958 1.958 0 0 0-1.324-.483c-.56 0-1.04.194-1.435.582a1.896 1.896 0 0 0-.595 1.406c0 .549.198 1.018.595 1.406.396.388.874.582 1.435.582.508 0 .949-.16 1.324-.483a.37.37 0 0 0 .12-.273.355.355 0 0 0-.108-.265.371.371 0 0 0-.27-.105.413.413 0 0 0-.24.079 1.32 1.32 0 0 1-.383.229c-.136.05-.283.076-.443.076a1.304 1.304 0 0 1-.903-.364 1.234 1.234 0 0 1-.373-.882 1.237 1.237 0 0 1 .373-.882zM7.63 20.494a1.28 1.28 0 0 1-1.673.666 1.264 1.264 0 0 1-.673-.664 1.188 1.188 0 0 1-.1-.483c0-.17.034-.332.1-.483a1.27 1.27 0 0 1 1.173-.763c.176 0 .342.033.497.099a1.296 1.296 0 0 1 .676.666c.066.15.1.31.1.48 0 .171-.034.332-.1.482zm.263-1.887a1.993 1.993 0 0 0-1.436-.582c-.56 0-1.04.194-1.436.582a1.896 1.896 0 0 0-.594 1.406c0 .549.198 1.018.594 1.406.396.388.875.582 1.436.582.556 0 1.034-.194 1.436-.582.396-.384.594-.852.594-1.406a2.01 2.01 0 0 0-.15-.764 1.949 1.949 0 0 0-.444-.642zm-4.689 1.887a1.28 1.28 0 0 1-1.673.666 1.277 1.277 0 0 1-.673-.664 1.188 1.188 0 0 1-.1-.483c0-.17.034-.332.1-.483a1.27 1.27 0 0 1 1.173-.763c.177 0 .342.033.497.099a1.281 1.281 0 0 1 .676.666c.067.15.1.31.1.48 0 .171-.033.332-.1.482zm.477-4.174a.37.37 0 0 0-.27.105.354.354 0 0 0-.107.265v1.771a1.99 1.99 0 0 0-1.273-.436c-.56 0-1.04.194-1.435.582A1.896 1.896 0 0 0 0 20.012c0 .549.198 1.018.595 1.406.396.388.875.582 1.435.582.556 0 1.035-.194 1.436-.582a1.88 1.88 0 0 0 .595-1.406v-3.323a.349.349 0 0 0-.11-.265.378.378 0 0 0-.27-.105zm10.522-8.2h1.856V6.466h-1.856V8.12zm-2.194 0h1.857V6.466h-1.857V8.12zm-2.194 0h1.857V6.466H9.814V8.12zm-2.194 0h1.857V6.466H7.62V8.12zm-2.193 0h1.856V6.466H5.427V8.12zM7.62 6.136h1.857V4.483H7.62v1.653zm2.194 0h1.857V4.483H9.814v1.653zm2.194 0h1.857V4.483h-1.857v1.653zm0-1.983h1.857V2.5h-1.857v1.653zM22.012 7.4l-.375-.245c-.405-.266-1.337-.363-2.054-.23-.092-.662-.468-1.235-1.153-1.753l-.393-.257-.263.386c-.336.496-.504 1.184-.449 1.843.025.232.103.647.347 1.012a2.88 2.88 0 0 1-1.36.293H4.101l-.023.138c-.115.663-.112 2.731 1.259 4.32 1.042 1.21 2.605 1.822 4.645 1.822 4.422 0 7.694-1.993 9.226-5.617.602.012 1.9.004 2.566-1.243.017-.029.057-.103.173-.34l.064-.129" fill="#066DA5"/>
    <path d="M22.33 21.828h.016c.02 0 .037-.007.037-.023 0-.014-.01-.023-.034-.023a.083.083 0 0 0-.02.002v.044zm-.002.087h-.036v-.154a.328.328 0 0 1 .06-.005c.03 0 .043.005.055.012a.042.042 0 0 1 .015.034c0 .016-.013.03-.032.035v.002c.015.006.024.017.029.038a.117.117 0 0 0 .011.038h-.04c-.004-.005-.007-.02-.012-.037-.003-.017-.012-.025-.033-.025h-.017v.062zm-.097-.08a.12.12 0 0 0 .123.123.12.12 0 0 0 .12-.122.12.12 0 0 0-.12-.125.121.121 0 0 0-.123.123zm.284 0c0 .087-.07.156-.162.156a.158.158 0 0 1-.162-.157c0-.085.072-.154.162-.154.091 0 .162.069.162.154" fill="#066DA5"/>
</svg>
