<svg width="48" height="48" fill="none" xmlns="http://www.w3.org/2000/svg">
    <path d="M18.914 4.69a6.584 6.584 0 0 0-2.067-1.378 6.389 6.389 0 0 0-2.512-.501 6.38 6.38 0 0 0-2.521.501A6.613 6.613 0 0 0 9.756 4.69a6.518 6.518 0 0 0-1.392 2.048 6.229 6.229 0 0 0-.504 2.485c0 .887.17 1.725.504 2.496a6.524 6.524 0 0 0 3.45 3.416c1.542.66 3.46.669 5.032 0a6.547 6.547 0 0 0 2.067-1.379 6.56 6.56 0 0 0 1.392-2.037c.336-.768.505-1.61.505-2.496 0-.876-.17-1.713-.505-2.485a6.455 6.455 0 0 0-1.39-2.048zM3.318 30.581l-.014.1h22.063l-.015-.098a6.823 6.823 0 0 0-.085-.515 17.544 17.544 0 0 0-1.15-3.523 14.897 14.897 0 0 0-1.76-2.945 7.15 7.15 0 0 0-.692-.772l-.283-.291a11.096 11.096 0 0 0-3.294-2.425 8.785 8.785 0 0 0-6.795-.342c-.954.346-1.86.844-2.69 1.473a12.189 12.189 0 0 0-2.284 2.292c-.685.889-1.28 1.89-1.77 2.975a17.769 17.769 0 0 0-1.143 3.522c-.036.182-.061.365-.088.55z" fill="#fff"/>
    <path d="M28.138 30.188a9.474 9.474 0 0 0-.123-.715 20.316 20.316 0 0 0-1.337-4.09 17.53 17.53 0 0 0-2.058-3.452 9.896 9.896 0 0 0-.95-1.077l-.244-.248c-1.218-1.29-2.607-2.311-4.128-3.033-.198-.094-.403-.169-.606-.252.804-.429 1.559-.93 2.2-1.569a9.344 9.344 0 0 0 1.991-2.91 9.01 9.01 0 0 0 .74-3.619 8.994 8.994 0 0 0-.737-3.601 9.284 9.284 0 0 0-4.94-4.899c-2.276-.969-4.998-.96-7.24.003a9.364 9.364 0 0 0-2.93 1.968 9.287 9.287 0 0 0-1.994 2.928 8.994 8.994 0 0 0-.736 3.601c0 1.275.249 2.492.738 3.618a9.317 9.317 0 0 0 1.99 2.912c.636.63 1.377 1.126 2.165 1.55a13.092 13.092 0 0 0-3.04 1.701 14.902 14.902 0 0 0-2.809 2.814 17.614 17.614 0 0 0-2.107 3.539 20.603 20.603 0 0 0-1.328 4.087c-.052.245-.09.494-.121.722L0 33.496h28.684l-.546-3.308zm-11.29-15.052c-1.574.669-3.49.66-5.033 0a6.544 6.544 0 0 1-2.058-1.378 6.559 6.559 0 0 1-1.392-2.037 6.226 6.226 0 0 1-.504-2.496c0-.875.17-1.713.504-2.486a6.484 6.484 0 0 1 3.45-3.426 6.38 6.38 0 0 1 2.521-.5c.883 0 1.728.167 2.513.5a6.583 6.583 0 0 1 2.067 1.379 6.518 6.518 0 0 1 1.392 2.047c.336.774.505 1.61.505 2.486 0 .886-.17 1.726-.505 2.496a6.524 6.524 0 0 1-1.392 2.037 6.582 6.582 0 0 1-2.069 1.378zm-5.553 4.633a8.785 8.785 0 0 1 6.795.342 11.094 11.094 0 0 1 3.293 2.426l.284.29c.249.253.483.49.691.773a14.889 14.889 0 0 1 1.76 2.945c.49 1.084.877 2.27 1.15 3.523.036.168.062.342.086.514.004.034.009.066.015.1H3.306l.013-.101c.027-.184.053-.367.09-.547.27-1.251.656-2.436 1.143-3.522a14.84 14.84 0 0 1 1.77-2.976 12.238 12.238 0 0 1 2.283-2.292 10.294 10.294 0 0 1 2.69-1.475z" fill="#333"/>
    <path d="M40.893 30.794h-2.862V40.88h2.862V30.794z" fill="#fff"/>
    <path d="M35.85 26.315c-5.25 0-9.523 4.272-9.523 9.523 0 5.252 4.272 9.523 9.523 9.523 5.252 0 9.524-4.271 9.524-9.523 0-5.251-4.272-9.523-9.524-9.523zm-2.18 14.564h-2.86V30.794h2.862v10.085zm7.223 0h-2.862V30.794h2.862v10.085z" fill="#0078D7"/>
    <path d="M33.67 30.794h-2.86V40.88h2.862V30.794z" fill="#fff"/>
    <path d="M35.85 47.985c-6.698 0-12.148-5.45-12.148-12.148 0-6.7 5.45-12.149 12.148-12.149 6.7 0 12.148 5.451 12.148 12.149 0 6.697-5.449 12.148-12.148 12.148zm0-21.67c-5.25 0-9.523 4.272-9.523 9.523 0 5.251 4.272 9.523 9.523 9.523 5.252 0 9.524-4.272 9.524-9.523 0-5.251-4.272-9.523-9.524-9.523z" fill="#333"/>
</svg>
