<?xml version="1.0" standalone="no"?>
<!DOCTYPE svg PUBLIC "-//W3C//DTD SVG 20010904//EN"
 "http://www.w3.org/TR/2001/REC-SVG-20010904/DTD/svg10.dtd">
<svg version="1.0" xmlns="http://www.w3.org/2000/svg"
 width="96.000000pt" height="96.000000pt" viewBox="0 0 96.000000 96.000000"
 preserveAspectRatio="xMidYMid meet">

<g transform="translate(0.000000,96.000000) scale(0.100000,-0.100000)"
fill="#000000" stroke="none">
<path d="M320 777 l0 -102 -93 -160 c-52 -88 -112 -190 -135 -227 -88 -143
-96 -170 -62 -225 38 -63 40 -63 450 -63 410 0 412 0 450 63 37 60 43 47 -155
382 -48 83 -98 168 -111 190 -21 35 -24 53 -24 143 l0 102 -160 0 -160 0 0
-103z m291 -286 c22 -23 29 -39 29 -69 0 -43 -27 -87 -60 -97 -11 -4 -20 -15
-20 -26 0 -18 -9 -19 -161 -19 l-162 0 6 35 c11 69 67 117 144 123 40 3 54 9
58 23 10 32 55 59 97 59 30 0 46 -7 69 -29z"/>
</g>
</svg>
