<svg width="24" height="24" fill="none" xmlns="http://www.w3.org/2000/svg">
    <g clip-path="url(#clip0)">
        <path d="M10.267 3.026a6.415 6.415 0 0 0-2.528.515 6.578 6.578 0 0 0-2.143 1.475 6.81 6.81 0 0 0-1.43 2.21 6.977 6.977 0 0 0-.5 2.606v7.359c-.001.894.168 1.78.499 2.607a6.81 6.81 0 0 0 1.43 2.211 6.577 6.577 0 0 0 2.143 1.476 6.414 6.414 0 0 0 2.529.515H17.4a6.416 6.416 0 0 0 2.527-.514 6.578 6.578 0 0 0 2.143-1.475 6.81 6.81 0 0 0 1.43-2.21 6.95 6.95 0 0 0 .5-2.606V9.837a6.976 6.976 0 0 0-.499-2.606 6.81 6.81 0 0 0-1.43-2.21 6.578 6.578 0 0 0-2.143-1.475 6.415 6.415 0 0 0-2.528-.514h-7.133v-.006zm-1.4 3.577c.654 0 1.282.268 1.745.745.463.478.723 1.125.723 1.8s-.26 1.322-.723 1.8a2.431 2.431 0 0 1-1.745.745 2.431 2.431 0 0 1-1.746-.745 2.586 2.586 0 0 1-.723-1.8c0-.675.26-1.322.723-1.8a2.431 2.431 0 0 1 1.745-.745zm7.866 6.187c.845 0 1.67.257 2.373.74a4.376 4.376 0 0 1 1.573 1.975 4.54 4.54 0 0 1 .244 2.544 4.445 4.445 0 0 1-1.168 2.254 4.23 4.23 0 0 1-2.186 1.206 4.15 4.15 0 0 1-2.467-.25 4.3 4.3 0 0 1-1.916-1.622 4.52 4.52 0 0 1-.395-4.13 4.397 4.397 0 0 1 .925-1.428 4.263 4.263 0 0 1 1.384-.954 4.156 4.156 0 0 1 1.633-.335zM2.333 0c.462 0 .914.14 1.298.405.384.264.683.64.86 1.08.177.44.224.924.134 1.391a2.43 2.43 0 0 1-.639 1.233 2.314 2.314 0 0 1-1.195.66 2.27 2.27 0 0 1-1.35-.137 2.352 2.352 0 0 1-1.047-.887 2.461 2.461 0 0 1-.217-2.259c.118-.292.29-.557.506-.78C.9.481 1.157.304 1.44.182 1.723.063 2.027 0 2.333 0z" fill="#164F78"/>
    </g>
    <defs>
        <clipPath id="clip0">
            <path fill="#fff" d="M0 0h24v24H0z"/>
        </clipPath>
    </defs>
</svg>
