<svg width="48" height="48" fill="none" xmlns="http://www.w3.org/2000/svg">
    <path d="M9.043 36.788v-.175c0-1.402.174-2.803.348-4.205v-.175h-.174c-1.217-.525-2.434-1.05-3.652-1.752h-.174v.176c-.87 1.576-1.391 3.328-1.913 4.905v.175h.174c1.74.526 3.478.876 5.391 1.051zm3.653-24.35s0-.175 0 0c-1.044 0-2.087 0-3.13.175l.52 3.154c.697-1.227 1.566-2.453 2.61-3.329zM9.043 38.015c-1.739-.35-3.13-.526-4.695-.876l-.522-.175.174.35a25.775 25.775 0 0 0 5.043 5.606l.348.175v-.35c-.348-1.577-.348-3.153-.348-4.73zm7.305-36.788c-1.913.7-3.652 1.576-5.217 2.627 1.217.175 2.434.526 3.652.876.521-1.226 1.043-2.452 1.565-3.503zM24.174 0c-.87 0-1.913 0-2.783.175 1.218.876 2.435 1.927 3.653 2.978l.87.701-.87.876c-.696.7-1.566 1.577-2.261 2.452l-.348.35c.522 0 1.217-.174 1.739-.174 9.043 0 16.348 7.357 16.348 16.467s-7.305 16.467-16.348 16.467c-3.13 0-6.087-.876-8.522-2.453-1.217.176-2.435.176-3.652.176h-1.74c0 1.927.175 3.854.523 5.78C14.609 46.424 19.13 48 24.174 48 37.391 48 48 37.314 48 24S37.391 0 24.174 0z" fill="#43B02A"/>
    <path d="M21.044 5.605c.521-.525 1.043-1.05 1.39-1.576-1.043-.876-2.26-1.752-3.478-2.628-.695 1.226-1.39 2.628-1.912 4.03 1.043.35 2.086.875 3.13 1.4.348-.7.695-1.05.87-1.226zM4.696 19.27h.174c1.043-.876 2.26-1.576 3.478-2.277h.174v-.175c-.348-1.402-.696-2.803-.87-4.205v-.175h-.174c-1.739.35-3.478.876-5.217 1.401h-.174v.176c.87 2.102 1.74 3.678 2.609 5.255zm-.174 2.453C3.13 22.949 1.913 24 .696 25.226l-.174.175.174.176a33.965 33.965 0 0 0 4 2.978l.174.175v-.175c.695-1.051 1.39-2.278 2.087-3.329v-.175l.173-.175C6.087 24 5.391 22.949 4.522 21.723zm9.391 15.065h.348l-.348-.35c-1.217-1.051-2.435-2.277-3.304-3.679l-.348-.175v.175c-.174 1.226-.174 2.453-.348 3.679v.175h1.914c.695.35 1.39.35 2.086.175zm-.87-26.453c.174-1.226.522-2.277.87-3.503-1.391-.526-2.957-.876-4.522-1.051a21.506 21.506 0 0 0 0 4.73c1.218-.175 2.435-.175 3.652-.175zm2.261-.175c1.044-.7 2.087-1.226 3.305-1.576L16 7.533c-.174.876-.348 1.752-.696 2.628zM4.174 29.78c-1.391-.875-2.609-1.751-3.652-2.627l-.174-.35v.35c.348 2.277.87 4.555 1.913 6.657l.174.35.174-.35c.348-1.226.87-2.628 1.565-4.03zm3.13-22.773a24.41 24.41 0 0 0-3.652 4.73c1.217-.35 2.435-.7 3.652-.876V7.007zM8 23.825v-.35c0-1.402.348-2.979.696-4.205l.174-.35-.348.175c-.87.525-1.913 1.226-2.783 1.751l-.174.176.174.175c.696.876 1.217 1.752 1.913 2.628H8zm.174 2.452v-.35l-.174.35c-.696.876-1.217 1.927-1.913 2.978v.175h.174l3.13 1.577.348.175-.174-.35c-.695-1.577-1.217-2.978-1.391-4.555zm-4.696-5.78v-.175c-.695-1.227-1.391-2.453-1.913-3.854l-.174-.35-.174.35C.522 18.57.174 20.848 0 23.3v.35l.348-.175c1.043-1.051 2.087-2.102 3.13-2.978z" fill="#43B02A"/>
</svg>
