<svg width="24" height="24" fill="none" xmlns="http://www.w3.org/2000/svg">
    <g clip-path="url(#clip0)">
        <path d="M22.752 13.248c0-3.504-1.68-6.576-4.224-8.544v.336c0 1.056-.288 2.064-.72 2.928a7.803 7.803 0 0 1 2.016 5.232A7.825 7.825 0 0 1 12 21.024 7.825 7.825 0 0 1 4.176 13.2c0-2.16.864-4.08 2.256-5.52a6.317 6.317 0 0 1-.624-2.688c0-.192 0-.432.048-.624A10.733 10.733 0 0 0 1.248 13.2c0 6 4.8 10.8 10.752 10.8 5.952 0 10.752-4.8 10.752-10.752z" fill="#7FBA00"/>
        <path d="M12.144 0A4.937 4.937 0 0 0 7.2 4.944c0 2.256 1.488 4.128 3.552 4.752v4.896H8.448v2.496h2.304v1.824h2.736V9.648c2.064-.576 3.552-2.496 3.552-4.752C17.088 2.208 14.88 0 12.144 0zm0 2.592a2.356 2.356 0 0 1 2.352 2.352 2.356 2.356 0 0 1-2.352 2.352 2.356 2.356 0 0 1-2.352-2.352 2.356 2.356 0 0 1 2.352-2.352z" fill="#FCD116"/>
    </g>
    <defs>
        <clipPath id="clip0">
            <path fill="#fff" d="M0 0h24v24H0z"/>
        </clipPath>
    </defs>
</svg>
