<svg width="24" height="24" fill="none" xmlns="http://www.w3.org/2000/svg">
    <path d="M4.63 5.833s.404 1.585.462 2.114c.058.528-1.04 1.702-1.04 2.29 0 .587.231 1.644 1.501 2.172 1.27.528 1.443 1.879 1.443 2.701 0 .822-.461 2.407-.461 2.407s-.289 3.934 1.27 4.639c1.558.704 1.212.704 1.558.704.346 0 2.886 1.057 4.386.646 1.501-.41 1.905-.88 1.905-.88s1.5.117 1.963-1.234c.461-1.35.75-4.168.577-5.46-.174-1.292-.404-2.994.634-3.582 1.04-.587 2.136-1.291 1.963-1.878-.173-.588-1.096-1.41-1.096-1.41s-.231-1.467-.058-1.82c.173-.352 1.212-1.233.635-1.879-.577-.645-1.616-.645-1.616-.645l-1.328.117s-2.251-2.055-5.195-1.938c-2.943.118-4.79 1.938-4.79 1.938s-.982-.352-1.848 0c-.865.352-1.038 0-.865.998z" fill="#FBA919"/>
    <path d="M9.904 14.575s-1.143 1.778-1.981 3.04c-.13.195.838.208.838.208l1.143-3.248zm.544-3.686s-.344.875-.533 1.338c-.205.504-.986.755-.986.755s.405-.432.405-1.527c0-.459.583-.642.583-.642l.531.076z" fill="#E78724"/>
    <path d="M10.1 11.384s-.706.854-2.016.376c-1.311-.48-1.446-2.19-1.446-2.667 0-.48 2.488.478 2.824.683.336.206.974 1.026.638 1.608zM5.15 2.25s1.21-.24 2.017.41c.807.65 1.042 1.162 1.042 1.162L6.848 4.92s-.657-.31-.859-1.2c-.201-.888-.067-1.298-.84-1.47z" fill="#E78724"/>
    <path d="M9.747 8.914c-.52-.752-1.38-1.08-2.065-1.134-1.169-.093-1.724.327-1.724.327s1.915.082 2.467.82c1.027 1.372 2.525 1.483 2.765 1.182-.277.014-.582-.126-.908-.44-.204-.196-.37-.516-.535-.755zm-3.231 2.66s-2.124-.742-1.72-1.495c.403-.752.082-1.162.082-1.162s-1.186.9-.884 1.858c.186.588.497 1.013 2.208 1.829.82 1.55.17 4.341.209 4.355.065.022 1.152-.547 1.078-3.158-.023-.802-.086-1.897-.973-2.227zm2.783-7.987c-.89.46-2.11 1.102-2.11 1.102l.48.244c-.046.076-.068.12-.068.12l.493.229s1.203.886 1.94 1.456c-.246-.77-.967-1.98-.967-1.98s-.205-.555.232-1.17zm2.959 18.761c-2.738 0-3.665-1.413-3.665-1.413l.428 1.06c.162.458 1.886 1.884 3.233 1.884" fill="#E78724"/>
    <path d="M8.893 19.98s.252 1.565 1.26 1.565c.857 0 1.11-1.323 1.11-1.596l-2.37.03zm-1.678-2.362c.09-.25.403-1.265.504-2.188.12-1.106.077-2.723.077-2.723s-.27 1.06-.505 1.231c-.235.171-.672 1.333-.672 1.333s-.234 1.731-.346 2.313c.309.063.568-.122.942.034zm-2.435-6.86s.57-.205.74-1.47c.167-1.265-.203-2.36-.203-2.36s.034 1.744-.168 2.086c-.202.342-.37.445-.605.89-.235.444.1.717.236.854z" fill="#E78724"/>
    <path d="M5.462 2.549l-.117-.075c-.344.011.117.075.117.075z" fill="#FDC168"/>
    <path d="M9.764 3.213s-.538-.091-.807-.501c-.269-.41-1.03-1.232-2.245-1.24-1.214-.01-2.416.328-2.416.328l1.049.674c.11-.004.305-.002.626.009 1.316.044 1.518 1.368 1.518 1.368l4.64-.65" fill="#FBA919"/>
    <path d="M10.212 10.527s-.627.639-1.591.433c-.964-.205-1.546-.638-1.591-1.39-.045-.752.202-1.049.202-1.049s1.075.342 1.59.798c.516.456.897 1.186 1.39 1.208z" fill="#fff"/>
    <path d="M9.453 10.3s-.544.252-1.153.046c-.796-.27-.849-1.112-.849-1.112s-.489 1.458.881 1.739c1.099.225 1.748-.423 1.748-.423l-.627-.25z" fill="#C9C9C9"/>
    <path d="M9.84 2.904c-.059-1.251.949-2.247 1.298-2.29.02.212-.02 1.039.33 1.293.101-.675.445-1.42 1.802-1.907-.29.784-.038 1.441.082 1.746.926-.856 1.55-.715 1.55-.715s-.643 1.13-.391 1.872c-1.86-.148-4.662.201-4.671 0zM5.895 4.809c-.444-.375-.113-.723-.148-1.148-.019-.227-.036-.44-.11-.558-.408-.657-1.372-.856-1.382-.858l-.452-.09.3-.356c.038-.046 1.268-1.24 3.17-.615 1.332.437 2.317 1.918 2.354 1.977l-.668.32c-.008-.013-.787-1.405-1.929-1.78-.923-.302-1.773-.014-2.138.175.388.157.894.444 1.2.934.143.231.168.523.191.805.03.373.06.726.33.955l-.718.239zM4.71 10.277s.559-.705.725-2.078c.065-.54-.05-1.607-.236-2.017.034 1.008-.218 2.017-.218 2.017s-.17 1.873-.271 2.078z" fill="#463014"/>
    <path d="M7.659 4.096c0-.001-.18-.798-.676-1.2-.701-.567-1.557-.265-1.565-.263l-.124-.39c.041-.014 1.02-.327 1.92.317.907.648 1.016 1.236 1.025 1.3l-.58.236zM6.466 9.771s-.293-.427-.24-.897c.026-.232.132-.47.32-.555.351-.156.507.248.507.248s-.494.124-.587 1.204z" fill="#463014"/>
    <path d="M9.688 10.422l.019.037s-.916.699-1.854-.01c-.502-.38-.454-1.32-.3-1.718.4.092.739.258 1.022.452-.358-.325-.672-.565-.67-.57l-.408-.118-.792-.276c-.01.062-.299 1.438.535 2.377.37.415 2.101 1.347 2.923-.246l-.475.072z" fill="#463014"/>
    <path d="M9.602 10.525c.516.798 1.816.342 1.793-.502 0 0-.868.488-1.636-.41-.448-.524-1.884-1.97-3.831-1.49 1.345.302 3.125 1.551 3.674 2.402z" fill="#463014"/>
    <path d="M5.746 12.776c.124.073.561.534.562 1.223 0 .345-.034 2.08-.202 3.14.252.167.429.203.68.373.126-1.228.217-3.007.175-3.725-.049-.82-.48-1.369-.88-1.603a16.915 16.915 0 0 0-.387-.217c-.685-.377-1.393-.766-1.393-1.43 0-.52.2-.683.41-.856l.022-.018c.14-.115.298-.245.391-.459.256-.584.298-2.072 0-2.45-.148-.188-.545-.82-.43-1.246A.567.567 0 0 1 5 5.14c.173-.09.407-.136.695-.136.566 0 1.193.175 1.516.28 1.157.373 2.552 1.447 2.952 1.768l.02.015.256.181-.16-.272c-.01-.017-1.024-1.713-2.837-2.335-.352-.12-1.045-.324-1.726-.324-.405 0-.75.072-1.022.214a1.247 1.247 0 0 0-.65.797c-.229.854.517 1.805.542 1.835.087.158.124 1.305-.077 1.764-.028.063-.103.125-.2.204l-.098.078c-.284.217-.712.546-.712 1.303 0 1.037 1.033 1.599 1.863 2.05.136.075.266.146.383.214z" fill="#463014"/>
    <path d="M5.895 4.809c-.444-.375-.113-.723-.148-1.148-.019-.227-.036-.44-.11-.558-.408-.656-1.372-.856-1.382-.858l-.452-.09.3-.356c.038-.046 1.268-1.24 3.17-.615 1.332.437 2.317 1.918 2.354 1.978l-.668.319c-.008-.013-.787-1.405-1.929-1.78-.923-.302-1.773-.014-2.138.175.388.157.894.444 1.2.934.143.231.168.523.191.805.03.374.06.726.33.955l-.718.239z" fill="#463014"/>
    <path d="M5.88 4.885l-.028-.024c-.329-.278-.27-.551-.214-.816.026-.122.053-.249.042-.378-.018-.218-.035-.424-.1-.528-.389-.625-1.329-.825-1.338-.827L3.677 2.2l.374-.446c.007-.008.797-.819 2.134-.819.364 0 .738.062 1.11.184 1.388.456 2.38 1.991 2.389 2.006l.04.065-.79.378-.031-.051c-.085-.147-.834-1.403-1.893-1.75a2.606 2.606 0 0 0-.814-.129c-.507 0-.919.14-1.138.235.366.168.81.45 1.09.9.153.245.178.545.202.835.03.36.058.699.306.909l.094.079-.869.29z" fill="#463014"/>
    <path d="M7.659 4.096c0-.001-.18-.798-.676-1.2-.701-.567-1.557-.265-1.565-.263l-.124-.39c.041-.014 1.02-.327 1.92.317.907.648 1.016 1.236 1.025 1.3l-.58.236z" fill="#463014"/>
    <path d="M7.61 4.19l-.017-.08c-.002-.007-.177-.776-.652-1.16a1.5 1.5 0 0 0-.97-.33c-.291 0-.507.07-.531.078l-.064.022-.167-.52.064-.022a2.21 2.21 0 0 1 .655-.092c.485 0 .943.145 1.325.418.93.665 1.043 1.279 1.053 1.347l.008.053-.703.285zM5.97 2.482c.399 0 .763.124 1.054.36.422.341.62.945.68 1.16l.458-.184c-.042-.165-.224-.657-.986-1.203a2.1 2.1 0 0 0-1.248-.393c-.254 0-.451.042-.549.067l.083.259c.095-.026.28-.066.509-.066zm4.141 18.687a.839.839 0 0 1-.542-.197c-.107-.095-.47-.435-.631-.85-.06-.157-.047-.281.04-.37.06-.062.184-.136.436-.136h1.356c.192 0 .33.042.409.124.102.107.07.242.04.313-.049.124-.253.53-.6.906a.677.677 0 0 1-.508.21zm.208-10.598l-.717-.047s.184.329.302.754c.134.48-.122 1.184-.122 1.184s.956-1.102.537-1.891zm-.895 12.524c-2.552-.2-3.45-2.653-3.45-3.164h.666-.333.333c.004.22.682 2.32 2.835 2.488l-.05.676z" fill="#463014"/>
    <path d="M8.707 18.7a1.732 1.732 0 0 1 .005-.675c-.194-.148-.542-.203-.804-.29-.213-.137-1.306.141-2.099-.835-.993-1.222-.784-1.951-.784-1.951-.255.287-.502.178-.89 1.52-.389 1.342.183 2.278 1.247 3.218.503.444 1.214.626 1.826.696-.205-.209.35-.23.732-.375-.03-.314.021-.62.251-.865.139-.148.318-.236.503-.307l.029-.07a.608.608 0 0 1-.016-.066z" fill="#fff"/>
    <path d="M7.935 20a2.405 2.405 0 0 1-.055-.202c-.018-.073-.106-.283.003-.044a.897.897 0 0 1-.06-.188C6.1 19.564 4.6 18.36 4.89 15.828c-.226-.305-.542.615-.542.615s-.863 2.55 1.366 3.538c.743.33 1.4.565 1.554.47.323.067.614-.162.723-.313A1.71 1.71 0 0 1 7.935 20z" fill="#C9C9C9"/>
    <path d="M8.676 18.333c.003-.213.045-.42.147-.627l.023-.041c-.664-.006-1.428-.07-2.078-.336-.716-.29-1.61-1.286-1.764-2.456 0 0-1.347 1.057-.951 3.32.371 2.125 2.12 2.818 4.113 2.935.001-.014-.224-.487-.153-.777-1.132.084-2.398-.36-3.01-1.384-.559-.936-.402-2.534-.172-2.769.561 1.8 2.58 2.167 3.845 2.135z" fill="#463014"/>
    <path d="M8.885 17.044c-.359 1.071-1.092 1.938-1.092 1.938s1.008-.047 1.064-.228c.041-.134.91-2.204 1.244-4.628-.314.525-1.186 2.826-1.216 2.918z" fill="#463014"/>
    <path d="M14.596 14.575s1.143 1.778 1.982 3.04c.13.195-.84.208-.84.208l-1.142-3.248zm-.544-3.686s.344.875.533 1.338c.205.504.986.755.986.755s-.405-.432-.405-1.527c0-.459-.583-.642-.583-.642l-.531.076z" fill="#E78724"/>
    <path d="M14.4 11.384s.706.854 2.017.376c1.31-.48 1.445-2.189 1.445-2.667 0-.48-2.487.478-2.823.683-.337.206-.975 1.026-.64 1.608zm4.95-9.134s-1.21-.24-2.017.41c-.806.65-1.042 1.162-1.042 1.162l1.36 1.097s.657-.31.859-1.2c.201-.888.067-1.298.84-1.47z" fill="#E78724"/>
    <path d="M14.753 8.915c.52-.753 1.38-1.08 2.065-1.135 1.169-.093 1.723.327 1.723.327s-1.914.083-2.466.82c-1.027 1.372-2.525 1.483-2.765 1.182.277.014.582-.126.909-.44.203-.196.369-.516.534-.754zm3.231 2.66s2.124-.743 1.72-1.495c-.402-.753-.082-1.163-.082-1.163s1.186.901.884 1.858c-.186.588-.497 1.013-2.208 1.829-.821 1.55-.17 4.342-.209 4.355-.065.022-1.152-.547-1.078-3.158.023-.802.086-1.897.973-2.227zm-2.783-7.987c.89.46 2.11 1.1 2.11 1.1l-.48.245c.047.076.069.12.069.12l-.493.229s-1.204.886-1.94 1.456c.245-.77.966-1.98.966-1.98s.205-.555-.232-1.17zm-2.958 18.76c2.737 0 3.664-1.413 3.664-1.413l-.428 1.06c-.161.458-1.887 1.884-3.232 1.884" fill="#E78724"/>
    <path d="M15.607 19.98s-.252 1.565-1.26 1.565c-.857 0-1.11-1.323-1.11-1.596l2.37.03zm1.678-2.362c-.09-.25-.403-1.265-.504-2.188-.12-1.106-.077-2.723-.077-2.723s.27 1.06.505 1.231c.235.171.672 1.333.672 1.333s.234 1.731.345 2.313c-.308.063-.567-.122-.94.034zm2.436-6.86s-.572-.205-.74-1.47c-.168-1.265.202-2.36.202-2.36s-.034 1.744.168 2.086c.202.342.37.445.605.89.235.444-.1.717-.235.854z" fill="#E78724"/>
    <path d="M19.038 2.549l.117-.075c.344.011-.117.075-.117.075z" fill="#FDC168"/>
    <path d="M14.736 3.213s.538-.091.807-.502c.269-.41 1.03-1.23 2.245-1.24 1.215-.01 2.416.328 2.416.328l-1.049.675a10.482 10.482 0 0 0-.626.008c-1.316.045-1.518 1.37-1.518 1.37l-4.639-.65" fill="#FBA919"/>
    <path d="M14.288 10.527s.627.639 1.59.433c.965-.205 1.547-.638 1.592-1.39.045-.752-.201-1.049-.201-1.049s-1.076.342-1.592.798c-.515.456-.896 1.186-1.39 1.208z" fill="#fff"/>
    <path d="M15.047 10.3s.544.252 1.153.046c.796-.27.85-1.112.85-1.112s.487 1.458-.882 1.739c-1.098.225-1.748-.423-1.748-.423l.627-.25z" fill="#C9C9C9"/>
    <path d="M18.605 4.809c.444-.375.113-.723.148-1.148.019-.227.036-.44.11-.558.409-.656 1.372-.856 1.382-.858l.453-.09-.3-.356c-.039-.046-1.268-1.24-3.171-.615-1.331.437-2.317 1.918-2.353 1.978l.667.319c.008-.013.787-1.405 1.929-1.78.923-.302 1.774-.014 2.138.175-.387.157-.894.444-1.2.934-.143.231-.167.523-.19.805-.032.374-.06.726-.331.955l.718.239zm1.185 5.468s-.559-.705-.724-2.078c-.066-.54.05-1.607.235-2.017-.034 1.008.218 2.017.218 2.017s.17 1.873.271 2.079z" fill="#463014"/>
    <path d="M16.841 4.096c0-.001.18-.798.677-1.2.7-.567 1.556-.265 1.564-.263l.124-.39c-.041-.014-1.019-.327-1.92.317-.907.648-1.016 1.236-1.025 1.3l.58.236zm1.193 5.675s.293-.427.24-.897c-.026-.232-.132-.47-.32-.555-.351-.156-.506.248-.506.248s.493.124.586 1.204z" fill="#463014"/>
    <path d="M14.812 10.423a1.159 1.159 0 0 0-.018.036s.914.699 1.852-.01c.503-.38.455-1.32.301-1.718-.4.092-.739.258-1.022.452.358-.325.672-.565.67-.57l.408-.118.792-.276c.01.062.298 1.439-.535 2.377-.37.416-2.102 1.347-2.924-.245l.476.071z" fill="#463014"/>
    <path d="M14.898 10.525c-.516.798-1.815.342-1.793-.502 0 0 .868.488 1.636-.41.448-.524 1.884-1.97 3.831-1.49-1.344.302-3.125 1.551-3.674 2.402z" fill="#463014"/>
    <path d="M18.754 12.776c-.124.073-.561.534-.561 1.223 0 .345.033 2.08.202 3.14-.253.167-.43.203-.681.373-.126-1.228-.217-3.007-.174-3.725.048-.82.479-1.369.878-1.603.126-.073.256-.145.388-.217.685-.377 1.393-.766 1.393-1.43 0-.52-.2-.683-.41-.856l-.022-.018c-.14-.115-.298-.245-.391-.459-.256-.584-.297-2.072 0-2.45.148-.188.545-.82.43-1.246a.569.569 0 0 0-.307-.368c-.173-.09-.407-.136-.695-.136-.565 0-1.193.175-1.516.28-1.157.373-2.552 1.447-2.952 1.768l-.02.015-.256.181.16-.272c.01-.017 1.024-1.713 2.837-2.335.353-.12 1.045-.324 1.726-.324.406 0 .75.072 1.022.214.332.173.557.449.65.797.23.854-.516 1.805-.542 1.835-.087.158-.124 1.305.077 1.764.028.063.103.125.2.204l.098.078c.284.217.712.546.712 1.303 0 1.037-1.033 1.599-1.862 2.05-.137.075-.267.146-.384.214z" fill="#463014"/>
    <path d="M17.522 4.687c-.164-.283-.584-.83-1.552-1.31-1.08-.536-2.331-.807-3.717-.808h-.006c-1.386 0-2.637.272-3.717.808-.968.48-1.388 1.027-1.552 1.31l-.07.095.828.187.026-.034.014-.03c.013-.056.124-.357 1.049-.816.988-.49 2.14-.738 3.425-.739 1.285 0 2.437.25 3.425.74.924.458 1.036.759 1.048.814l.014.031.026.034.83-.187-.07-.095z" fill="#463014"/>
    <path d="M18.605 4.809c.444-.375.113-.723.148-1.148.019-.227.036-.44.11-.558.409-.656 1.372-.856 1.382-.858l.453-.09-.3-.356c-.039-.046-1.268-1.24-3.171-.615-1.331.437-2.317 1.918-2.353 1.978l.667.319c.008-.013.787-1.405 1.929-1.78.923-.302 1.774-.014 2.138.175-.387.157-.894.444-1.2.934-.143.231-.167.523-.19.805-.032.374-.06.726-.331.955l.718.239z" fill="#463014"/>
    <path d="M17.75 4.596l.094-.08c.248-.21.276-.548.306-.908.024-.29.05-.59.202-.835.28-.45.724-.732 1.09-.9a2.93 2.93 0 0 0-1.138-.235c-.28 0-.553.043-.814.129-1.059.347-1.807 1.603-1.892 1.75l-.032.051-.79-.377.04-.066c.01-.015 1-1.55 2.39-2.006a3.555 3.555 0 0 1 1.11-.183c1.337 0 2.126.81 2.133.819l.375.445-.565.113c-.01.001-.95.202-1.339.826-.065.104-.081.31-.1.528a1.3 1.3 0 0 0 .042.378c.057.265.115.539-.214.816l-.029.025-.869-.29z" fill="#463014"/>
    <path d="M16.841 4.096c0-.001.18-.798.677-1.2.7-.567 1.556-.265 1.564-.263l.124-.39c-.041-.014-1.019-.327-1.92.317-.907.648-1.016 1.236-1.025 1.3l.58.236z" fill="#463014"/>
    <path d="M16.187 3.904l.007-.054c.01-.067.124-.682 1.053-1.346.382-.273.84-.418 1.325-.418.367 0 .627.082.655.092l.064.02-.166.522-.065-.022a1.764 1.764 0 0 0-.53-.08 1.5 1.5 0 0 0-.97.331c-.475.385-.651 1.154-.653 1.162l-.017.078-.703-.285zm2.851-1.355l.083-.26a2.243 2.243 0 0 0-.55-.066c-.462 0-.882.132-1.247.393-.762.545-.944 1.038-.986 1.202l.458.186c.06-.217.258-.82.68-1.162.291-.235.655-.36 1.053-.36.23 0 .414.04.51.067zm-5.157 18.41a3.425 3.425 0 0 1-.6-.906c-.029-.07-.061-.206.04-.312.08-.082.217-.124.409-.124h1.356c.252 0 .376.073.436.135.087.09.1.214.04.37-.16.416-.524.756-.631.85a.84.84 0 0 1-.542.197.677.677 0 0 1-.508-.21zm.3-10.387l.717-.047s-.183.329-.302.754c-.134.48.122 1.183.122 1.183s-.956-1.101-.537-1.89z" fill="#463014"/>
    <path d="M12.25 7.968c-.457 0-1.053-.013-1.5-.34 0 0 .585 1.044 1.5 1.044V8.54v.132c.915 0 1.5-1.044 1.5-1.044-.447.327-1.043.34-1.5.34z" fill="#E78724"/>
    <path d="M13.509 7.963c-.459.282-.868.38-1.259.388-.39-.008-.8-.106-1.258-.388 0 0 .667.828 1.255.835h.006c.588-.007 1.256-.835 1.256-.835zm1.567 15.133l-.051-.676c2.153-.169 2.83-2.267 2.834-2.488h.667c0 .51-.898 2.964-3.45 3.164z" fill="#463014"/>
    <path d="M15.793 18.7a1.74 1.74 0 0 0-.004-.675c.194-.148.542-.203.803-.29.213-.137 1.306.141 2.1-.835.992-1.222.783-1.951.783-1.951.255.287.502.178.89 1.52.389 1.342-.182 2.278-1.247 3.218-.503.444-1.214.626-1.826.696.205-.209-.35-.23-.732-.375.03-.314-.02-.62-.251-.865-.139-.148-.318-.236-.503-.307l-.029-.07a.62.62 0 0 0 .016-.066z" fill="#fff"/>
    <path d="M16.564 20a2.09 2.09 0 0 0 .056-.202c.018-.073.106-.283-.003-.044a.9.9 0 0 0 .06-.188c1.724-.002 3.224-1.206 2.934-3.738.226-.305.542.615.542.615s.863 2.55-1.366 3.538c-.743.33-1.4.565-1.554.47-.323.067-.614-.162-.724-.313.02-.046.04-.092.055-.139z" fill="#C9C9C9"/>
    <path d="M15.824 18.333a1.428 1.428 0 0 0-.147-.627l-.023-.041c.664-.006 1.428-.07 2.079-.336.715-.29 1.61-1.286 1.763-2.456 0 0 1.347 1.057.952 3.32-.372 2.125-2.12 2.818-4.114 2.935-.001-.014.224-.487.153-.777 1.132.084 2.398-.36 3.01-1.384.558-.936.402-2.534.172-2.769-.561 1.8-2.58 2.167-3.845 2.135z" fill="#463014"/>
    <path d="M16.63 18.866c-.24-.262-.677-.574-1.687-.574l-2.69-.002h-.006l-2.69.002c-1.01 0-1.448.312-1.686.574-.347.381-.401.912-.161 1.574.638 1.765 1.535 3.557 4.537 3.56h.006c3.002-.003 3.9-1.795 4.537-3.56.24-.662.186-1.193-.16-1.574zm-.468 1.45c-.304.887-1.121 3.031-3.912 3.035-2.79-.004-3.608-2.148-3.912-3.034-.168-.492-.155-.856.04-1.082.133-.154.438-.338 1.135-.338h.728a3488.186 3488.186 0 0 1 4.018 0h.728c.697 0 1.002.184 1.135.338.195.227.208.59.04 1.082z" fill="#463014"/>
    <path d="M15.615 17.044c.359 1.071 1.092 1.938 1.092 1.938s-1.008-.047-1.064-.228c-.04-.134-.91-2.204-1.244-4.628.314.525 1.185 2.826 1.216 2.918z" fill="#463014"/>
</svg>
