<svg width="48" height="48" fill="none" xmlns="http://www.w3.org/2000/svg">
    <path d="M24.023 31.785a6.75 6.75 0 1 0 0-13.5 6.75 6.75 0 0 0 0 13.5zm10.89-9.502a3.375 3.375 0 1 0 0-6.75 3.375 3.375 0 0 0 0 6.75zm0 12.255a3.375 3.375 0 1 0 0-6.75 3.375 3.375 0 0 0 0 6.75zm7.432 3.614a2.625 2.625 0 1 0 0-5.25 2.625 2.625 0 0 0 0 5.25zm0-20.947a2.625 2.625 0 1 0 0-5.25 2.625 2.625 0 0 0 0 5.25zm0 10.455a2.625 2.625 0 1 0 0-5.25 2.625 2.625 0 0 0 0 5.25z" fill="#59B4D9"/>
    <path d="M33.675 38.438c-.356 0-.705.1-1.005.292l-8.595 4.77L6.75 33.9V14.723l17.325-9.638L32.67 9.9a1.876 1.876 0 0 0 1.89-3.24L24.075.75l-21 11.783V36.09l20.977 11.16L34.575 42a1.882 1.882 0 0 0-.893-3.54l-.007-.023z" fill="#3999C6"/>
</svg>
