<svg width="48" height="48" fill="none" xmlns="http://www.w3.org/2000/svg">
    <g clip-path="url(#clip0)">
        <path d="M.8 0C.32 0 0 .32 0 .8v9.6c0 .48.32.8.8.8h4.8c.48 0 .8-.32.8-.8v-4h35.2v4c0 .48.32.8.96.8h4.64c.48 0 .799-.32.799-.8V.8C48 .32 47.68 0 47.2 0H.8zm46.4 48c.48 0 .8-.32.8-.8v-9.44c0-.48-.32-.799-.8-.799h-4.64c-.48 0-.799.32-.799.8v3.84H6.401v-4c0-.48-.32-.8-.96-.8H.8c-.48 0-.8.32-.8.96v9.44c0 .48.32.8.8.8h46.4z" fill="#0072C6"/>
        <path d="M28.663 25.054A6.551 6.551 0 0 1 24 26.986a6.551 6.551 0 0 1-4.664-1.932L10.4 16.118v18.166h27.2V16.117l-8.937 8.937z" fill="#59B4D9"/>
        <path d="M24 25.659c1.407 0 2.73-.548 3.725-1.543l9.874-9.874v-.524H10.4v.524l9.875 9.873A5.234 5.234 0 0 0 24 25.66z" fill="#59B4D9"/>
    </g>
    <defs>
        <clipPath id="clip0">
            <path fill="#fff" d="M0 0h48v48H0z"/>
        </clipPath>
    </defs>
</svg>
