<?xml version="1.0" encoding="UTF-8" standalone="no"?>
<!-- Created with Inkscape (http://www.inkscape.org/) -->

<svg
   xmlns:dc="http://purl.org/dc/elements/1.1/"
   xmlns:cc="http://creativecommons.org/ns#"
   xmlns:rdf="http://www.w3.org/1999/02/22-rdf-syntax-ns#"
   xmlns:svg="http://www.w3.org/2000/svg"
   xmlns="http://www.w3.org/2000/svg"
   xmlns:sodipodi="http://sodipodi.sourceforge.net/DTD/sodipodi-0.dtd"
   xmlns:inkscape="http://www.inkscape.org/namespaces/inkscape"
   id="svg2816"
   version="1.1"
   inkscape:version="0.91 r13725"
   width="1024"
   height="1024"
   sodipodi:docname="curl.svg"
   inkscape:export-filename="C:\Users\Jamie\Sources\vso-agent-tasks\Tasks\cURLUploader\icon.png"
   inkscape:export-xdpi="2.8099999"
   inkscape:export-ydpi="2.8099999">
  <metadata
     id="metadata2822">
    <rdf:RDF>
      <cc:Work
         rdf:about="">
        <dc:format>image/svg+xml</dc:format>
        <dc:type
           rdf:resource="http://purl.org/dc/dcmitype/StillImage" />
        <dc:title></dc:title>
      </cc:Work>
    </rdf:RDF>
  </metadata>
  <defs
     id="defs2820">
    <inkscape:perspective
       sodipodi:type="inkscape:persp3d"
       inkscape:vp_x="0 : 0.5 : 1"
       inkscape:vp_y="0 : 1000 : 0"
       inkscape:vp_z="1 : 0.5 : 1"
       inkscape:persp3d-origin="0.5 : 0.33333333 : 1"
       id="perspective2824" />
  </defs>
  <sodipodi:namedview
     pagecolor="#ffffff"
     bordercolor="#666666"
     borderopacity="1"
     objecttolerance="10"
     gridtolerance="10"
     guidetolerance="10"
     inkscape:pageopacity="0"
     inkscape:pageshadow="2"
     inkscape:window-width="3440"
     inkscape:window-height="1377"
     id="namedview2818"
     showgrid="true"
     inkscape:zoom="0.68181818"
     inkscape:cx="305.09049"
     inkscape:cy="461.7113"
     inkscape:window-x="-8"
     inkscape:window-y="-8"
     inkscape:window-maximized="1"
     inkscape:current-layer="svg2816"
     inkscape:snap-bbox="true"
     inkscape:bbox-nodes="true">
    <inkscape:grid
       type="xygrid"
       id="grid4134"
       spacingx="32"
       spacingy="32"
       empspacing="4" />
  </sodipodi:namedview>
  <path
     style="font-style:normal;font-weight:normal;font-size:40px;font-family:'Bitstream Vera Sans';fill:#424242;fill-opacity:1"
     d="m 243.25001,320 0,125.25326 c -1.55903,-1.30923 -3.24026,-2.48554 -4.87264,-3.70816 -21.31812,-15.9654 -52.35007,-23.89675 -92.95535,-23.89702 -29.0487,2.7e-4 -52.631114,4.36081 -71.215841,12.77253 -11.713157,5.32216 -23.0203,13.40794 -34.108585,24.309 -11.088446,10.90152 -19.834229,22.93586 -26.237429,36.66954 -8.7457826,18.71258 -13.118674,42.30056 -13.118674,70.45492 0,26.95286 3.3108676,48.78976 10.494955,65.09869 7.184088,16.3091 17.335388,30.33484 29.98561,42.43772 12.650061,12.10307 27.783434,20.96144 45.353209,26.36913 17.569535,5.40768 39.574635,7.82832 65.968325,7.82832 27.33043,0 49.74155,-3.94848 67.46758,-12.36046 17.72555,-8.41206 32.07812,-20.24033 43.47916,-35.43349 2.56322,-3.4161 4.87087,-7.01233 7.12157,-10.7125 1.60577,2.30746 3.07688,4.70827 4.87264,7.00434 11.01024,14.07731 23.08258,24.90983 36.35751,32.54931 13.27477,7.63947 30.0948,13.08156 49.85108,15.65671 19.75594,2.57507 38.01274,3.70807 54.72371,3.70816 22.53166,-9e-5 42.48575,-3.08299 59.97119,-8.24039 l 0,1.64804 106.82369,0 0,-153.27034 9.3705,0 c 9.68269,1.8e-4 18.20984,2.81564 25.86258,8.65238 5.62212,4.46367 11.93158,14.3177 19.11582,29.25322 l 56.97263,115.36474 119.94235,0 209.5244,0 0,-93.11586 -165.67044,0 0,-284.2917 -106.07404,0 0,22.24888 C 745.25498,336.56444 737.30943,332.15471 728.64186,329.06445 711.30618,322.88454 686.09955,320.00044 653.30305,320 l -80.9611,0 -106.07405,0 0,230.31758 c -2.5e-4,20.94428 -4.98229,37.20182 -15.36763,48.61801 -10.38581,11.41645 -24.83203,16.89277 -43.10429,16.89268 -18.42878,9e-5 -32.71885,-5.71663 -43.10429,-17.30467 -10.38582,-11.58787 -15.74256,-27.605 -15.74244,-48.20602 l 0,-230.31758 -105.69924,0 z m 339.96171,76.22318 46.47768,0 c 19.36548,3.5e-4 32.70281,2.95308 39.73091,9.47643 7.02764,6.52389 10.49472,15.82858 10.49496,28.01717 -2.4e-4,8.24057 -2.29601,15.89721 -6.74676,22.24889 -4.45122,6.35221 -10.21406,9.99165 -17.24172,11.53648 -13.89977,3.43371 -23.27026,5.35647 -28.11149,5.35621 l -44.60358,0 0,-76.63518 z m -434.79118,93.11586 c 12.4938,2.6e-4 22.56705,3.14184 29.98561,9.06436 7.41807,5.92298 12.55632,14.69546 15.36759,26.36913 l 49.47627,-7.41633 0,27.60518 c 0,15.32946 2.285,32.82953 6.74677,51.91418 l -52.47477,-6.59235 c -4.21696,14.59242 -10.60447,25.51083 -19.11586,32.54939 -8.51172,7.03865 -18.99107,10.71251 -31.48487,10.71241 -14.99289,10e-5 -27.42449,-6.04282 -37.10718,-17.71674 -9.68293,-11.67366 -14.243297,-28.60074 -14.243136,-51.09011 -1.61e-4,-25.23585 4.856956,-43.99981 14.617926,-56.44632 9.76082,-12.44616 22.45779,-18.95254 38.23165,-18.9528 z m 603.83498,16.89268 0,64.27472 c -1.42721,-2.04536 -2.45678,-3.90509 -4.12302,-6.18028 -7.41861,-10.12856 -12.96282,-16.6865 -16.86689,-19.77686 -5.77877,-4.635 -15.08679,-9.37313 -27.73668,-14.00849 15.77339,-3.94838 28.04873,-8.82388 37.10718,-14.83265 4.18173,-2.77821 7.93636,-6.18445 11.61941,-9.47644 z"
     id="path3742"
     inkscape:connector-curvature="0" />
</svg>
