<?xml version="1.0" encoding="UTF-8" standalone="no"?>
<!-- Created with Inkscape (http://www.inkscape.org/) -->

<svg
   xmlns:dc="http://purl.org/dc/elements/1.1/"
   xmlns:cc="http://creativecommons.org/ns#"
   xmlns:rdf="http://www.w3.org/1999/02/22-rdf-syntax-ns#"
   xmlns:svg="http://www.w3.org/2000/svg"
   xmlns="http://www.w3.org/2000/svg"
   xmlns:sodipodi="http://sodipodi.sourceforge.net/DTD/sodipodi-0.dtd"
   xmlns:inkscape="http://www.inkscape.org/namespaces/inkscape"
   width="1024"
   height="1024"
   viewBox="0 0 1024 1024"
   id="svg2"
   version="1.1"
   inkscape:version="0.91 r13725"
   sodipodi:docname="icon.svg"
   inkscape:export-filename="C:\Users\Jamie\Sources\vsts-tasks\Tasks\PowerShellOnTargetMachines\icon.png"
   inkscape:export-xdpi="2.8125"
   inkscape:export-ydpi="2.8125">
  <defs
     id="defs4">
    <pattern
       y="0"
       x="0"
       height="6"
       width="6"
       patternUnits="userSpaceOnUse"
       id="EMFhbasepattern" />
    <pattern
       y="0"
       x="0"
       height="6"
       width="6"
       patternUnits="userSpaceOnUse"
       id="EMFhbasepattern-4" />
    <pattern
       y="0"
       x="0"
       height="6"
       width="6"
       patternUnits="userSpaceOnUse"
       id="EMFhbasepattern-0" />
  </defs>
  <sodipodi:namedview
     id="base"
     pagecolor="#ffffff"
     bordercolor="#666666"
     borderopacity="1.0"
     inkscape:pageopacity="0.0"
     inkscape:pageshadow="2"
     inkscape:zoom="0.35"
     inkscape:cx="-273.33243"
     inkscape:cy="467.70706"
     inkscape:document-units="px"
     inkscape:current-layer="layer1"
     showgrid="true"
     units="px"
     inkscape:snap-bbox="true"
     inkscape:bbox-nodes="true"
     inkscape:window-width="3440"
     inkscape:window-height="1377"
     inkscape:window-x="-8"
     inkscape:window-y="-8"
     inkscape:window-maximized="1">
    <inkscape:grid
       type="xygrid"
       id="grid4136"
       spacingx="32"
       spacingy="32"
       empspacing="4" />
  </sodipodi:namedview>
  <metadata
     id="metadata7">
    <rdf:RDF>
      <cc:Work
         rdf:about="">
        <dc:format>image/svg+xml</dc:format>
        <dc:type
           rdf:resource="http://purl.org/dc/dcmitype/StillImage" />
        <dc:title></dc:title>
      </cc:Work>
    </rdf:RDF>
  </metadata>
  <g
     inkscape:label="Layer 1"
     inkscape:groupmode="layer"
     id="layer1"
     transform="translate(0,-28.362251)">
    <g
       id="g4210"
       transform="matrix(1.0168117,0,0,1.0168902,-9.3127767,-10.010792)">
      <path
         style="fill:#396337;fill-opacity:1;fill-rule:evenodd;stroke:none"
         d="m 661.93039,541.47012 c 0,-82.19444 -64.41697,-146.60225 -146.60072,-146.60225 -82.18833,0 -148.82405,64.40781 -148.82405,146.60225 0,79.96347 66.63572,146.60225 148.82405,146.60225 82.18375,0 146.60072,-66.63878 146.60072,-146.60225 z"
         id="path4195"
         inkscape:connector-curvature="0" />
      <path
         style="fill:#92b32c;fill-opacity:1;fill-rule:evenodd;stroke:none"
         d="M 262.10691,217.16957 C 82.186804,357.10947 51.089218,614.77124 191.02759,792.46955 328.74416,970.16786 588.6308,1003.4796 768.55396,863.55498 850.73771,799.1319 906.269,705.84373 921.8155,603.66224 l -135.49477,0 -117.7234,202.13201 -306.53378,0 L 208.79742,541.47012 328.74416,332.67576 262.10691,217.16957 Z"
         id="path4197"
         inkscape:connector-curvature="0" />
      <path
         style="fill:#396337;fill-opacity:1;fill-rule:evenodd;stroke:none"
         d="M 921.8155,479.27801 C 888.49764,257.14366 677.48148,101.66338 453.1345,137.20609 c -28.87578,4.43138 -55.53129,11.15485 -82.1868,19.98705 l 68.8621,119.95285 228.78753,0 117.7234,202.13202 135.49477,0 z"
         id="path4199"
         inkscape:connector-curvature="0" />
    </g>
  </g>
</svg>
