<svg width="24" height="24" fill="none" xmlns="http://www.w3.org/2000/svg">
    <path d="M9.865 4.256h6.756l3.408 5.903h3.892C23.035 4.406 18.062 0 12.06 0c-1.518 0-2.968.284-4.305.799l2.109 3.457z" fill="#006533"/>
    <path d="M20.21 13.715l-3.59 6.216H7.57l-4.524-7.838L6.66 5.831 4.663 2.555A11.976 11.976 0 0 0 .061 12c0 6.628 5.373 12 12 12 6.045 0 11.044-4.47 11.877-10.285h-3.729" fill="#82B816"/>
    <path d="M16.316 11.968a4.285 4.285 0 1 1-8.57.001 4.285 4.285 0 0 1 8.57 0z" fill="#006532"/>
</svg>
