<svg width="24" height="24" fill="none" xmlns="http://www.w3.org/2000/svg">
    <path d="M23.557 18.242L15.3 1.5h-2.753l8.258 16.742h2.752z" fill="#9392CE"/>
    <path d="M14.656 1.5H9.83v.965h4.826V1.5z" fill="#9392CE"/>
    <path d="M11.175 1.5L2.917 18.242H.165L8.422 1.5h2.753z" fill="#3731AA"/>
    <mask id="a" maskUnits="userSpaceOnUse" x="0" y="6" width="24" height="16">
        <path d="M2.985 21.986C1 22.131.007 21.126.007 18.974v-6.626c-.145-4.016 1.84-6.025 5.956-6.025h11.912c3.97.084 5.956 2.093 5.956 6.025v6.626c0 2.008-.993 3.012-2.978 3.012H2.985z" fill="#fff"/>
    </mask>
    <g mask="url(#a)">
        <path d="M2.985 21.986C1 22.131.007 21.126.007 18.974v-6.626c-.145-4.016 1.84-6.025 5.956-6.025h11.912c3.97.084 5.956 2.093 5.956 6.025v6.626c0 2.008-.993 3.012-2.978 3.012H2.985z" fill="#3731AA"/>
        <path d="M25.634 22.462L17.376 5.72h-2.752l8.257 16.742h2.753zM9.094 5.72L.836 22.462h-2.753L6.341 5.72h2.753z" fill="#1D1789"/>
        <path d="M8.109 17.994h-5.51v1.658h5.51v-1.658z" fill="#9392CE"/>
        <path d="M20.89 10.889h-4.549v8.763h4.55V10.89z" fill="#FFF3E6"/>
        <path d="M20.89 16.523h-4.549v3.16h4.55v-3.16z" fill="#9392CE"/>
        <mask id="b" maskUnits="userSpaceOnUse" x="16" y="15" width="6" height="3">
            <path d="M21.324 15.553h-5.292v1.596h5.292v-1.597z" fill="#fff"/>
        </mask>
        <g mask="url(#b)">
            <path d="M21.324 15.553h-5.292v1.596h5.292v-1.597z" fill="#3731AA"/>
            <path d="M23.034 17.173L14.777.431h-2.753l8.258 16.742h2.752z" fill="#1D1789"/>
        </g>
        <path d="M11.064 13.236l3.39 6.416h-6.78l3.39-6.416z" fill="#2EC4B6"/>
        <path d="M11.049 13.268l-3.444 6.478H6.159l3.395-6.478h1.495z" fill="#3731AA"/>
        <path d="M11.544 10.858l3.219 6.29v-6.29h-3.219z" fill="#CF6"/>
        <path d="M5.88 16.96c1.83 0 3.312-1.498 3.312-3.348 0-1.85-1.483-3.349-3.312-3.349-1.829 0-3.311 1.5-3.311 3.349 0 1.85 1.482 3.349 3.311 3.349z" fill="#E83683"/>
    </g>
</svg>
