<?xml version="1.0" encoding="utf-8"?>
<!-- Generator: Adobe Illustrator 21.0.2, SVG Export Plug-In . SVG Version: 6.00 Build 0)  -->
<svg version="1.1"
	 id="Layer_1" xmlns:ev="http://www.w3.org/2001/xml-events" xmlns:v="http://schemas.microsoft.com/visio/2003/SVGExtensions/"
	 xmlns="http://www.w3.org/2000/svg" xmlns:xlink="http://www.w3.org/1999/xlink" x="0px" y="0px" viewBox="0 0 32 32.2"
	 enable-background="new 0 0 32 32.2" xml:space="preserve">
<g>
	<g id="shape1123-1" transform="translate(0.375,-0.375)">
		<path fill="#0078D7" d="M19.8,18.5L19.8,18.5L24,16l0.1-0.1c0,0,0-0.1-0.1-0.1l-4.2-2.4h-0.1l-4.2,2.4l-0.1,0.1
			c0,0.1,0,0.1,0.1,0.1L19.8,18.5C19.7,18.5,19.7,18.5,19.8,18.5z M19.1,24.3C19.2,24.3,19.2,24.3,19.1,24.3
			C19.2,24.3,19.2,24.2,19.1,24.3l0.1-5c0,0,0-0.1-0.1-0.1L15,16.9h-0.1L14.8,17v4.9c0,0,0,0.1,0.1,0.1L19.1,24.3L19.1,24.3z
			 M20.3,24.3C20.4,24.3,20.4,24.3,20.3,24.3l4.3-2.4l0.1-0.1V17c0-0.1,0-0.1-0.1-0.1h-0.1l-4.2,2.4l-0.1,0.1L20.3,24.3
			C20.2,24.3,20.2,24.3,20.3,24.3L20.3,24.3z M18.5,10.1L16,8.7h-0.1l-2.6,1.5H8.7c-0.7,0-1.3,0.7-1.3,1.4v9.6H5.5V7.3h20.3v2.9
			L18.5,10.1L18.5,10.1z M22.8,27.6h6.9c0.7,0,1.5-0.7,1.5-1.4V11.5c0-0.7-0.7-1.4-1.5-1.4h-2.2V6.8c0-0.7-0.7-1.4-1.5-1.4h-2.3V2.1
			c0-0.7-0.7-1.4-1.5-1.4h-21C0.5,0.8,0,1.3,0,2.1v14.8c0,0.7,0.6,1.4,1.3,1.4h2.4v3.3C3.7,22.3,4.3,23,5,23h2.3v3.3
			c0,0.7,0.6,1.4,1.3,1.4h7.7c0.8,2.7-0.3,3.1-4.9,3.1v1.5H27v-1.5C22.5,30.8,22.1,30.4,22.8,27.6z M29.7,25.8H9.3V12h20.3v13.8
			H29.7z M14.8,5.5L12.3,4h-0.1L9.5,5.5H5c-0.7,0-1.3,0.7-1.3,1.4v9.6h-2V2.6H22v2.9H14.8L14.8,5.5z"/>
	</g>
</g>
</svg>
