<svg width="24" height="24" fill="none" xmlns="http://www.w3.org/2000/svg">
    <path d="M15.564 18.416H9.04c.784 2.75-.27 3.144-4.884 3.144V23h15.69v-1.44c-4.614 0-5.067-.393-4.282-3.144z" fill="#7A7A7A"/>
    <path d="M22.55 1H1.305C.583 1 .001 1.641.001 2.357v14.715c0 .71.582 1.346 1.304 1.346H22.55c.72 0 1.45-.634 1.45-1.346V2.357C24 1.64 23.27 1 22.55 1z" fill="#A0A1A2"/>
    <path opacity=".2" d="M22.565 1.001H1.304C.583 1 0 1.64 0 2.357V17.07c0 .712.582 1.346 1.304 1.346h.506L22.565 1.001z" fill="#fff"/>
    <path d="M22.127 2.834v13.749H1.82V2.833h20.307z" fill="#59B4D9"/>
    <path d="M1.82 16.583h.028V2.835l18.565-.028h.001L1.82 2.835v13.748z" fill="#59B4D9"/>
    <path d="M19.846 21.56H4.155V23h15.69v-1.44z" fill="#A0A1A2"/>
    <path d="M12.249 1.998a.34.34 0 0 1-.34.338.338.338 0 1 1 0-.676.34.34 0 0 1 .34.338z" fill="#B8D432"/>
    <path d="M12.262 9.292a.138.138 0 0 1-.064-.018L7.972 6.852a.127.127 0 1 1 0-.22l4.2-2.407a.127.127 0 0 1 .126 0l4.227 2.424a.126.126 0 0 1 .063.11.124.124 0 0 1-.063.11l-4.2 2.406a.134.134 0 0 1-.063.017z" fill="#fff"/>
    <path opacity=".7" d="M11.655 15.18a.125.125 0 0 1-.065-.017l-4.213-2.415a.124.124 0 0 1-.065-.11V7.792c0-.046.024-.087.065-.11a.129.129 0 0 1 .129 0l4.212 2.414a.133.133 0 0 1 .063.11v4.847a.13.13 0 0 1-.063.11.138.138 0 0 1-.063.017z" fill="#fff"/>
    <path opacity=".4" d="M12.848 15.18a.138.138 0 0 1-.066-.017.13.13 0 0 1-.062-.11v-4.816c0-.044.024-.086.062-.11l4.212-2.414a.125.125 0 0 1 .127 0c.04.022.065.064.065.11v4.814a.125.125 0 0 1-.065.11l-4.21 2.415a.114.114 0 0 1-.063.018z" fill="#fff"/>
</svg>
