<svg width="24" height="24" fill="none" xmlns="http://www.w3.org/2000/svg">
    <path d="M3.772 9.706l1.34-.47 1.082.521.514 1.148.618-.104.155-.626-.309-1.2.31-2.867-.259-1.565.928-1.095 2.01-1.616-.567-.782L6.76 2.458l-1.184.939-.67 1.46-1.03 1.408-.31 1.668.206 1.773z" fill="#6D6B6D"/>
    <path d="M5.885 4.804s.772-1.93 3.864-2.868c3.09-.94.154-.678.154-.678L6.554 2.562 5.267 3.866 4.7 4.909l1.185-.105zM4.339 9.34s-1.082-3.65 3.04-4.172l-.156-.625-2.833.678-.825 2.711.206 1.773.568-.365z" fill="#DCD9D8"/>
    <path d="M5.988 14.19l.674-.661s.304.036.355.4c.052.365.206 3.65 2.422 5.424.202.162-1.649-.26-1.649-.26l-1.648-2.608" fill="#F7E4CD"/>
    <path d="M17.734 18.884l-2.06.313-2.783.312-1.804.053-1.751-.053-1.34-.417-1.185-1.303-.927-2.66-.206-.573-1.237-.417-.721-1.2-.515-1.72.566-1.513 1.34-.47 1.082.522.515 1.148.618-.105.206-.26-.206-1.2-.052-1.513.309-2.085L7.57 4.55l.94-1.52 1.648-1.2L13.044.58l3.194.47 2.783 2.033 1.287 2.086.825 1.513.206 3.754-.618 3.233-1.134 2.868-1.081 1.513-.772.834zm-.928.612c-.367.243-.68.546-1.031.804-.781.04-1.208-.054-1.782-.508.01-.037.068-.02.07-.065.835.377 1.898-.154 2.743-.23z" fill="#F0D6B7"/>
    <path d="M15.467 13.2s.12-1.581.541-1.46c.42.122.42.548.42.548s-1.02.669-.96.912zm4.276-5.789s-.85.182-.928.94c-.077.757.928.156 1.082.103m-6.388-.99s-1.134.157-1.134.886c0 .73 1.288.678 1.649.366m-7.522 2.137s-1.957-1.2-2.163-.053c-.206 1.148-.67 1.982.309 3.18l-.67-.208-.618-1.616-.206-1.564L4.34 9.34l1.34.104.772.626.051.783zm.928-3.286s.876-4.589 5.307-5.475c3.647-.73 5.563.156 6.285.99 0 0-3.245-3.91-6.337-2.712-3.091 1.2-5.358 3.39-5.307 4.798.088 2.398.052 2.4.052 2.4zm11.952-3.963s-1.494-.052-1.545 1.304c0 0 0 .208.103.417 0 0 1.185-1.356 1.906-.626" fill="#F7E4CD"/>
    <path d="M12.84 5.466s-.257-2.08-2.01-.871c-1.133.782-1.03 1.877-.824 2.086.206.208.15.628.306.34.158-.288.106-1.227.672-1.487.567-.261 1.496-.552 1.857-.068z" fill="#F7E4CD"/>
    <path d="M18.961 22.482l-.067-.002c-.903-.027-1.706-.139-2.387-.334l-.114-.032.02-.118c.019-.12.012-.243.005-.362-.008-.155-.017-.3.03-.435l.013-.04.035-.025a.663.663 0 0 1 .078-.048l-.06.012-.158.04-.005-.164a.76.76 0 0 0-.083-.296 2.132 2.132 0 0 1-.059-.144l-.043-.125.123-.044c.135-.049.348-.195.573-.35.587-.404 1.317-.907 1.842-.596.445.262.525 1.687.533 1.849.011.24.011.836-.236 1.16l-.04.054zm-2.275-.562c.619.165 1.339.263 2.143.291.11-.19.164-.53.146-.93-.033-.689-.196-1.509-.402-1.63-.382-.226-1.064.243-1.561.586a5.25 5.25 0 0 1-.507.324l.005.01c.03.072.065.15.086.243.279-.034.595.016.843.139l.405.202-.448.05a6.173 6.173 0 0 1-.179.018c-.197.017-.4.035-.53.106-.016.08-.01.179-.004.291.004.092.01.194.003.3z" fill="#D33833"/>
    <path d="M17.916 23.998l.127-.525v-4.85l1.236-1.251.464.417 2.319 2.45s-.622 2.547-.9 3.759h-3.246zm-5.107 0l.082-.16-.455.16h.373zm-10.557 0h9.246l-.256-.317-.618-2.712-.515-.157-1.133-.365-.979-.886-1.134-1.408-1.287.521-4.122 2.868.258.834.54 1.622z" fill="#335061"/>
    <path d="M15.508 22.048c-.096 0-.207-.016-.333-.056l-.076-.024-.014-.08a5.308 5.308 0 0 0-.071-.337 1.775 1.775 0 0 1-.062-.648l.006-.064.053-.035c.525-.354.843-.143.956-.036.239.228.292.659.119.958a.643.643 0 0 1-.578.322zm-.179-.29c.246.059.433 0 .53-.167.111-.192.077-.486-.073-.63-.132-.126-.335-.115-.575.03-.011.199.017.316.06.498.018.078.037.164.058.27z" fill="#D33833"/>
    <path d="M6.15 12.091c-.316-.182-.391-.986-.762-1.009-.53-.032-.433 1.043-.431 1.671-.365-.335-.43-1.367-.16-1.896-.306-.152-.443.167-.612.28.218-1.601 2.313-.743 1.965.954z" fill="#231F20"/>
    <path d="M12.083 14.427c.068-.091.441-.23.963.024 0 0-.618.104-.567 1.148l-.258-.053s-.266-.946-.138-1.119z" fill="#F7E4CD"/>
    <path d="M10.764 19.666l-1.427-.156-1.34-.417v.47l.654.73 2.06.939.053-1.566zm4.516 4.332l-.756-1.098s.258-.73.618-.73h1.185l1.133.416-.075 1.412H15.28z" fill="#fff"/>
    <path d="M16.6 23.395a.285.285 0 0 1-.284.286.285.285 0 0 1-.283-.286c0-.158.127-.287.283-.287.157 0 .284.128.284.287z" fill="#1D1919"/>
    <path d="M15.18 23.998l-.744-1.777 1.185-.157 1.752.365v.991s-.773-.417-1.134-.574c-.36-.156-.618.47-.618.47 0 .104.09.358.225.682h-.666zm-6.72-4.175s1.598.677 2.113.52l.051.625-1.442-.311-.876-.626.155-.208z" fill="#DCD9D8"/>
    <path d="M15.214 21.865c-.076-.44-.164-.566-.13-.95 1.16-.783 1.378 1.345.13.95zm3.684.482c-.875-.026-1.665-.131-2.356-.328.047-.287-.04-.569.03-.776.193-.14.516-.138.807-.17a1.393 1.393 0 0 0-.897-.104c-.006-.199-.095-.322-.149-.478.492-.178 1.652-1.342 2.305-.956.31.183.443 1.23.467 1.74.02.422-.037.848-.207 1.072zm-4.18-1.447l-.008.202c-.273.182-.714.18-1.013.332.442.02.79.128 1.09.28l-.02.505c-.5.346-.957.863-1.546 1.188-.278.154-1.255.549-1.552.48-.167-.04-.183-.25-.25-.45-.143-.425-.47-1.101-.5-1.74-.036-.81-.117-2.164.743-1.997.695.134 1.502.457 2.04.755.327.182.517.407 1.015.446z" fill="#D33833"/>
    <path d="M13.234 23.998c.343-.301.745-.555 1.13-.816.2.256.38.53.547.816h-1.677zm5.787 0c.112-.196.223-.392.336-.587-.304-.493-.938-.923-1.679-.572a32.72 32.72 0 0 1-.067 1.159h1.41z" fill="#81B0C4"/>
    <path d="M14.845 21.594a2.748 2.748 0 0 0-.529-.202c.166-.04.33-.088.466-.178l.057-.037.015-.4-.126-.01c-.337-.026-.515-.143-.722-.279-.075-.05-.153-.1-.242-.15-.47-.261-1.298-.619-2.077-.769-.227-.043-.417 0-.566.13-.41.36-.367 1.279-.337 1.95l.003.053c.023.51.222 1.027.382 1.442.047.123.091.237.124.336.014.04.026.082.037.122.04.148.092.326.255.395h.408c.462-.091 1.115-.377 1.29-.474.364-.2.673-.466.973-.724.2-.172.39-.335.586-.47l.055-.039.025-.659-.077-.037zm-.207.554c-.188.135-.365.288-.553.449-.289.249-.588.505-.927.693-.33.182-1.233.52-1.46.466-.049-.012-.073-.08-.113-.225-.013-.045-.026-.091-.041-.136a8.54 8.54 0 0 0-.13-.347c-.152-.398-.343-.892-.364-1.358l-.002-.053c-.025-.547-.066-1.463.245-1.736a.336.336 0 0 1 .232-.082.57.57 0 0 1 .112.012c.75.145 1.546.49 2 .741.08.044.154.092.225.14.194.127.393.258.72.307v.005a1.877 1.877 0 0 1-.443.135c-.171.039-.35.078-.5.155l-.452.23.505.023c.352.016.66.089.96.228l-.014.353z" fill="#D33833"/>
    <path d="M16.894 22.222s-.36-.521-.103-.678c.258-.157.515 0 .67-.261.155-.261 0-.417.052-.73.05-.314.309-.366.567-.418.258-.052.978-.157 1.081.104l-.309-.939-.617-.208-1.958 1.148-.103.573v1.148l.72.26zm-5.41 1.72l-.038-.486c.085.161.16.306.222.43l-.183.056zm2.488-2.239c-.794-.438-.042-.308-.324-.889-.059-.122-.877-.313-1.037-.313-1.039 0-1.436-.212-1.327 1.002.058.651.11 1.302.162 1.954-.593-1.134-1.57-3.062-.359-3.896.546-.375 1.73.017 2.242.285l1.207.634c.229.12.867-.006 1.019.177.27.822-.913 1.416-1.583 1.046z" fill="#EF3D3A"/>
    <path d="M2.02 23.16l-.566-1.617L6.502 18.1l1.494 1.46-4.843 2.19s.23.926.495 2.247H2.212l-.191-.838zm16.28-4.694l3.607 2.712.103-1.251-2.73-2.555-.98 1.095z" fill="#49728B"/>
    <path d="M17.228 15.429c-.002-.323 0-.65-.065-.915-1.193.036-2.806-.014-3.683-.482.402 1.09 2.215 1.474 3.748 1.397z" fill="#231F20"/>
    <path d="M22.49 19.99c-.066-.529-.881-1.085-1.31-1.503-.239-.233-1.35-1.086-1.414-1.405-.062-.31.453-1.01.619-1.36.238-.501.408-1.115.526-1.532.873-3.11.962-7.38-.287-9.936-.473-.968-1.795-2.305-2.622-2.938C16.05-.178 12.445-.343 10.094.533c-.655.243-1.29.462-1.865.804-1.54.915-3.174 1.527-3.63 3.368-1.125.51-1.465 1.968-1.409 3.659.012.329.188.741.127 1.051-.03.158-.241.36-.284.461-.538 1.302-.106 3.012.516 3.937.377.559 1 1.055 1.823 1.186.032.498.151.928.378 1.432.144.32.682.894.484 1.302-.099.206-.975.652-1.265.828-.98.596-1.691.96-2.597 1.62-.585.427-1.5.482-1.357 1.466.098.665.47 1.488.685 2.154.021.067.044.133.067.199h19.669c.219-.692.433-1.402.65-2.134.16-.545.475-1.314.404-1.876zM9.42 1.586c.085-.024.159.033.23.11-.01.247-.25.242-.413.32-.254.316-.624.463-.932.808-.315.354-.669 1.304-1.088 1.41-.21.052-.45-.037-.632-.025-.484.03-.824.281-1.315.353.634-1.402 2.61-2.535 4.15-2.977zm-4.87 4.4c.628-.7 1.493-1.136 2.547-1.217.543 1.399-.39 3.06-.042 4.59.107.468.474 1.196-.113 1.211.015-1.332-1.618-2.178-2.848-1.395-.083-1.01-.226-2.432.455-3.19zm1.706 9.417c-.045-.194-.125-.607-.105-.713.074-.41.795-.59.51-1.162-.522-.005-.64.482-1.12.53-1.243.125-2.12-1.667-2.063-2.748.047-.918.815-1.798 1.865-1.682.742.083.994.902 1.138 1.631.428.024 1.045-.018 1.248-.356-.03-.824-.408-1.486-.381-2.243.049-1.423.815-2.708.224-4.11.632-1.453 2.488-2.6 3.86-3.291 1.702-.86 4.41-.172 6.009.741.919.525 1.597 1.54 2.244 2.384-.907-.273-1.679.195-1.538.952.759-.704 2.055-.007 2.439.77.366.744.364 1.848.42 2.954.137 2.682-.484 5.45-1.816 7.39-.356.517-.655 1.083-1.156 1.44-1.207.857-3.041 1.634-4.612 1.102-2.075-.705-3.019-2.105-4.16-3.708.03.88.643 1.603 1.247 2.277.526.587 1.16 1.25 1.842 1.524-.57-.135-1.443-.178-1.68.34-1.33-.09-2.564-.227-3.193-1.14-.493-.717-.996-1.938-1.222-2.882zm10.316 5.84c.193-.14.515-.138.807-.17a1.392 1.392 0 0 0-.897-.104c-.006-.2-.095-.322-.149-.478.492-.178 1.652-1.342 2.305-.956.31.183.443 1.23.467 1.74.02.422-.038.848-.208 1.072-.874-.026-1.664-.131-2.355-.328.048-.288-.04-.569.03-.776zm-.797-.943c-.781.04-1.208-.054-1.782-.508.01-.037.067-.02.07-.065.836.377 1.898-.154 2.743-.23-.367.242-.68.545-1.031.803zm-.56 1.565c-.077-.44-.165-.566-.131-.95 1.16-.783 1.377 1.344.13.95zm-4.856-1.237c-.54-.034-2.238-.658-1.792-1.117.437.307 1.28.231 1.922.345.033.209-.133.482-.13.772zm-7.89 2.569a17.33 17.33 0 0 0-.62-1.553c1.433-1.12 3.035-2.302 4.75-2.987.13-.052 1.077 1.196 1.217 1.298.768.552 1.722.988 2.614 1.419.055.414.181.95.403 1.669.016.05.03.102.046.154H2.47zm9.2.69c-.168-.04-.184-.25-.25-.449-.143-.425-.472-1.101-.5-1.741-.037-.809-.118-2.163.743-1.997.694.135 1.502.458 2.039.756.328.181.518.406 1.016.445l-.007.202c-.273.181-.714.18-1.013.332.442.02.79.128 1.09.28l-.02.505c-.5.346-.957.863-1.546 1.188-.279.152-1.256.548-1.553.479zm2.671-.69l.023-.016.011.016h-.034zm.766 0a5.322 5.322 0 0 0-.294-.404c.097-.104.184-.22.28-.326.416.176.687-.23 1.007-.196.367.039.657.552 1.181.518-.008.135-.014.271-.02.407h-2.154zm2.556 0c.006-.122.012-.242.016-.358.63-.298 1.183-.031 1.52.358h-1.536zm3.864-1.557a17.16 17.16 0 0 1-.4 1.558h-1.311c-.129-.265-.407-.391-.49-.699.56-1.07.303-4.392-1.126-3.69.2-.297.724-.543.968-.908.603.491.966.953 1.544 1.48.314.283.93.625.993 1.084.036.258-.12.886-.178 1.175z" fill="#231F20"/>
    <path d="M17.566 14.463c-.052.175-.03.62-.002.911 1.376-.03 2.04-1.024 2.508-1.928-.805.373-1.455.915-2.506 1.017zm-4.253.441c-.775 0-.121.437.01.608.272.354.59.957 1.087 1.224.782.42 2.337.244 2.9.012.21-.086.377-.322.455-.523-1.76.043-3.845.221-4.452-1.321zm7.428-5.854c-.4-.588-.675-1.295-.992-1.962l-.067-.003c-.045.768.237 1.23.433 1.772-.338.216-.996.081-1.377.25-.028 1.136 1.735.576 2.003-.056zM10.312 7.021c.426-.96 1.124-1.886 2.528-1.554.27-.449-.213-.779-.569-.833-.827-.126-1.84.806-2.091 1.505-.096.267-.248.79.132.882zm2.212 2.254c-.528.844 1.032 1.003 1.7.803.184-.055.5-.333.544-.457.186-.529-.189-.76-.381-.95-.428-.423-.526-1.01-.827-1.569-.208.6.358 1.616.676 2.13-.415.407-1.158.07-1.712.043zm3.126 4.708c1.65.165 2.773-.548 3.781-1.203-.04-.257.305-.72.21-1.106-.034-.132-.333-.325-.514-.526-.74-.816-1.752-2.035-2.154-2.988-.045-.105-.072-.683-.383-.454-.038 1.408.995 2.573 1.766 3.513.376.46.83.72.412 1.434-.674.26-1.764 1.001-2.7.84-.498-.087-.386-.658-.564-.968-.342.457-.207 1.147.145 1.458z" fill="#231F20"/>
</svg>
