<svg width="24" height="24" fill="none" xmlns="http://www.w3.org/2000/svg">
    <path d="M23.563 8.819a12.215 12.215 0 0 0-1.213-2.87 11.978 11.978 0 0 0-4.305-4.306A12.32 12.32 0 0 0 15.177.43c-1.02-.286-2.08-.43-3.18-.43s-2.16.144-3.18.431a12.185 12.185 0 0 0-2.869 1.213A11.95 11.95 0 0 0 1.643 5.95 12.25 12.25 0 0 0 .43 8.82 11.71 11.71 0 0 0 0 12c0 1.1.144 2.16.431 3.181a12.184 12.184 0 0 0 1.213 2.87 11.978 11.978 0 0 0 4.305 4.306c.89.52 1.847.925 2.868 1.213 1.02.286 2.08.43 3.18.43s2.16-.144 3.18-.431a12.182 12.182 0 0 0 2.869-1.213 11.947 11.947 0 0 0 4.305-4.307 12.25 12.25 0 0 0 1.212-2.868c.287-1.02.43-2.08.43-3.181 0-1.1-.143-2.16-.43-3.181z" fill="#333"/>
    <path d="M22.39 11.989c0-.896-.113-1.775-.34-2.639-.011-.043-.03-.084-.043-.127l-.015.003c-.25-.88-.598-1.703-1.046-2.471-.074-.128-.167-.243-.246-.366a10.329 10.329 0 0 0-.843-1.133l-.127-.144c-.137-.154-.261-.317-.408-.464-.152-.152-.32-.281-.48-.422l-.09-.08a10.16 10.16 0 0 0-1.009-.768c-.029-.02-.057-.04-.087-.058-.148-.098-.287-.207-.44-.297-.039-.023-.082-.039-.12-.06l-.01.012A10.66 10.66 0 0 0 14.6 1.967a10.35 10.35 0 0 0-5.275 0c-.043.012-.084.031-.127.043l.003.015c-.88.25-1.703.599-2.471 1.046-.128.075-.242.168-.367.247a10.342 10.342 0 0 0-1.131.844l-.144.126c-.154.137-.317.262-.464.409-.151.151-.28.32-.422.48l-.08.09c-.276.32-.532.656-.767 1.008l-.06.088c-.096.148-.206.287-.296.44-.022.039-.038.08-.06.12l.013.009a10.667 10.667 0 0 0-1.008 2.487 10.375 10.375 0 0 0 0 5.277c.012.044.031.085.043.128l.015-.003c.25.88.599 1.703 1.046 2.472.075.128.167.242.247.367.058.091.12.18.181.27.206.298.426.586.662.861.04.048.084.096.126.144.138.155.262.318.409.465.151.151.32.28.48.422l.09.08c.32.276.657.533 1.008.768l.087.059c.149.096.287.207.44.296.04.022.081.038.12.06l.01-.013c.798.446 1.627.782 2.487 1.008a10.35 10.35 0 0 0 5.275 0c.044-.011.085-.03.128-.043l-.003-.015a10.68 10.68 0 0 0 2.471-1.046c.128-.075.242-.167.367-.247.091-.058.18-.12.27-.181.298-.206.586-.426.861-.662.048-.04.096-.084.144-.126.154-.138.317-.262.464-.41.152-.15.281-.32.422-.48l.08-.09c.276-.32.533-.656.768-1.008.02-.03.04-.058.058-.088.097-.148.207-.286.296-.44.023-.039.038-.08.06-.12l-.012-.009a10.67 10.67 0 0 0 1.007-2.488c.227-.864.34-1.743.34-2.638z" fill="#fff"/>
    <path d="M20.405 9.715a8.975 8.975 0 0 0-.88-2.082 8.695 8.695 0 0 0-3.13-3.13 8.935 8.935 0 0 0-2.08-.882 8.458 8.458 0 0 0-2.317-.314 8.48 8.48 0 0 0-2.317.314 8.907 8.907 0 0 0-2.081.881 8.717 8.717 0 0 0-3.13 3.13 8.964 8.964 0 0 0-.88 2.083 8.46 8.46 0 0 0-.315 2.317 8.5 8.5 0 0 0 .314 2.318c.19.672.46 1.3.788 1.894l1.886-1.3a6.5 6.5 0 1 1 11.456.107l1.856 1.28c.35-.62.631-1.278.83-1.981.21-.741.314-1.514.314-2.318s-.104-1.576-.314-2.317z" fill="#52A35F"/>
    <path d="M20.72 12.032c0-.804-.106-1.576-.315-2.317a8.943 8.943 0 0 0-.88-2.082c-.04-.068-.09-.128-.131-.195L17.57 8.56c.597.983.947 2.133.947 3.367 0 1.132-.29 2.196-.8 3.123l1.857 1.28c.35-.618.63-1.277.83-1.98a8.402 8.402 0 0 0 .315-2.318z" fill="#CD4A45"/>
    <path d="M12.807 5.478c.051.006.102.015.153.023a6.45 6.45 0 0 1 2.942 1.222h.001l.047.035c.166.127.326.26.478.402l.002.002c.148.136.29.28.423.43a6.516 6.516 0 0 1 .723.977h.002l1.81-1.14a8.753 8.753 0 0 0-1.226-1.564 8.695 8.695 0 0 0-3.848-2.243 8.458 8.458 0 0 0-2.317-.315s-.038 2.118.02 2.118c.269 0 .53.021.79.053z" fill="#FA9D2D"/>
    <path d="M17.371 6.517l-1.246-.988-3.295 4.108.013.012a2.307 2.307 0 0 0-1.071-.127 2.342 2.342 0 0 0-.91.295 2.41 2.41 0 0 0-.698.597 2.41 2.41 0 0 0 .393 3.377 2.396 2.396 0 0 0 1.77.499 2.41 2.41 0 0 0 1.608-.892 2.409 2.409 0 0 0 .498-1.77 2.31 2.31 0 0 0-.37-1.014l.015.011 3.293-4.108z" fill="#333"/>
</svg>
