<svg width="24" height="24" fill="none" xmlns="http://www.w3.org/2000/svg">
    <path d="M18.594 15.51L4.89 23.5l17.743-1.182L24 4.75l-5.406 10.76z" fill="url(#paint0_linear)"/>
    <path d="M22.663 22.306L21.138 11.97l-4.154 5.386 5.679 4.949z" fill="url(#paint1_linear)"/>
    <path d="M22.683 22.306l-11.172-.861-6.56 2.033 17.732-1.172z" fill="url(#paint2_linear)"/>
    <path d="M4.966 23.48l2.791-8.978-6.141 1.29 3.35 7.688z" fill="url(#paint3_linear)"/>
    <path d="M16.983 17.386L14.415 7.51l-7.35 6.764 9.918 3.113z" fill="url(#paint4_linear)"/>
    <path d="M23.417 7.649L16.47 2.078l-1.934 6.14 8.881-.57z" fill="url(#paint5_linear)"/>
    <path d="M20.169.092l-4.086 2.217L13.505.062l6.664.03z" fill="url(#paint6_linear)"/>
    <path d="M0 18.803l1.712-3.065-1.385-3.652L0 18.803z" fill="url(#paint7_linear)"/>
    <path d="M.235 11.971l1.393 3.88 6.053-1.333 6.91-6.307 1.95-6.082L13.472 0l-5.22 1.918C6.606 3.421 3.415 6.393 3.3 6.448c-.114.058-2.108 3.758-3.064 5.523z" fill="#fff"/>
    <path d="M5.126 5.001c3.565-3.47 8.161-5.52 9.925-3.774 1.763 1.748-.107 5.994-3.672 9.463-3.565 3.47-8.104 5.633-9.866 3.886C-.251 12.83 1.56 8.47 5.126 5z" fill="url(#paint8_linear)"/>
    <path d="M4.966 23.476l2.77-9.006 9.196 2.901c-3.325 3.062-7.023 5.65-11.966 6.105z" fill="url(#paint9_linear)"/>
    <path d="M14.604 8.194l2.36 9.182c2.778-2.868 5.271-5.95 6.492-9.764l-8.852.582z" fill="url(#paint10_linear)"/>
    <path d="M23.432 7.658c.945-2.8 1.163-6.816-3.292-7.562L16.484 2.08l6.948 5.58z" fill="url(#paint11_linear)"/>
    <path d="M0 18.763c.13 4.62 3.526 4.69 4.973 4.73l-3.341-7.661L0 18.762z" fill="#9E1209"/>
    <path d="M14.617 8.208c2.134 1.288 6.436 3.875 6.523 3.922.136.075 1.855-2.846 2.245-4.497l-8.768.575z" fill="url(#paint12_radial)"/>
    <path d="M7.732 14.47l3.702 7.013c2.189-1.166 3.903-2.586 5.473-4.107L7.732 14.47z" fill="url(#paint13_radial)"/>
    <path d="M1.617 15.841l-.524 6.133c.99 1.327 2.35 1.443 3.779 1.34-1.033-2.526-3.097-7.575-3.255-7.473z" fill="url(#paint14_linear)"/>
    <path d="M16.462 2.095l7.354 1.013C23.424 1.475 22.218.421 20.164.092l-3.702 2.003z" fill="url(#paint15_linear)"/>
    <defs>
        <linearGradient id="paint0_linear" x1="21.086" y1="25.637" x2="16.167" y2="16.78" gradientUnits="userSpaceOnUse">
            <stop stop-color="#FB7655"/>
            <stop offset=".41" stop-color="#E42B1E"/>
            <stop offset=".99" stop-color="#900"/>
            <stop offset="1" stop-color="#900"/>
        </linearGradient>
        <linearGradient id="paint1_linear" x1="23.608" y1="18.264" x2="16.509" y2="16.852" gradientUnits="userSpaceOnUse">
            <stop stop-color="#871101"/>
            <stop offset=".99" stop-color="#911209"/>
            <stop offset="1" stop-color="#911209"/>
        </linearGradient>
        <linearGradient id="paint2_linear" x1="18.387" y1="25.903" x2="18.299" y2="21.476" gradientUnits="userSpaceOnUse">
            <stop stop-color="#871101"/>
            <stop offset=".99" stop-color="#911209"/>
            <stop offset="1" stop-color="#911209"/>
        </linearGradient>
        <linearGradient id="paint3_linear" x1="4.687" y1="15.152" x2="6.733" y2="21.261" gradientUnits="userSpaceOnUse">
            <stop stop-color="#fff"/>
            <stop offset=".23" stop-color="#E57252"/>
            <stop offset=".46" stop-color="#DE3B20"/>
            <stop offset=".99" stop-color="#A60003"/>
            <stop offset="1" stop-color="#A60003"/>
        </linearGradient>
        <linearGradient id="paint4_linear" x1="11.645" y1="9.124" x2="12.014" y2="15.712" gradientUnits="userSpaceOnUse">
            <stop stop-color="#fff"/>
            <stop offset=".23" stop-color="#E4714E"/>
            <stop offset=".56" stop-color="#BE1A0D"/>
            <stop offset=".99" stop-color="#A80D00"/>
            <stop offset="1" stop-color="#A80D00"/>
        </linearGradient>
        <linearGradient id="paint5_linear" x1="17.819" y1="3.035" x2="18.36" y2="7.821" gradientUnits="userSpaceOnUse">
            <stop stop-color="#fff"/>
            <stop offset=".18" stop-color="#E46342"/>
            <stop offset=".4" stop-color="#C82410"/>
            <stop offset=".99" stop-color="#A80D00"/>
            <stop offset="1" stop-color="#A80D00"/>
        </linearGradient>
        <linearGradient id="paint6_linear" x1="14.412" y1="1.373" x2="15.175" y2="-1.924" gradientUnits="userSpaceOnUse">
            <stop stop-color="#fff"/>
            <stop offset=".54" stop-color="#C81F11"/>
            <stop offset=".99" stop-color="#BF0905"/>
            <stop offset="1" stop-color="#BF0905"/>
        </linearGradient>
        <linearGradient id="paint7_linear" x1=".473" y1="13.506" x2="2.518" y2="14.812" gradientUnits="userSpaceOnUse">
            <stop stop-color="#fff"/>
            <stop offset=".31" stop-color="#DE4024"/>
            <stop offset=".99" stop-color="#BF190B"/>
            <stop offset="1" stop-color="#BF190B"/>
        </linearGradient>
        <linearGradient id="paint8_linear" x1="-2.248" y1="18.448" x2="15.978" y2="-.693" gradientUnits="userSpaceOnUse">
            <stop stop-color="#BD0012"/>
            <stop offset=".07" stop-color="#fff"/>
            <stop offset=".17" stop-color="#fff"/>
            <stop offset=".27" stop-color="#C82F1C"/>
            <stop offset=".33" stop-color="#820C01"/>
            <stop offset=".46" stop-color="#A31601"/>
            <stop offset=".72" stop-color="#B31301"/>
            <stop offset=".99" stop-color="#E82609"/>
            <stop offset="1" stop-color="#E82609"/>
        </linearGradient>
        <linearGradient id="paint9_linear" x1="12.001" y1="20.343" x2="6.774" y2="18.107" gradientUnits="userSpaceOnUse">
            <stop stop-color="#8C0C01"/>
            <stop offset=".54" stop-color="#990C00"/>
            <stop offset=".99" stop-color="#A80D0E"/>
            <stop offset="1" stop-color="#A80D0E"/>
        </linearGradient>
        <linearGradient id="paint10_linear" x1="21.625" y1="13.739" x2="16.277" y2="9.871" gradientUnits="userSpaceOnUse">
            <stop stop-color="#7E110B"/>
            <stop offset=".99" stop-color="#9E0C00"/>
            <stop offset="1" stop-color="#9E0C00"/>
        </linearGradient>
        <linearGradient id="paint11_linear" x1="23.454" y1="5.701" x2="20.955" y2="3.118" gradientUnits="userSpaceOnUse">
            <stop stop-color="#79130D"/>
            <stop offset=".99" stop-color="#9E120B"/>
            <stop offset="1" stop-color="#9E120B"/>
        </linearGradient>
        <radialGradient id="paint12_radial" cx="0" cy="0" r="1" gradientUnits="userSpaceOnUse" gradientTransform="matrix(6.10002 0 0 3.12973 17.423 9.442)">
            <stop stop-color="#A80D00"/>
            <stop offset=".99" stop-color="#7E0E08"/>
            <stop offset="1" stop-color="#7E0E08"/>
        </radialGradient>
        <radialGradient id="paint13_radial" cx="0" cy="0" r="1" gradientUnits="userSpaceOnUse" gradientTransform="matrix(8.10904 0 0 6.19818 8.975 17.336)">
            <stop stop-color="#A30C00"/>
            <stop offset=".99" stop-color="#800E08"/>
            <stop offset="1" stop-color="#800E08"/>
        </radialGradient>
        <linearGradient id="paint14_linear" x1="3.231" y1="23.471" x2="-1.267" y2="19.669" gradientUnits="userSpaceOnUse">
            <stop stop-color="#8B2114"/>
            <stop offset=".43" stop-color="#9E100A"/>
            <stop offset=".99" stop-color="#B3100C"/>
            <stop offset="1" stop-color="#B3100C"/>
        </linearGradient>
        <linearGradient id="paint15_linear" x1="18.732" y1="1.166" x2="19.988" y2="4.4" gradientUnits="userSpaceOnUse">
            <stop stop-color="#B31000"/>
            <stop offset=".44" stop-color="#910F08"/>
            <stop offset=".99" stop-color="#791C12"/>
            <stop offset="1" stop-color="#791C12"/>
        </linearGradient>
    </defs>
</svg>
