<svg width="24" height="24" fill="none" xmlns="http://www.w3.org/2000/svg">
    <path d="M3.467 18.885a.996.996 0 0 1-1.035.164l-1.816-.76A1.006 1.006 0 0 1 0 17.36V6.639c0-.406.243-.772.616-.928l1.816-.76a.997.997 0 0 1 1.035.164l.408.351A.553.553 0 0 0 3 5.92v12.162c0 .452.509.715.875.452l-.408.352z" fill="#52218A"/>
    <path d="M.616 18.289A1.006 1.006 0 0 1 0 17.36v-.084c0 .532.651.784 1.006.39L16.5.44a1.489 1.489 0 0 1 1.705-.29l4.945 2.393c.52.251.85.78.85 1.359v.058c0-.803-.93-1.245-1.547-.736L3.875 18.533l-.408.352a.996.996 0 0 1-1.035.164l-1.816-.76z" fill="#6C33AF"/>
    <path d="M.616 5.711A1.006 1.006 0 0 0 0 6.64v.084a.577.577 0 0 1 1.006-.39L16.5 23.56a1.489 1.489 0 0 0 1.705.291l4.945-2.393c.52-.25.85-.78.85-1.358v-.058c0 .803-.93 1.245-1.547.736L3.875 5.467l-.408-.352a.996.996 0 0 0-1.035-.164l-1.816.76z" fill="#854CC7"/>
    <path d="M18.206 23.851a1.49 1.49 0 0 1-1.706-.291c.554.556 1.5.162 1.5-.625V1.065c0-.787-.946-1.181-1.5-.625a1.49 1.49 0 0 1 1.706-.29l4.944 2.39c.52.25.85.779.85 1.359v16.205c0 .58-.33 1.107-.85 1.359l-4.944 2.39z" fill="#B179F1"/>
    <path opacity=".25" fill-rule="evenodd" clip-rule="evenodd" d="M17.223 23.962c.323.074.67.04.983-.11l4.944-2.39c.52-.252.85-.78.85-1.36V3.897c0-.58-.33-1.107-.85-1.359L18.205.148A1.485 1.485 0 0 0 16.5.442L8.53 9.3 3.874 5.467l-.408-.352a.996.996 0 0 0-1.035-.164l-1.816.76A1.005 1.005 0 0 0 0 6.639V17.36l.003.076c.028.375.263.705.613.852l1.816.76a.995.995 0 0 0 1.035-.165l.408-.35 4.654-3.836 7.971 8.861c.203.206.455.342.723.404zM18 6.892L11.803 12 18 17.107V6.893zM3 8.55L6.102 12 3 15.45v-6.9z" fill="url(#paint0_linear)"/>
    <defs>
        <linearGradient id="paint0_linear" x1="12" y1="0" x2="12" y2="24" gradientUnits="userSpaceOnUse">
            <stop stop-color="#fff"/>
            <stop offset="1" stop-color="#fff" stop-opacity="0"/>
        </linearGradient>
    </defs>
</svg>
