<?xml version="1.0" encoding="UTF-8" standalone="no"?>
<!-- Created with Inkscape (http://www.inkscape.org/) -->

<svg
   xmlns:dc="http://purl.org/dc/elements/1.1/"
   xmlns:cc="http://creativecommons.org/ns#"
   xmlns:rdf="http://www.w3.org/1999/02/22-rdf-syntax-ns#"
   xmlns:svg="http://www.w3.org/2000/svg"
   xmlns="http://www.w3.org/2000/svg"
   xmlns:sodipodi="http://sodipodi.sourceforge.net/DTD/sodipodi-0.dtd"
   xmlns:inkscape="http://www.inkscape.org/namespaces/inkscape"
   width="1024"
   height="1024"
   viewBox="0 0 1024 1024"
   id="svg2"
   version="1.1"
   inkscape:version="0.91 r13725"
   sodipodi:docname="icon.svg"
   inkscape:export-filename="C:\Users\Jamie\Sources\vso-agent-tasks\Tasks\XamarinLicense\icon.png"
   inkscape:export-xdpi="2.8125"
   inkscape:export-ydpi="2.8125">
  <defs
     id="defs4">
    <pattern
       y="0"
       x="0"
       height="6"
       width="6"
       patternUnits="userSpaceOnUse"
       id="EMFhbasepattern" />
    <pattern
       y="0"
       x="0"
       height="6"
       width="6"
       patternUnits="userSpaceOnUse"
       id="EMFhbasepattern-4" />
    <pattern
       y="0"
       x="0"
       height="6"
       width="6"
       patternUnits="userSpaceOnUse"
       id="EMFhbasepattern-0" />
    <pattern
       y="0"
       x="0"
       height="6"
       width="6"
       patternUnits="userSpaceOnUse"
       id="EMFhbasepattern-6" />
  </defs>
  <sodipodi:namedview
     id="base"
     pagecolor="#ffffff"
     bordercolor="#666666"
     borderopacity="1.0"
     inkscape:pageopacity="0.0"
     inkscape:pageshadow="2"
     inkscape:zoom="0.7"
     inkscape:cx="303.79693"
     inkscape:cy="269.97925"
     inkscape:document-units="px"
     inkscape:current-layer="layer1"
     showgrid="true"
     units="px"
     inkscape:snap-bbox="true"
     inkscape:bbox-nodes="true"
     inkscape:window-width="3440"
     inkscape:window-height="1377"
     inkscape:window-x="-8"
     inkscape:window-y="-8"
     inkscape:window-maximized="1">
    <inkscape:grid
       type="xygrid"
       id="grid4136"
       spacingx="16"
       spacingy="16"
       empspacing="4" />
  </sodipodi:namedview>
  <metadata
     id="metadata7">
    <rdf:RDF>
      <cc:Work
         rdf:about="">
        <dc:format>image/svg+xml</dc:format>
        <dc:type
           rdf:resource="http://purl.org/dc/dcmitype/StillImage" />
        <dc:title></dc:title>
      </cc:Work>
    </rdf:RDF>
  </metadata>
  <g
     inkscape:label="Layer 1"
     inkscape:groupmode="layer"
     id="layer1"
     transform="translate(0,-28.362251)">
    <path
       style="fill:#3498db;fill-opacity:1;fill-rule:evenodd;stroke:none"
       d="M 298.99609 64 C 271.51238 64 246.77506 80.448808 233.0332 105.23633 L 18.654297 473.51367 C 4.9086586 498.26338 4.9086586 528.49575 18.654297 553.22656 L 233.0332 921.50391 C 246.77884 946.25361 271.51238 960 298.99609 960 L 637.0918 960 L 672 896 L 624 896 L 623.72656 895.72656 A 136 136 0 0 1 616 896 A 136 136 0 0 1 480 760 A 136 136 0 0 1 526.21484 658.07617 A 104 104 0 0 1 526 652 A 104 104 0 0 1 550.75977 584.81836 L 513.37695 517.53125 L 513.37695 514.88281 L 510.63477 517.53125 L 386.95312 740.14453 C 384.21157 742.79156 381.45055 745.62891 378.70898 745.62891 L 304.5 745.62891 C 298.99797 745.62891 293.5143 737.30985 296.25586 729.17969 L 417.1875 512.06641 L 296.25586 294.93359 C 293.5145 289.45086 296.25583 283.96909 304.49805 281.13281 L 304.5 281.13281 L 378.70703 281.13281 C 381.44859 281.13281 384.20961 283.77913 386.95117 286.61523 L 510.63281 509.23047 C 510.63281 509.23047 513.375 509.22992 513.375 511.87695 L 513.375 509.23047 L 637.05273 286.61523 C 639.7943 283.9682 642.5553 281.13281 645.29688 281.13281 L 719.50391 281.13281 C 725.00595 281.13281 730.48962 289.45046 727.74805 294.93359 L 606.81836 512.06641 L 626.91992 548.1543 A 104 104 0 0 1 630 548 A 104 104 0 0 1 661.57617 552.95117 A 184 184 0 0 1 808 480 A 184 184 0 0 1 979.56836 598.08398 L 1005.3457 553.22656 C 1019.0913 528.49575 1019.0913 498.26338 1005.3457 473.51367 L 793.7168 105.23633 C 779.97117 80.486618 752.48951 64 725.00391 64 L 298.99609 64 z M 731.66602 831.21289 A 136 136 0 0 1 731.18359 832 L 733.29492 832 A 184 184 0 0 1 731.66602 831.21289 z "
       transform="translate(0,28.362251)"
       id="path4220" />
    <path
       inkscape:connector-curvature="0"
       id="path6057"
       d="m 638.9456,1035.6053 c 6.8343,-10.8195 30.7927,-48.48678 53.2409,-83.70523 22.4483,-35.21842 40.8151,-64.49666 40.8151,-65.06278 0,-0.56609 -16.0092,-1.25865 -35.5759,-1.53897 l -35.5759,-0.50973 94.6118,-85.24422 C 873.5117,694.08336 873.055,694.48299 869.8634,700.31842 c -1.3881,2.53782 -20.6039,35.61037 -42.7019,73.49454 -22.0979,37.88418 -40.1781,69.8426 -40.1781,71.01874 0,1.56752 9.624,1.82737 36.0488,0.97332 l 36.0487,-1.16509 -6.6478,6.2176 c -5.0771,4.74844 -122.8998,111.36745 -218.4606,197.68747 -7.2329,6.5334 -7.0861,6.1517 4.9731,-12.9397 z M 596.1191,883.63766 c -16.48076,-2.56398 -40.90843,-15.18389 -53.98191,-27.88831 -23.84409,-23.17097 -34.82675,-57.74991 -28.26453,-88.99122 5.38973,-25.65947 21.00627,-49.84801 40.61052,-62.90184 l 6.74251,-4.48961 -1.12315,-14.15337 c -2.09616,-26.41487 8.98207,-49.56374 30.35746,-63.43475 24.0863,-15.63018 50.4713,-15.25237 81.0387,1.16043 0.6351,0.341 4.5392,-5.07455 8.6757,-12.03453 9.0659,-15.25384 34.3753,-40.31632 49.5054,-49.02213 26.1519,-15.04791 50.1693,-21.4733 80.4387,-21.51985 33.7883,-0.0519 62.2202,8.70816 89.3406,27.52673 37.5818,26.07776 62.9654,73.40527 62.9654,117.39901 l 0,10.93869 11.0856,6.12877 c 22.5603,12.47278 41.1944,36.02918 47.9807,60.65545 3.5359,12.83079 3.2982,37.40385 -0.4815,49.77607 -11.1903,36.6306 -39.5046,62.44391 -76.9001,70.10743 -9.4645,1.93958 -25.5882,2.75926 -53.9818,2.74424 l -40.4864,-0.0214 14.8065,-13.52893 c 8.1436,-7.44092 15.7348,-15.37046 16.8693,-17.62116 3.0025,-5.95634 2.5266,-15.17516 -1.0903,-21.12542 -5.4334,-8.93812 -13.3419,-12.09527 -32.965,-13.15994 l -17.8029,-0.96596 34.6722,-59.55487 c 36.6445,-62.94258 38.044,-66.37662 31.8188,-78.07495 -4.604,-8.65188 -12.0146,-13.18687 -21.5487,-13.18687 -7.2443,0 -9.7601,1.14314 -17.523,7.96237 -50.1691,44.07047 -218.112,196.70472 -219.0516,199.08432 -0.6715,1.70044 -1.2209,4.70888 -1.2209,6.68546 0,3.25239 -1.4193,3.57298 -14.9414,3.37476 -8.2177,-0.12047 -19.713,-0.96137 -25.5449,-1.86867 z"
       style="fill:#424242;fill-opacity:1" />
  </g>
</svg>
