<?xml version="1.0" encoding="UTF-8" standalone="no"?>
<!-- Generated by Microsoft Visio, SVG Export icon.svg Page-1 -->

<svg
   xmlns:v="http://schemas.microsoft.com/visio/2003/SVGExtensions/"
   xmlns:dc="http://purl.org/dc/elements/1.1/"
   xmlns:cc="http://creativecommons.org/ns#"
   xmlns:rdf="http://www.w3.org/1999/02/22-rdf-syntax-ns#"
   xmlns:svg="http://www.w3.org/2000/svg"
   xmlns="http://www.w3.org/2000/svg"
   xmlns:sodipodi="http://sodipodi.sourceforge.net/DTD/sodipodi-0.dtd"
   xmlns:inkscape="http://www.inkscape.org/namespaces/inkscape"
   width="1024"
   height="1024"
   viewBox="0 0 819.19911 819.19911"
   xml:space="preserve"
   class="st4"
   id="svg2"
   version="1.1"
   inkscape:version="0.91 r13725"
   sodipodi:docname="icon.svg"
   style="font-size:12px;overflow:visible;color-interpolation-filters:sRGB;fill:none;fill-rule:evenodd;stroke-linecap:square;stroke-miterlimit:3"
   inkscape:export-filename="C:\Users\Jamie\Sources\vsts-tasks\Tasks\AzureWebPowerShellDeployment\icon.png"
   inkscape:export-xdpi="2.8099999"
   inkscape:export-ydpi="2.8099999"><metadata
     id="metadata40"><rdf:RDF><cc:Work
         rdf:about=""><dc:format>image/svg+xml</dc:format><dc:type
           rdf:resource="http://purl.org/dc/dcmitype/StillImage" /><dc:title /></cc:Work></rdf:RDF></metadata><defs
     id="defs38" /><sodipodi:namedview
     pagecolor="#ffffff"
     bordercolor="#666666"
     borderopacity="1"
     objecttolerance="10"
     gridtolerance="10"
     guidetolerance="10"
     inkscape:pageopacity="0"
     inkscape:pageshadow="2"
     inkscape:window-width="1210"
     inkscape:window-height="714"
     id="namedview36"
     showgrid="true"
     units="px"
     inkscape:snap-bbox="true"
     inkscape:bbox-nodes="true"
     inkscape:zoom="0.37332667"
     inkscape:cx="470.97113"
     inkscape:cy="433.7588"
     inkscape:window-x="829"
     inkscape:window-y="389"
     inkscape:window-maximized="0"
     inkscape:current-layer="svg2"><inkscape:grid
       type="xygrid"
       id="grid4168"
       spacingx="25.599972"
       spacingy="25.599972"
       empspacing="4" /></sodipodi:namedview><circle
     style="fill:#ffffff;fill-opacity:1;stroke:none;stroke-width:34.62200165;stroke-linecap:round;stroke-miterlimit:4;stroke-dasharray:none;stroke-opacity:1"
     id="path4139"
     cx="409.59952"
     cy="409.59952"
     r="409.59952" /><v:documentProperties
     v:langID="1033"
     v:viewMarkup="false" /><style
     type="text/css"
     id="style4"><![CDATA[
        .st1 {fill:#00bcf2;stroke:none;stroke-linecap:round;stroke-linejoin:round;stroke-width:0.75}
        .st2 {fill:#ffffff;stroke:none;stroke-linecap:butt;stroke-width:0.75}
        .st3 {stroke:#00bcf2;stroke-linecap:round;stroke-linejoin:round;stroke-width:1}
        .st4 {fill:none;fill-rule:evenodd;font-size:12px;overflow:visible;stroke-linecap:square;stroke-miterlimit:3}
    ]]></style><path
     inkscape:connector-curvature="0"
     d="M 409.59948,1.255651e-4 C 183.38397,1.255651e-4 1.0898437e-5,183.38458 1.0898437e-5,409.59959 1.0898437e-5,635.81583 183.38397,819.19906 409.59948,819.19906 635.815,819.19906 819.19905,635.81583 819.19905,409.59959 819.19905,183.38458 635.815,1.255651e-4 409.59948,1.255651e-4 Z m 0,48.1888254349 c 99.03494,0 188.46105,40.139359 253.74084,104.658419 -27.59208,-5.34988 -55.94747,-8.2818 -85.08221,-8.2818 -7.90098,0 -15.53848,-0.4096 -23.34115,0 -61.06501,3.17624 -119.19688,18.98527 -171.67042,44.42285 C 347.07415,152.56454 311.59582,113.83575 276.32906,73.789057 317.54219,57.443244 362.56737,48.188951 409.59948,48.188951 Z M 222.87033,100.14148 c 34.75384,42.2359 70.88454,81.56282 107.67042,119.71758 -38.81032,25.80111 -73.60052,57.0628 -103.15285,93.36401 -3.55654,-0.31334 -6.90246,0 -10.54114,0 -9.99538,0 -19.32514,1.47078 -28.6118,3.76474 -17.82426,-35.83898 -31.77512,-74.0694 -41.41158,-113.69369 -2.92025,-12.00691 -4.17945,-23.95362 -4.51769,-36.14106 23.53408,-25.92982 50.4402,-48.78939 80.56464,-67.01158 z m 440.46999,87.34126 c 11.27516,0.19251 22.00709,1.91734 33.12937,3.76484 46.35053,60.7662 74.54116,136.02723 74.54116,218.35201 0,37.17131 -6.14236,73.1692 -16.56464,106.91748 -22.18813,-18.11508 -44.11495,-36.6718 -66.25884,-54.96381 6.59119,-12.0189 10.54116,-25.23178 10.54116,-39.9059 0,-46.5749 -37.75538,-84.32987 -84.32926,-84.32987 -19.67074,0 -37.60844,6.78092 -51.95284,18.07052 -37.16864,-32.40878 -74.06192,-65.53846 -110.68232,-100.14012 59.04384,-32.90707 123.46808,-56.21679 190.4939,-66.25947 6.98174,-1.04713 14.11215,-1.61884 21.08231,-1.50568 z M 100.89401,222.1181 c 4.48144,28.91479 11.13774,68.46556 12.8,73.7878 5.42525,17.37011 11.45241,34.37548 18.82348,51.20031 -22.24344,21.85697 -36.141055,52.93935 -36.141055,86.58779 0,32.68803 13.500305,61.87244 34.635155,83.57652 -6.43964,31.39175 -10.54126,63.79213 -10.54126,97.12885 0,3.75276 -0.0921,7.56327 0,11.29432 -45.203041,-60.34022 -72.282107,-134.89827 -72.282107,-216.0941 0,-68.72913 19.399266,-132.77757 52.705787,-187.48149 z m 298.16431,66.25823 c 43.27015,41.40677 87.70315,80.64584 132.51748,118.96534 -0.7762,4.59531 -1.50589,9.48788 -1.50589,14.30569 0,46.57378 37.75538,84.32875 84.32936,84.32875 9.95922,0 19.742,-2.10135 28.61178,-5.27043 29.43059,23.87784 59.29555,47.88193 88.84685,71.52865 -6.47117,12.81096 -13.18686,25.0152 -21.08232,36.89452 -19.71097,3.38452 -40.05642,6.28992 -47.43526,6.77622 -41.45817,2.7309 -83.08745,-1.85478 -123.48221,-11.29319 -4.81996,-41.99525 -40.29029,-74.54125 -83.57631,-74.54125 -20.28698,0 -38.90954,6.88691 -53.45884,18.82276 -28.29097,-16.82125 -55.36953,-36.64784 -80.56453,-58.72865 9.17207,-16.99932 15.05884,-35.80048 15.05884,-56.47074 0,-27.40429 -9.43504,-52.79374 -24.84705,-73.03557 26.12399,-26.73868 55.54288,-50.55508 86.5881,-72.2821 z M 273.31727,539.1059 c 30.31644,26.81926 63.9399,49.79086 99.38811,69.26949 -0.14439,1.99557 -0.75264,3.99228 -0.75264,6.02398 0,46.57368 37.75538,84.32988 84.32937,84.32988 28.53243,0 54.01077,-14.45498 69.27041,-36.14217 35.21956,5.99859 71.74288,8.04464 108.42337,5.27165 11.0378,-0.83046 21.69784,-2.27 32.37652,-4.51829 -65.51766,66.28956 -156.18558,107.67102 -256.75262,107.67102 -86.94926,0 -166.53916,-30.9127 -228.89379,-82.07093 -6.38955,-15.58272 -12.74778,-31.52649 -12.04715,-38.40009 3.4304,-33.65693 11.82473,-67.12607 23.34116,-99.38791 8.06461,1.70066 16.27617,3.01128 24.84705,3.01128 20.60892,0 39.50765,-5.93725 56.47052,-15.05791 z"
     id="path7047"
     style="fill:#00bcf2;fill-opacity:1" /></svg>