<svg width="24" height="24" fill="none" xmlns="http://www.w3.org/2000/svg">
    <path d="M18.002.014L5.296 0v20.57s15.872.121 16.918-.032V3.905L18.002.015zm2.62 18.979L6.887 18.98V1.588h9.81l3.923 3.423v13.982z" fill="#333"/>
    <path d="M16.699 1.589H6.888V18.98l13.733.012V5.012L16.7 1.588z" fill="#fff"/>
    <path d="M14.492 3.399L1.786 3.385v20.57s15.872.12 16.917-.032V7.29l-4.21-3.891zm2.62 18.979l-13.735-.013V4.974h9.811l3.922 3.422v13.982h.001z" fill="#333"/>
    <path d="M13.189 4.974H3.378v17.391l13.733.013V8.396L13.19 4.973z" fill="#fff"/>
    <path d="M18.477 10.085H1.892v8.87h16.585v-8.87z" fill="#333"/>
    <path d="M4.655 16.637v-.785c.07.064.155.122.252.173.098.051.201.095.31.13.109.034.218.062.327.082.109.02.21.028.301.028.321 0 .56-.053.717-.16a.529.529 0 0 0 .237-.465.51.51 0 0 0-.08-.285.847.847 0 0 0-.219-.22 2.393 2.393 0 0 0-.331-.19 23.61 23.61 0 0 0-.41-.19 7.17 7.17 0 0 1-.436-.253 1.945 1.945 0 0 1-.352-.284 1.201 1.201 0 0 1-.234-.352 1.138 1.138 0 0 1-.086-.458c0-.216.05-.404.146-.563a1.22 1.22 0 0 1 .385-.395c.16-.104.34-.18.543-.231.204-.05.411-.075.623-.075.481 0 .832.054 1.052.164v.754c-.26-.188-.597-.282-1.007-.282-.113 0-.226.011-.34.032a1.011 1.011 0 0 0-.3.106.646.646 0 0 0-.217.19.464.464 0 0 0-.083.28c0 .102.022.19.064.265a.688.688 0 0 0 .188.205c.082.063.182.123.302.182.118.058.255.122.411.19.16.084.312.172.455.264.142.091.267.193.375.305.108.11.193.235.256.37.063.136.096.29.096.464 0 .232-.048.429-.141.59-.094.16-.22.29-.38.39-.16.101-.343.175-.551.22a3.054 3.054 0 0 1-.942.05 3.548 3.548 0 0 1-.679-.133 1.223 1.223 0 0 1-.252-.113zm3.578 0v-.785c.07.064.154.122.252.173.097.051.2.095.31.13.108.034.218.062.326.082.11.02.21.028.302.028.32 0 .56-.053.717-.16a.529.529 0 0 0 .236-.465.517.517 0 0 0-.078-.285.847.847 0 0 0-.22-.22 2.391 2.391 0 0 0-.331-.19c-.128-.06-.264-.124-.41-.19a7.171 7.171 0 0 1-.436-.253 1.92 1.92 0 0 1-.352-.284 1.187 1.187 0 0 1-.234-.352 1.138 1.138 0 0 1-.085-.458c0-.216.048-.404.145-.563a1.23 1.23 0 0 1 .385-.395c.16-.104.341-.18.544-.231.203-.05.41-.075.622-.075.482 0 .832.054 1.052.164v.754c-.26-.188-.597-.282-1.007-.282-.113 0-.226.011-.339.032a1.019 1.019 0 0 0-.301.106.646.646 0 0 0-.216.19.464.464 0 0 0-.084.28c0 .102.022.19.065.265a.688.688 0 0 0 .188.205c.082.063.182.123.302.182.118.058.255.122.411.19.16.084.312.172.455.264.142.091.267.193.375.305.108.11.194.235.256.37.063.136.095.29.095.464 0 .232-.047.429-.141.59-.094.16-.221.29-.38.39-.16.101-.343.175-.55.22a3.055 3.055 0 0 1-.943.05 3.548 3.548 0 0 1-.679-.133 1.196 1.196 0 0 1-.252-.113zm7.484.183h-.767v-1.996h-2.165v1.996h-.763v-4.6h.763v1.935h2.165V12.22h.767v4.6z" fill="#fff"/>
</svg>
