<svg width="24" height="24" fill="none" xmlns="http://www.w3.org/2000/svg">
    <path d="M22.727 5.174H1.551v16.5h21.176v-16.5zm-.75-.674H.801v.213h21.176V4.5zm1.412 0v17.25h.05V4.5h-.05z" fill="#fff"/>
    <path d="M0 1.5v21h24v-21H0zm1.411 1.412h21.177V4.5H1.41V2.912zm21.177 18.177H1.412V5.912h21.177V21.09z" fill="#333"/>
    <path d="M22.588 2.912H1.41V4.5h21.177V2.912z" fill="#666"/>
    <path d="M4.643 16.294V15.23c.096.087.21.165.341.235.133.07.273.128.42.176.148.048.296.085.444.111.147.027.284.039.409.039.434 0 .759-.072.97-.216a.717.717 0 0 0 .321-.632.69.69 0 0 0-.107-.385 1.15 1.15 0 0 0-.298-.299 3.247 3.247 0 0 0-.45-.259 42.562 42.562 0 0 0-.555-.258 9.626 9.626 0 0 1-.592-.343 2.594 2.594 0 0 1-.476-.386 1.609 1.609 0 0 1-.317-.477 1.54 1.54 0 0 1-.115-.62c0-.294.066-.547.197-.763a1.67 1.67 0 0 1 .522-.536c.216-.14.462-.244.737-.313a3.49 3.49 0 0 1 .844-.102c.653 0 1.128.073 1.427.222v1.022c-.354-.255-.809-.383-1.366-.383a2.49 2.49 0 0 0-.459.044 1.38 1.38 0 0 0-.409.143.887.887 0 0 0-.293.257.631.631 0 0 0-.113.38c0 .138.029.258.087.36a.93.93 0 0 0 .255.277c.11.085.247.167.409.246.16.08.346.165.558.26.218.112.423.232.616.356.193.125.362.262.508.414.147.15.263.318.349.502.085.184.129.393.129.628 0 .316-.064.582-.192.8a1.536 1.536 0 0 1-.515.53 2.257 2.257 0 0 1-.746.296 4.12 4.12 0 0 1-.892.092 3.84 3.84 0 0 1-.386-.024 6.131 6.131 0 0 1-.467-.07c-.16-.03-.31-.068-.452-.11a1.455 1.455 0 0 1-.343-.149zm4.85 0V15.23c.096.087.209.165.341.235.132.07.272.128.42.176.148.048.296.085.443.111.148.027.285.039.409.039.435 0 .759-.072.972-.216.214-.146.32-.356.32-.632a.696.696 0 0 0-.105-.385 1.148 1.148 0 0 0-.299-.299 3.247 3.247 0 0 0-.45-.259 42.258 42.258 0 0 0-.555-.258 9.624 9.624 0 0 1-.592-.343 2.568 2.568 0 0 1-.476-.386 1.6 1.6 0 0 1-.317-.477 1.54 1.54 0 0 1-.116-.62c0-.294.066-.547.198-.763a1.67 1.67 0 0 1 .521-.536c.216-.14.462-.244.738-.313a3.49 3.49 0 0 1 .844-.102c.652 0 1.127.073 1.426.222v1.022c-.353-.255-.809-.383-1.366-.383-.154 0-.306.015-.459.044a1.38 1.38 0 0 0-.409.143.887.887 0 0 0-.293.257.631.631 0 0 0-.113.38c0 .138.03.258.087.36a.93.93 0 0 0 .255.277c.111.085.248.167.409.246.16.08.346.165.558.26.218.112.423.232.616.356.193.125.363.262.509.414.147.15.263.318.348.502.085.184.128.393.128.628 0 .316-.064.582-.191.8-.128.217-.3.394-.516.53a2.258 2.258 0 0 1-.746.296 4.121 4.121 0 0 1-.892.092 3.67 3.67 0 0 1-.385-.024 6.126 6.126 0 0 1-.467-.07c-.16-.03-.31-.068-.452-.11a1.441 1.441 0 0 1-.343-.149zm10.146.249h-1.04v-2.705h-2.935v2.705h-1.035v-6.236h1.035v2.622h2.935v-2.622h1.04v6.236z" fill="#333"/>
    <path d="M4.643 16.294V15.23c.096.087.21.165.341.235.133.07.273.128.42.176.148.048.296.085.444.111.147.027.284.039.409.039.434 0 .759-.072.97-.216a.717.717 0 0 0 .321-.632.69.69 0 0 0-.107-.385 1.15 1.15 0 0 0-.298-.299 3.247 3.247 0 0 0-.45-.259 42.562 42.562 0 0 0-.555-.258 9.626 9.626 0 0 1-.592-.343 2.594 2.594 0 0 1-.476-.386 1.609 1.609 0 0 1-.317-.477 1.54 1.54 0 0 1-.115-.62c0-.294.066-.547.197-.763a1.67 1.67 0 0 1 .522-.536c.216-.14.462-.244.737-.313a3.49 3.49 0 0 1 .844-.102c.653 0 1.128.073 1.427.222v1.022c-.354-.255-.809-.383-1.366-.383a2.49 2.49 0 0 0-.459.044 1.38 1.38 0 0 0-.409.143.887.887 0 0 0-.293.257.631.631 0 0 0-.113.38c0 .138.029.258.087.36a.93.93 0 0 0 .255.277c.11.085.247.167.409.246.16.08.346.165.558.26.218.112.423.232.616.356.193.125.362.262.508.414.147.15.263.318.349.502.085.184.129.393.129.628 0 .316-.064.582-.192.8a1.536 1.536 0 0 1-.515.53 2.257 2.257 0 0 1-.746.296 4.12 4.12 0 0 1-.892.092 3.84 3.84 0 0 1-.386-.024 6.131 6.131 0 0 1-.467-.07c-.16-.03-.31-.068-.452-.11a1.455 1.455 0 0 1-.343-.149zm4.85 0V15.23c.096.087.209.165.341.235.132.07.272.128.42.176.148.048.296.085.443.111.148.027.285.039.409.039.435 0 .759-.072.972-.216.214-.146.32-.356.32-.632a.696.696 0 0 0-.105-.385 1.148 1.148 0 0 0-.299-.299 3.247 3.247 0 0 0-.45-.259 42.258 42.258 0 0 0-.555-.258 9.624 9.624 0 0 1-.592-.343 2.568 2.568 0 0 1-.476-.386 1.6 1.6 0 0 1-.317-.477 1.54 1.54 0 0 1-.116-.62c0-.294.066-.547.198-.763a1.67 1.67 0 0 1 .521-.536c.216-.14.462-.244.738-.313a3.49 3.49 0 0 1 .844-.102c.652 0 1.127.073 1.426.222v1.022c-.353-.255-.809-.383-1.366-.383-.154 0-.306.015-.459.044a1.38 1.38 0 0 0-.409.143.887.887 0 0 0-.293.257.631.631 0 0 0-.113.38c0 .138.03.258.087.36a.93.93 0 0 0 .255.277c.111.085.248.167.409.246.16.08.346.165.558.26.218.112.423.232.616.356.193.125.363.262.509.414.147.15.263.318.348.502.085.184.128.393.128.628 0 .316-.064.582-.191.8-.128.217-.3.394-.516.53a2.258 2.258 0 0 1-.746.296 4.121 4.121 0 0 1-.892.092 3.67 3.67 0 0 1-.385-.024 6.126 6.126 0 0 1-.467-.07c-.16-.03-.31-.068-.452-.11a1.441 1.441 0 0 1-.343-.149zm10.146.249h-1.04v-2.705h-2.935v2.705h-1.035v-6.236h1.035v2.622h2.935v-2.622h1.04v6.236z" fill="#333"/>
</svg>
