<?xml version="1.0" encoding="utf-8"?>
<!-- Generator: Adobe Illustrator 16.2.1, SVG Export Plug-In . SVG Version: 6.00 Build 0)  -->
<!DOCTYPE svg PUBLIC "-//W3C//DTD SVG 1.1//EN" "http://www.w3.org/Graphics/SVG/1.1/DTD/svg11.dtd">
<svg version="1.1" id="Cake_Icon" xmlns="http://www.w3.org/2000/svg" xmlns:xlink="http://www.w3.org/1999/xlink" x="0px" y="0px"
	 width="1000px" height="1000px" viewBox="0 0 1000 1000" enable-background="new 0 0 1000 1000" xml:space="preserve">
<g>
	<path fill="#4A1700" stroke="#000000" stroke-miterlimit="10" d="M65.5,404.286l353.646-276.458l5.97-0.903
		c18.592-2.81,39.458-4.235,62.02-4.235c72.207,0,153.01,14.548,221.691,39.914c85.184,31.461,150.154,78.404,187.887,135.754
		l3.786,5.753v183.611c0,14.034-1.893,24.117-6.135,32.693c-3.512,7.099-8.566,12.762-14.865,16.725v264.121L65.5,925.27V404.286z"
		/>
	<g id="Cake">
		<polygon fill="#995700" points="88,553.789 853,437.246 853,780.211 88,896.754 		"/>
		<path fill="#995700" d="M851,439v339.923L89,895.009V555.077l762-116.085 M854,435.5l-768,117v346l768-117V435.5L854,435.5z"/>
	</g>
</g>
<g id="Monkey_Wrench">
	<polygon id="Spanner_Shadow" fill="#4A1700" points="507,478.029 507,833.055 671,808.19 671,453.403 	"/>
	<path fill="#4A1700" d="M507.978,833.055l192.986,114.852c0,0,78.438,38.367,139.258,40.288
		c60.819,1.921,62.982-57.01,62.982-57.01l-215.292-125.59L507.978,833.055z"/>
	<path fill="#4A1700" d="M840.222,988.194c-19.146,0-40.486-4.136-58.551-11.347c-22.421-8.95-38.312-21.885-45.954-37.405
		C635.019,735.63,465.806,393.015,464.049,388.56c-4.425-11.216-12.237-24.734-16.103-31.167
		c-9.603-4.909-34.374-17.67-59.42-31.376c-68.542-37.51-72.629-45.302-75.432-50.992L292,233.325v-23.153v-18.899l19.868-2.768
		l2.126-0.282l-12.417-70.317l-0.375-52.351l0.092-0.008c-0.614-16.864,11.892-19.517,14.493-19.884
		c4.758-0.671,30.336-3.682,31.422-3.81l11.525-1.356l65.111,132.246l52.202-7.366l-35.792-90.18l-0.513-47.618l56.56-7.285
		c1.151-0.163,2.325-0.245,3.486-0.245c8.072,0,14.813,3.951,18.969,8.14l146.39,115.527l0.699,0.704
		c8.868,8.931,15.67,23.518,17.302,27.179L707,221.668v37.829l-4.457,4.744c-1.796,1.903-39.888,42.231-68.498,68.176
		c55.914,108.956,277.49,540.186,279.812,544.702l0.13,0.253c2.459,4.996,4.126,10.148,4.976,15.368l0.857,1.353l-0.205,38.398
		l-0.186,1.205c-2.04,13.176-8.683,25.075-19.212,34.411c-11.084,9.829-25.66,16.187-43.322,18.898
		C851.76,987.794,846.15,988.194,840.222,988.194z"/>
	<path fill="#534741" stroke="#4A1700" stroke-miterlimit="2" d="M690.5,223.32v29.654c0,0-68.027,72.168-90.089,85.507
		c-22.061,13.339-9.705-26.678-9.705-26.678L690.5,223.32z"/>
	<path fill="#534741" stroke="#4A1700" stroke-miterlimit="10" d="M903.204,931.185c-2.73,17.638-18.013,34.867-48.802,39.594
		c-32.621,5.012-89.387-8.996-103.957-38.588c0,0-269.355-545.17-271.125-549.655c-6.675-16.92-19.794-37.669-19.794-37.669
		s-124.709-62.975-131.662-77.095L308.5,229.45v-24.429l213.877,93.302l380.896,600.496L903.204,931.185z"/>
	<polygon fill="#534741" stroke="#4A1700" stroke-miterlimit="2" points="456.5,42.509 456.5,72.057 513.418,215.249 
		522.461,175.388 	"/>
	<polygon fill="#534741" stroke="#4A1700" stroke-miterlimit="2" points="317.65,65.427 318.046,116.31 341.343,247.5 
		349.298,247.5 347.069,200.085 	"/>
	<path fill="#736357" stroke="#4A1700" stroke-miterlimit="10" d="M468.606,326.7c0,0-133.757-68.665-140.711-82.786l-19.322-38.33
		l214.03-30.197L457.128,42.4l41.469-5.851c5.3-0.749,9.007,3.748,9.007,3.748l146.595,115.689
		c7.493,7.546,14.094,22.562,14.094,22.562s17.869,36.308,22.036,44.772c4.17,8.465-83.2,83.854-83.2,83.854
		s-2.852,2.943-0.488,7.748c2.366,4.802,292.618,569.701,292.618,569.701c14.691,29.849-14.161,57.705-44.951,62.432
		c-32.621,5.01-84.793-12.477-99.362-42.068c0,0-275.79-565.82-277.92-570.146C474.894,330.515,468.606,326.7,468.606,326.7z"/>
	<path fill="#736357" stroke="#4A1700" stroke-miterlimit="10" d="M414.368,190.658L349.132,58.157c0,0-26.418,3.109-31.044,3.762
		c-4.624,0.652,28.981,138.234,28.981,138.234L414.368,190.658z"/>
	<polygon fill="#4A1700" points="541.301,212.43 565.666,259 452.333,274 431,227.145 	"/>
	<path fill="#736357" d="M444.83,235.42l11.195-1.632c0,0,10.443,1.896,16.259,10.811c5.816,8.915,4.108,18.854,3.331,22.151
		l-11.17,1.68c1.548-4.698,3.019-14.723-2.369-21.702C457.021,240.181,444.83,235.42,444.83,235.42z"/>
	<path fill="#736357" d="M474.632,231.308l11.195-1.632c0,0,10.443,1.896,16.258,10.812c5.816,8.915,4.109,18.854,3.331,22.151
		l-11.17,1.68c1.547-4.698,3.019-14.723-2.369-21.702C486.823,236.068,474.632,231.308,474.632,231.308z"/>
	<path fill="#736357" d="M503.68,227.187l11.195-1.632c0,0,10.443,1.896,16.259,10.812c5.815,8.915,4.108,18.854,3.33,22.15
		l-11.169,1.68c1.547-4.698,3.019-14.723-2.37-21.702C515.869,231.947,503.68,227.187,503.68,227.187z"/>
</g>
<g id="Pieces_of_Icing">
	<path fill="#4A1700" d="M507.232,492.164L519,489.667V350c0,0-76.777-13.506-104.532-28.586L507.232,492.164z"/>
	<g>
		<path fill="#FFFFFF" d="M423.847,172.741l52.201-7.366l-7.672-19.331c-14.506,0.555-28.055,1.769-40.321,3.623l-11.242,8.788
			L423.847,172.741z"/>
	</g>
	<g>
		<path fill="#FFFFFF" d="M685.159,179.408L705,221.668v37.829l-3.457,4.744c-1.796,1.903-39.388,42.231-67.998,68.176
			c1.584,3.086,3.361,6.442,5.19,10.029L875.344,311C835.344,248.463,762.439,205.735,685.159,179.408z"/>
	</g>
	<path fill="#FFE05C" d="M854,435.5v85.18c18-0.68,21-16.234,21-32.957V311l-236.452,31.446
		c13.985,27.422,34.797,68.958,59.475,117.013L854,435.5z"/>
	<g>
		<path fill="#FFFFFF" d="M388.563,326.016c-68.542-37.51-72.398-45.302-75.201-50.992l-13.084-25.657L87.5,415.5l419.875-55.561
			C507.375,359.939,413.609,339.722,388.563,326.016z"/>
	</g>
	<polygon fill="#FFE05C" points="507.478,492.186 507,359.939 87,415.5 87,553 	"/>
	<path fill="#FFE05C" d="M698,459V335c0,0-41.347-24-24.158-41.654l-40.172,39.072L698,459z"/>
	<path fill="#4A1700" d="M127.211,410.373l242.898-32.17c0,0-87.104,17.633-154.274,25.914
		C184.097,408.028,127.211,410.373,127.211,410.373z"/>
	<path fill="#4A1700" d="M784.176,323.36L877.5,311l4.07,5.601C840.916,320.735,784.176,323.36,784.176,323.36z"/>
</g>
</svg>
