<svg width="48" height="48" fill="none" xmlns="http://www.w3.org/2000/svg">
    <circle cx="24" cy="27" r="21" fill="#666"/>
    <circle cx="24" cy="27" r="18" fill="#fff"/>
    <path fill="#666" d="M22 2h4v5h-4z"/>
    <path d="M19 3.2A3.2 3.2 0 0 1 22.2 0h3.6A3.2 3.2 0 0 1 29 3.2a.8.8 0 0 1-.8.8h-8.4a.8.8 0 0 1-.8-.8zm20.818 5.604l1.985 1.985-2.482 2.482-1.985-1.985z" fill="#666"/>
    <path d="M37.832 7.811a2.106 2.106 0 0 1 2.979 0l1.986 1.986a2.106 2.106 0 0 1 0 2.978.702.702 0 0 1-.993 0l-3.972-3.971a.702.702 0 0 1 0-.993z" fill="#666"/>
    <path fill-rule="evenodd" clip-rule="evenodd" d="M38 27c.552 0 1.004-.45.967-1-.493-7.488-6.48-13.474-13.967-13.967-.55-.037-1 .415-1 .967v13a1 1 0 0 0 1 1h13z" fill="#0078D7"/>
</svg>
