<svg width="48" height="48" fill="none" xmlns="http://www.w3.org/2000/svg">
    <g clip-path="url(#clip0)">
        <path d="M24.102 34.814c-5.987 0-10.852-4.847-10.852-10.813s4.865-10.814 10.852-10.814c4.933 0 9.117 3.305 10.427 7.814h4.2c-1.394-6.763-7.415-11.865-14.627-11.865-8.232 0-14.917 6.678-14.917 14.865 0 8.203 6.702 14.864 14.917 14.864 7.195 0 13.216-5.102 14.628-11.864h-4.218c-1.31 4.508-5.477 7.813-10.41 7.813z" fill="#435363"/>
        <path d="M16.788 31.288a10.327 10.327 0 0 0 7.314 3.017V30a6 6 0 0 1-4.252-1.763l-3.062 3.05z" fill="#435363"/>
        <path d="M13.743 24c0 1.475.323 2.882.885 4.153l3.963-1.729a6.064 6.064 0 0 1-.51-2.424c0-3.322 2.704-6 6.021-6v-4.305c-5.715 0-10.359 4.627-10.359 10.305z" fill="#F38B00"/>
        <path d="M27.844 14.39l-1.565 4.017A6.04 6.04 0 0 1 29.307 21h4.695a10.444 10.444 0 0 0-6.158-6.61z" fill="#435363"/>
        <path d="M26.28 29.593l1.564 4.017a10.298 10.298 0 0 0 6.14-6.61h-4.677a6.04 6.04 0 0 1-3.028 2.593z" fill="#F38B00"/>
        <path d="M24.102 43.932a19.976 19.976 0 0 1-14.135-5.848l-2.891 2.882A24.057 24.057 0 0 0 24.102 48C36.382 48 46.52 38.83 48 27h-4.133c-1.446 9.576-9.764 16.932-19.765 16.932zm0-39.864c4.474 0 8.624 1.474 11.957 3.966l2.45-3.271A24.15 24.15 0 0 0 24.102 0C13.88 0 5.154 6.339 1.65 15.305l3.81 1.475C8.369 9.339 15.631 4.068 24.102 4.068z" fill="#F38B00"/>
        <path d="M43.867 21H48a23.697 23.697 0 0 0-3.47-9.711l-3.47 2.152c1.412 2.271 2.399 4.83 2.807 7.56z" fill="#435363"/>
        <path d="M39.223 21h4.133c-1.071-6.914-5.834-12.625-12.195-15.1l-1.48 3.78c4.848 1.881 8.505 6.135 9.542 11.322z" fill="#F38B00"/>
        <path d="M24.102 8.627V4.56c-8.267 0-15.342 5.152-18.166 12.39l3.793 1.474a15.413 15.413 0 0 1 14.373-9.797z" fill="#435363"/>
        <path d="M8.675 24H4.592c0 8.17 5.086 15.17 12.264 18.034l1.514-3.763C12.689 36 8.675 30.458 8.675 24z" fill="#F38B00"/>
        <path d="M24.102 39.372v4.068c9.73 0 17.809-7.135 19.271-16.44H39.24c-1.412 7.05-7.67 12.372-15.138 12.372zM2.041 33.661A23.862 23.862 0 0 1 0 24h4.1c0 2.729.56 5.475 1.683 8.017l-3.742 1.644z" fill="#435363"/>
    </g>
    <defs>
        <clipPath id="clip0">
            <path fill="#fff" d="M0 0h48v48H0z"/>
        </clipPath>
    </defs>
</svg>
