<?xml version="1.0" encoding="UTF-8" standalone="no"?>
<!-- Created with Inkscape (http://www.inkscape.org/) -->

<svg
   xmlns:dc="http://purl.org/dc/elements/1.1/"
   xmlns:cc="http://creativecommons.org/ns#"
   xmlns:rdf="http://www.w3.org/1999/02/22-rdf-syntax-ns#"
   xmlns:svg="http://www.w3.org/2000/svg"
   xmlns="http://www.w3.org/2000/svg"
   xmlns:sodipodi="http://sodipodi.sourceforge.net/DTD/sodipodi-0.dtd"
   xmlns:inkscape="http://www.inkscape.org/namespaces/inkscape"
   id="svg4154"
   version="1.1"
   inkscape:version="0.91 r13725"
   width="1024"
   height="1024"
   viewBox="0 0 1024 1024"
   sodipodi:docname="icon.svg">
  <metadata
     id="metadata4160">
    <rdf:RDF>
      <cc:Work
         rdf:about="">
        <dc:format>image/svg+xml</dc:format>
        <dc:type
           rdf:resource="http://purl.org/dc/dcmitype/StillImage" />
        <dc:title></dc:title>
      </cc:Work>
    </rdf:RDF>
  </metadata>
  <defs
     id="defs4158" />
  <sodipodi:namedview
     pagecolor="#ffffff"
     bordercolor="#666666"
     borderopacity="1"
     objecttolerance="10"
     gridtolerance="10"
     guidetolerance="10"
     inkscape:pageopacity="0"
     inkscape:pageshadow="2"
     inkscape:window-width="3440"
     inkscape:window-height="1377"
     id="namedview4156"
     showgrid="true"
     inkscape:snap-bbox="true"
     inkscape:bbox-nodes="true"
     inkscape:zoom="0.24"
     inkscape:cx="668.92042"
     inkscape:cy="426.72301"
     inkscape:window-x="-8"
     inkscape:window-y="-8"
     inkscape:window-maximized="1"
     inkscape:current-layer="svg4154">
    <inkscape:grid
       spacingx="32"
       spacingy="32"
       empspacing="4"
       type="xygrid"
       id="grid4739" />
  </sodipodi:namedview>
  <path
     style="fill:#ce4545"
     d="M 0 0 L 0 1024.334 L 1024 1024.334 L 1024 0 L 0 0 z M 263.11523 219.50781 C 298.74793 219.50781 301.43456 220.63626 327.41211 246.58008 C 356.50582 275.63605 362.11841 297.80646 344.76953 315.13281 C 330.70092 329.1831 326.1248 327.55849 306.77344 301.63086 C 284.94931 272.38996 280.60361 269.29678 261.08398 269.17969 C 199.83985 268.81326 93.867186 445.44994 93.867188 547.89453 C 93.867188 607.80133 126.3588 604.91097 191.11133 539.25195 C 224.50898 505.38673 237.44122 487.33003 242.95898 466.86523 C 254.15279 425.34876 272.61187 393.05078 285.13867 393.05078 C 299.81744 393.05078 311.06304 404.96862 311.1543 420.62891 C 311.2271 433.09091 252.30631 623.26868 231.36719 678.1582 C 221.22362 704.74838 203.11312 717.0177 191.35352 705.27344 C 184.17602 698.10527 186.30353 670.20221 196.6875 635.28125 C 202.03969 617.28181 205.11037 601.24506 203.50586 599.64258 C 201.90138 598.04012 186.43001 606.88281 169.13086 619.29492 C 127.07929 649.4667 100.79795 656.42199 72.859375 644.76367 C 43.490675 632.50866 31.808594 607.51979 31.808594 556.95117 C 31.808594 440.79699 106.75337 299.11792 201.78711 235.62891 C 221.08665 222.73544 233.38331 219.50781 263.11523 219.50781 z M 695.53711 252.23438 C 698.34881 252.25627 701.22823 252.94492 704.28711 254.11719 C 709.88799 256.26365 714.4707 264.72881 714.4707 272.92969 C 714.4707 281.1306 687.94234 352.2048 655.51562 430.87695 C 623.08898 509.54909 596.56055 576.29062 596.56055 579.1875 C 596.56055 590.771 610.41717 591.86512 626.31055 581.53906 C 675.13226 549.81917 697.77194 525.05591 717.89453 481.36719 C 734.21973 445.92311 741.4083 436.43164 751.93555 436.43164 C 760.06246 436.43164 766.55083 441.28374 768.52734 448.83203 C 772.71056 464.808 774.42712 464.52219 806.94336 442.51758 C 821.96373 432.35291 841.83947 424.03906 851.10547 424.03906 C 872.22755 424.03906 900.6582 445.77292 900.6582 461.92188 C 900.6582 480.18561 880.19347 516.72366 848.88281 554.37891 C 820.93891 587.98523 816.73094 603.07154 838.54883 591.41016 C 844.93574 587.99642 873.27041 565.67529 901.51758 541.80859 C 956.41478 495.42476 975.1249 488.24345 975.125 513.5625 C 975.125 530.98658 962.06243 546.66211 909.96094 591.75195 C 849.70454 643.89923 797.17872 660.97388 774.39258 635.82812 C 755.62488 615.11703 761.99385 595.19126 804.45703 541.80078 C 846.6375 488.76574 851.07383 479.82031 835.18164 479.82031 C 789.44764 479.82031 738.32898 553.60805 680.70703 702.78906 C 668.23247 735.08517 653.53675 766.45772 648.05078 772.51172 C 634.78318 787.15316 610.83393 786.74694 606.08398 771.80078 C 602.25046 759.73798 622.33454 700.10103 645.50195 654.74805 C 664.51126 617.53527 662.05817 614.04188 629.1875 631.51758 C 593.77761 650.34318 578.40692 651.09528 557.91602 634.99805 C 542.52434 622.90674 542.28045 622.90674 518.5332 634.99805 C 505.38989 641.69024 490.07589 647.16406 484.5 647.16406 C 473.34256 647.16406 457.92111 631.69895 451.72266 614.28711 C 448.13402 604.20644 445.3382 605.022 423.51953 622.5332 C 391.31401 648.38062 357.43409 653.08416 334.35156 634.91211 C 312.67692 617.84835 312.38548 598.8408 332.87305 537.88867 C 352.88511 478.35128 376.05145 432.82241 388.81836 427.92969 C 401.79073 422.95812 422.78906 434.19523 422.78906 446.10547 C 422.78906 451.18398 412.91599 474.91617 400.84961 498.8457 C 379.17231 541.83503 370.40138 584.86816 382.44727 589.13867 C 404.63341 597.00408 461.86248 529.91151 482.29102 472.08594 C 498.06371 427.43943 521.16372 411.55317 534.40039 436.25391 C 539.56031 445.88285 536.31799 460.29897 519.10156 504.30078 C 494.11482 568.16182 491.37531 591.38281 508.83203 591.38281 C 521.66784 591.38281 553.11523 568.99792 553.11523 559.86133 C 553.11523 556.6568 578.47331 489.8395 609.4707 411.375 C 659.56667 284.56582 675.85495 252.08942 695.53711 252.23438 z "
     id="path4716" />
</svg>
