<svg version="1.1" xmlns="http://www.w3.org/2000/svg" width="128" height="128">
    <path d="M0 0 C42.24 0 84.48 0 128 0 C128 42.24 128 84.48 128 128 C85.76 128 43.52 128 0 128 C0 85.76 0 43.52 0 0 Z " fill="#3999C5" transform="translate(0,0)"/>
    <path d="M0 0 C4.91429762 3.46234605 9.22458994 7.98840076 10.75 13.9375 C10.875 17.25 10.875 17.25 10.75 19.9375 C11.348125 20.205625 11.94625 20.47375 12.5625 20.75 C15.39062129 22.28526584 17.24111277 23.64215068 18.4375 26.6875 C19.32545936 33.08080738 18.5342843 37.25291955 15.75 42.9375 C17.4 43.5975 19.05 44.2575 20.75 44.9375 C20.75 46.5875 20.75 48.2375 20.75 49.9375 C19.780625 50.35 18.81125 50.7625 17.8125 51.1875 C14.71914332 52.59450444 14.71914332 52.59450444 13.75 54.8125 C13.75 57.54714304 14.59136921 59.48392891 15.75 61.9375 C14.54296875 63.45703125 14.54296875 63.45703125 12.75 64.9375 C10.48828125 65.01171875 10.48828125 65.01171875 8.0625 64.625 C7.25425781 64.50511719 6.44601563 64.38523437 5.61328125 64.26171875 C4.99839844 64.15472656 4.38351563 64.04773438 3.75 63.9375 C2.76 65.9175 1.77 67.8975 0.75 69.9375 C-1.23 69.9375 -3.21 69.9375 -5.25 69.9375 C-5.58 67.9575 -5.91 65.9775 -6.25 63.9375 C-10.93530728 63.77653853 -10.93530728 63.77653853 -15.5 64.625 C-16.0775 64.728125 -16.655 64.83125 -17.25 64.9375 C-19 63.5 -19 63.5 -20.25 61.9375 C-19.755 60.8546875 -19.755 60.8546875 -19.25 59.75 C-18.24396471 56.92052573 -18.08022598 54.90854534 -18.25 51.9375 C-20.23 51.2775 -22.21 50.6175 -24.25 49.9375 C-24.25 48.9475 -24.25 47.9575 -24.25 46.9375 C-25.47976562 46.98390625 -26.70953125 47.0303125 -27.9765625 47.078125 C-29.6093506 47.11566036 -31.24216511 47.15205862 -32.875 47.1875 C-33.68324219 47.22101563 -34.49148437 47.25453125 -35.32421875 47.2890625 C-40.82923813 47.37857501 -43.87439808 46.5962336 -48.25 42.9375 C-52.00090911 38.66922412 -52.59301457 34.74765761 -52.5390625 29.2265625 C-52.09466358 25.70740349 -50.51573627 23.5916482 -48.25 20.9375 C-47.26 20.2775 -46.27 19.6175 -45.25 18.9375 C-44.45760638 16.91832594 -44.45760638 16.91832594 -43.9375 14.625 C-42.44155732 9.68361486 -40.47876758 7.81666091 -36.25 4.9375 C-33.45473403 3.53986702 -31.57355577 4.24405165 -28.5 4.6875 C-24.21805677 5.18527062 -24.21805677 5.18527062 -20.23046875 3.9296875 C-18.4744467 2.41833796 -18.4744467 2.41833796 -16.25 -0.0625 C-10.88620867 -1.85043044 -5.36227662 -1.75305197 0 0 Z " fill="#E7E8E8" transform="translate(79.25,28.0625)"/>
    <path d="M0 0 C1.98 0 3.96 0 6 0 C6.99 1.98 7.98 3.96 9 6 C12.3 5.67 15.6 5.34 19 5 C20.94522377 8.45817559 21.08254219 10.56877603 20.125 14.3125 C19.75375 15.529375 19.3825 16.74625 19 18 C21.31 18.66 23.62 19.32 26 20 C26 21.65 26 23.3 26 25 C25.030625 25.4125 24.06125 25.825 23.0625 26.25 C19.96914332 27.65700444 19.96914332 27.65700444 19 29.875 C19 32.60964304 19.84136921 34.54642891 21 37 C19.79296875 38.51953125 19.79296875 38.51953125 18 40 C15.73828125 40.07421875 15.73828125 40.07421875 13.3125 39.6875 C12.50425781 39.56761719 11.69601563 39.44773438 10.86328125 39.32421875 C10.24839844 39.21722656 9.63351563 39.11023438 9 39 C8.01 40.98 7.02 42.96 6 45 C4.02 45 2.04 45 0 45 C-0.33 43.02 -0.66 41.04 -1 39 C-5.68530728 38.83903853 -5.68530728 38.83903853 -10.25 39.6875 C-11.11625 39.8421875 -11.11625 39.8421875 -12 40 C-13.75 38.5625 -13.75 38.5625 -15 37 C-14.67 36.278125 -14.34 35.55625 -14 34.8125 C-12.99396471 31.98302573 -12.83022598 29.97104534 -13 27 C-14.98 26.34 -16.96 25.68 -19 25 C-19.33 23.35 -19.66 21.7 -20 20 C-17.35261084 18.5393715 -16.10551666 18 -13 18 C-12.88373279 13.85828461 -12.88373279 13.85828461 -13.625 9.8125 C-13.74875 9.214375 -13.8725 8.61625 -14 8 C-13.34 7.01 -12.68 6.02 -12 5 C-8.37 5.33 -4.74 5.66 -1 6 C-0.67 4.02 -0.34 2.04 0 0 Z " fill="#F9D01A" transform="translate(74,53)"/>
    <path d="M0 0 C0.5775 0.165 1.155 0.33 1.75 0.5 C4.26664369 1.14462031 4.26664369 1.14462031 8 1 C8.99 1 9.98 1 11 1 C11.061875 1.61875 11.12375 2.2375 11.1875 2.875 C11.828919 5.27761141 11.828919 5.27761141 14.5625 6.25 C15.366875 6.4975 16.17125 6.745 17 7 C16.62875 7.928125 16.2575 8.85625 15.875 9.8125 C15.58625 10.864375 15.2975 11.91625 15 13 C15.99 14.485 15.99 14.485 17 16 C16.67 16.66 16.34 17.32 16 18 C14.35 18 12.7 18 11 18 C10.67 19.65 10.34 21.3 10 23 C9.01 23 8.02 23 7 23 C7 22.34 7 21.68 7 21 C4.69 21.66 2.38 22.32 0 23 C-1 22 -1 22 -1.0625 19.4375 C-1.041875 18.633125 -1.02125 17.82875 -1 17 C-2.65 17 -4.3 17 -6 17 C-5.73958333 15.046875 -5.47916667 13.09375 -5.21875 11.140625 C-4.93222643 8.69541605 -4.93222643 8.69541605 -5 5 C-3.35 5 -1.7 5 0 5 C0 3.35 0 1.7 0 0 Z " fill="#B0D03B" transform="translate(40,76)"/>
    <path d="M0 0 C4.62 0 9.24 0 14 0 C13 5 13 5 11.8125 6.8125 C9.03792509 8.63032494 7.23708907 8.52850434 4 8 C1.625 5.6875 1.625 5.6875 0 3 C0 2.01 0 1.02 0 0 Z " fill="#459DC2" transform="translate(70,75)"/>
    <path d="M0 0 C2.3125 1.8125 2.3125 1.8125 4 4 C4 4.99 4 5.98 4 7 C-0.62 7 -5.24 7 -10 7 C-9 3 -9 3 -7.25 1.25 C-4.50032456 -0.27759747 -3.09944665 -0.54240316 0 0 Z " fill="#E6E3DA" transform="translate(80,68)"/>
    <path d="M0 0 C2.00720923 0.28674418 4.0085944 0.61866701 6 1 C6.042721 2.66611905 6.04063832 4.33382885 6 6 C5 7 5 7 2.5 7.125 C0 7 0 7 -1 6 C-1.125 3.5 -1.125 3.5 -1 1 C-0.67 0.67 -0.34 0.34 0 0 Z " fill="#3E9BC0" transform="translate(43,84)"/>
    <path d="M0 0 C4.95 0 9.9 0 15 0 C14.67 0.99 14.34 1.98 14 3 C14 2.34 14 1.68 14 1 C13.0925 1.33 12.185 1.66 11.25 2 C8 3 8 3 4 3 C2.68 2.01 1.36 1.02 0 0 Z " fill="#5DA7BA" transform="translate(40,75)"/>
    <path d="M0 0 C-1.09068668 3.77545388 -1.9083091 6.47043472 -5 9 C-5.36666667 3.5 -5.36666667 3.5 -3.625 1.125 C-2 0 -2 0 0 0 Z " fill="#D8DEDB" transform="translate(98,62)"/>
</svg>