<svg width="24" height="24" fill="none" xmlns="http://www.w3.org/2000/svg">
    <path d="M24 22a2 2 0 0 1-2 2H2a2 2 0 0 1-2-2V2a2 2 0 0 1 2-2h20a2 2 0 0 1 2 2v20z" fill="#ED3324"/>
    <path d="M15.131 12.78a4.48 4.48 0 0 1-4.681 3.6 4.808 4.808 0 0 1-5.017-4.92 4.777 4.777 0 0 1 4.992-4.927c2.743 0 4.442 1.725 4.695 3.878h-2.262a2.284 2.284 0 0 0-2.408-1.925 2.795 2.795 0 0 0-2.809 2.971 2.82 2.82 0 0 0 2.836 2.97 2.316 2.316 0 0 0 2.354-1.646h2.3zm2.626-6.03l-1.382.592 1.732 4.05-1.732 4.05 1.382.59 1.162-2.736.006.013.804-1.916-1.972-4.643z" fill="#fff"/>
</svg>
