<svg width="32" height="32" viewBox="0 0 32 32" fill="none" xmlns="http://www.w3.org/2000/svg">
<rect width="32" height="32" fill="white"/>
<path d="M22.6754 21.7432C22.7836 21.9154 22.8647 22.0913 22.9188 22.271C22.9729 22.4507 23 22.6416 23 22.8438C23 23.1432 22.942 23.424 22.8261 23.686C22.7101 23.9481 22.5517 24.1764 22.3507 24.3711C22.1498 24.5658 21.914 24.7192 21.6435 24.8315C21.3729 24.9438 21.0831 25 20.7739 25H5.22609C4.91691 25 4.62705 24.9438 4.35652 24.8315C4.08599 24.7192 3.85024 24.5658 3.64928 24.3711C3.44831 24.1764 3.28986 23.9481 3.17391 23.686C3.05797 23.424 3 23.1432 3 22.8438C3 22.6416 3.02319 22.4507 3.06957 22.271C3.12367 22.0913 3.20483 21.9154 3.31304 21.7432L9.91014 10.6025C9.98744 10.4977 10.0261 10.3704 10.0261 10.2207V3.4375H8.54203V2H17.4464V3.4375H15.9623V10.2207C15.9623 10.363 16.001 10.494 16.0783 10.6138L22.6754 21.7432ZM11.5101 10.2207C11.5101 10.6175 11.4058 10.9881 11.1971 11.3325L7.35942 17.8125H18.629L14.7913 11.3325C14.5826 10.9881 14.4783 10.6175 14.4783 10.2207V3.4375H11.5101V10.2207Z" fill="#612A76"/>
<path d="M12 27.2571V16.9714L19.0857 14L29.3714 17.6571V25.8857L19.0857 30L12 27.2571Z" fill="white"/>
<path d="M28.4571 25.5029L20.2286 28.6285V15.3714L28.4571 18.2815V25.5029Z" fill="#612A76"/>
<path d="M12.9143 17.527V26.2574L18.8572 28.6286V15.3714L12.9143 17.527ZM13.5399 25.6107L13.2271 25.5029V18.2815L13.5399 18.1737L13.8526 18.066L14.1654 17.9582V25.8262L13.8526 25.7184L13.5399 25.6107ZM15.1038 26.1496L14.6867 26.0418V17.9582L15.1038 17.8504L15.5208 17.7426L15.9379 17.6348V26.4729L15.5208 26.3651L15.1038 26.1496ZM16.9805 26.7963L16.4592 26.5807V17.4193L16.9805 17.3115L17.5018 17.0959L18.1273 16.8804V27.1196L17.5018 26.9041L16.9805 26.7963Z" fill="#612A76"/>
</svg>
