<?xml version="1.0" standalone="no"?>
<!DOCTYPE svg PUBLIC "-//W3C//DTD SVG 20010904//EN"
 "http://www.w3.org/TR/2001/REC-SVG-20010904/DTD/svg10.dtd">
<svg version="1.0" xmlns="http://www.w3.org/2000/svg"
 width="117.000000pt" height="111.000000pt" viewBox="0 0 117.000000 111.000000"
 preserveAspectRatio="xMidYMid meet">

<g transform="translate(0.000000,111.000000) scale(0.100000,-0.100000)"
fill="#000000" stroke="none">
<path d="M490 717 c0 -52 -5 -71 -28 -108 -16 -24 -31 -53 -35 -63 -5 -11 -32
-61 -62 -111 -57 -95 -65 -127 -41 -161 13 -18 30 -19 243 -22 139 -2 240 1
256 7 48 18 48 77 1 146 -14 22 -43 71 -64 110 -21 39 -47 86 -59 105 -15 26
-21 52 -21 98 l0 62 -95 0 -95 0 0 -63z m171 -169 c26 -33 24 -73 -6 -96 -14
-11 -25 -25 -25 -31 0 -7 -32 -11 -95 -11 -90 0 -95 1 -95 21 0 31 53 79 87
79 19 0 36 10 53 30 30 36 55 38 81 8z"/>
</g>
</svg>
