<?xml version="1.0" encoding="utf-8"?>
<!-- Generator: Adobe Illustrator 16.0.0, SVG Export Plug-In . SVG Version: 6.00 Build 0)  -->
<!DOCTYPE svg PUBLIC "-//W3C//DTD SVG 1.0//EN" "http://www.w3.org/TR/2001/REC-SVG-20010904/DTD/svg10.dtd">
<svg version="1.0" id="Layer_1" xmlns="http://www.w3.org/2000/svg" xmlns:xlink="http://www.w3.org/1999/xlink" x="0px" y="0px"
	 width="32px" height="32px" viewBox="0 0 32 32" enable-background="new 0 0 32 32" xml:space="preserve">
<g>
	<path fill="#21BBEE" d="M11.885,24.9c-2.942-0.226-5.613-1.664-7.422-4.03c-1.684-2.197-2.412-4.919-2.048-7.662
		c0.365-2.743,1.777-5.182,3.981-6.867c1.813-1.396,3.987-2.133,6.286-2.133c3.263,0,6.267,1.482,8.24,4.067
		c1.403,1.832,2.139,4.027,2.134,6.297h1.323c0.005-2.56-0.824-5.036-2.406-7.101c-2.227-2.915-5.612-4.587-9.291-4.587
		c-2.594,0-5.047,0.832-7.092,2.406C3.107,7.19,1.514,9.94,1.103,13.034s0.41,6.162,2.309,8.641
		c2.061,2.695,5.115,4.324,8.473,4.555V24.9z"/>
	<path fill="#21BBEE" d="M11.885,18.301c-0.583-0.372-1.178-0.788-1.786-1.27c-0.208-0.165-0.407-0.33-0.6-0.493
		c0.629-0.991,0.696-2.263,0.141-3.331c0.126-0.126,0.25-0.253,0.384-0.378c1.02-0.952,1.979-1.714,2.876-2.326
		c-0.036-0.034-0.069-0.068-0.104-0.103c0.035,0.033,0.069,0.067,0.105,0.1c0,0,0,0.001-0.001,0.001
		c1.377,1.272,2.837,2.479,4.22,3.557c-0.078,0.165-0.132,0.338-0.172,0.515h4.614c-0.069-0.332-0.207-0.654-0.426-0.94
		c-0.735-0.953-2.04-1.195-3.06-0.608c-1.122-1.007-2.356-2.161-3.658-3.455c4.042-2.174,6.915-1.855,6.915-1.855
		c-0.479-0.611-1.017-1.147-1.591-1.631c-1.704-0.264-4.353-0.233-7.379,1.376l-0.001-0.001h0c-1.008-1.056-2.035-2.188-3.08-3.402
		c-0.5,0.16-0.989,0.358-1.461,0.595C8.592,5.911,9.63,7.185,10.8,8.427c0.002,0.003,0.005,0.006,0.008,0.008
		c-0.976,0.682-2.062,1.594-3.063,2.653c-0.127,0.137-0.251,0.273-0.372,0.411c-0.598-0.125-1.228-0.089-1.816,0.124
		c-0.999-2.155-0.918-3.886-0.76-4.778C4.363,7.299,3.958,7.776,3.609,8.286c-0.26,1.065-0.334,2.602,0.435,4.453
		c-0.892,1.165-0.933,2.818-0.003,4.036c0.078,0.102,0.161,0.196,0.247,0.285c-0.406,1.384-0.587,2.719-0.644,3.865
		c0.104,0.142,0.104,0.256,0.208,0.395c0.529,0.678,1.193,1.25,1.835,1.769c-0.08-1.213,0.006-3.003,0.756-5.017
		c0.517,0.039,1.044-0.043,1.536-0.249c0.283,0.248,0.578,0.498,0.894,0.754c1.013,0.802,2.024,1.433,3.012,1.94V18.301z"/>
	<g>
		<g>
			<path fill="#21BBEE" d="M13.354,15.894H31v5.867H13.354V15.894z M13.354,29.115v-5.867H31v5.867H13.354z M22.177,18.826h-7.355
				v1.468h7.355V18.826z M14.822,27.649h7.355v-1.467h-7.355V27.649z M26.579,18.826h-1.468v1.468h1.468V18.826z M25.111,27.649
				h1.468v-1.467h-1.468V27.649z M29.532,18.826h-1.467v1.468h1.467V18.826z M28.065,27.649h1.467v-1.467h-1.467V27.649z"/>
		</g>
	</g>
</g>
</svg>
