<svg fill="none" height="48" viewBox="0 0 48 48" width="48" xmlns="http://www.w3.org/2000/svg"><path d="m39.4656 13.9371c-.4979-.1726-1.0139-.3358-1.5451-.4903.0873-.3588.1674-.713.2387-1.0611 1.1696-5.71674.4049-10.32219-2.2066-11.838496-2.504-1.453939-6.5992.062026-10.7352 3.686166-.3977.34849-.7965.71746-1.1952 1.10415-.2656-.25584-.5308-.50308-.7953-.73957-4.3346-3.875165-8.6794-5.508212-11.2883-3.987516-2.50165 1.458156-3.2425 5.787716-2.18963 11.205466.10168.5233.22052 1.0577.35493 1.6011-.61492.1757-1.20855.3631-1.77655.5624-5.08185 1.784-8.32735 4.5798-8.32735 7.4799 0 2.9952 3.48405 5.9994 8.77718 7.821.41772.1438.85115.2797 1.29782.4087-.14498.5877-.27109 1.1636-.37695 1.7252-1.00391 5.3238-.21992 9.5511 2.27505 11 2.5771 1.4964 6.9022-.0417 11.1138-3.7484.3329-.293.6669-.6038 1.0016-.9295.4338.4206.8669.8187 1.2977 1.192 4.0794 3.5346 8.1084 4.9619 10.6011 3.5089 2.5746-1.5007 3.4113-6.0418 2.325-11.5668-.083-.4219-.1795-.853-.2879-1.2917.3037-.0904.6019-.1838.8926-.2808 5.5027-1.8357 9.083-4.8034 9.083-7.8386 0-2.9106-3.3502-5.7253-8.5344-7.5222zm-1.1935 13.401c-.2624.0875-.5317.1721-.8062.254-.6074-1.9363-1.4273-3.9954-2.4306-6.1227.9574-2.0767 1.7456-4.1095 2.336-6.0333.4911.1431.9676.294 1.4269.4532 4.4418 1.5396 7.1513 3.816 7.1513 5.57 0 1.8683-2.9262 4.2937-7.6774 5.8788zm-1.9714 3.9333c.4803 2.4431.549 4.6519.2308 6.3786-.2859 1.5516-.8608 2.5861-1.5717 3.0004-1.5127.8816-4.7476-.2644-8.2363-3.2872-.4-.3465-.8028-.7165-1.207-1.1081 1.3526-1.4894 2.7043-3.2208 4.0236-5.1438 2.3204-.2073 4.5127-.5462 6.5008-1.009.0979.3977.1849.7878.2598 1.1691zm-19.9364 9.2267c-1.4779.5255-2.655.5405-3.3666.1274-1.5141-.8792-2.1435-4.2733-1.2849-8.8262.0983-.5214.2154-1.057.3503-1.6045 1.9663.4378 4.1425.7528 6.4685.9427 1.3282 1.8816 2.719 3.6112 4.1205 5.1256-.3062.2977-.6112.581-.9145.8481-1.8624 1.639-3.7286 2.802-5.3733 3.3869zm-6.92393-13.1714c-2.34053-.8055-4.27342-1.8524-5.59833-2.9947-1.19052-1.0266-1.79158-2.0457-1.79158-2.8727 0-1.7599 2.60581-4.0046 6.95186-5.5302.52733-.1852 1.07938-.3596 1.65218-.5235.6007 1.9672 1.3886 4.0241 2.3395 6.1039-.9632 2.1108-1.7623 4.2004-2.3688 6.1907-.4084-.1182-.80412-.2426-1.18483-.3735zm2.32093-15.9073c-.902-4.64179-.3029-8.14343 1.2046-9.0221 1.6059-.93606 5.1568.39856 8.8994 3.74457.2392.21386.4794.43771.7203.66929-1.3947 1.50779-2.7727 3.22434-4.0891 5.09494-2.2575.2107-4.4184.5491-6.4052 1.0023-.1249-.5059-.2356-1.003-.33-1.489zm20.7051 5.1478c-.475-.826-.9626-1.6325-1.4597-2.417 1.5315.1949 2.9988.4537 4.3768.7704-.4137 1.3349-.9293 2.7307-1.5363 4.1616-.4354-.8323-.8959-1.6715-1.3808-2.515zm-8.4435-8.28051c.9458 1.03172 1.893 2.18361 2.8246 3.43341-.9388-.0446-1.8892-.0679-2.8475-.0679-.9492 0-1.8927.0227-2.8257.0666.9326-1.2382 1.888-2.38852 2.8486-3.43211zm-8.4975 8.29481c-.4745.8283-.9265 1.663-1.355 2.4991-.5972-1.4258-1.108-2.828-1.5253-4.1819 1.3695-.3086 2.8299-.5609 4.3517-.7521-.5041.7917-.9957 1.6041-1.4714 2.4347zm1.5152 12.3378c-1.5722-.1766-3.0546-.416-4.4238-.716.424-1.3781.9461-2.8102 1.5559-4.2668.4297.8356.8834 1.6706 1.3608 2.5007h.0001c.4862.8458.9899 1.6742 1.507 2.4821zm7.039 5.8581c-.9718-1.0558-1.9412-2.2237-2.888-3.4799.9191.0363 1.8561.0549 2.8084.0549.9784 0 1.9455-.0222 2.8975-.0649-.9347 1.2789-1.8785 2.4486-2.8179 3.4899zm9.7872-10.9151c.6416 1.4723 1.1824 2.8969 1.6118 4.2515-1.3917.3197-2.8943.5772-4.4775.7685.4983-.7951.9901-1.6154 1.4735-2.4593.4889-.8537.9532-1.7087 1.3922-2.5607zm-3.1684 1.5293c-.7504 1.3099-1.5207 2.5604-2.3027 3.7408-1.4244.1025-2.8959.1553-4.3957.1553-1.4937 0-2.9467-.0467-4.3459-.1381-.8135-1.1959-1.6006-2.4501-2.3461-3.7468h.0001c-.7435-1.2931-1.4279-2.5972-2.048-3.894.6199-1.2997 1.3025-2.6053 2.0418-3.8961l-.0002.0002c.7413-1.2942 1.5214-2.5423 2.3275-3.7307 1.4275-.1086 2.8913-.1653 4.3707-.1653h.0001c1.486 0 2.9518.0571 4.3789.1667.7937 1.1797 1.5685 2.4237 2.3127 3.7182.7526 1.3089 1.444 2.6058 2.0693 3.8777-.6234 1.2938-1.3132 2.6037-2.0625 3.9121zm4.23-23.05573c1.6073.93331 2.2324 4.69733 1.2225 9.63313-.0644.3149-.1369.6357-.2157.9608-1.9914-.4626-4.1539-.8069-6.418-1.0208-1.3189-1.8911-2.6857-3.61035-4.0576-5.09879.3689-.35727.7372-.69793 1.104-1.01941 3.5437-3.10514 6.8557-4.33111 8.3648-3.45493zm-10.9284 14.80773c2.3672 0 4.2862 1.9321 4.2862 4.3157 0 2.3834-1.919 4.3157-4.2862 4.3157s-4.2862-1.9323-4.2862-4.3157c0-2.3836 1.919-4.3157 4.2862-4.3157z" fill="#00d8ff" transform="translate(0 3)"/></svg>