<svg width="24" height="24" fill="none" xmlns="http://www.w3.org/2000/svg">
    <path fill-rule="evenodd" clip-rule="evenodd" d="M.022 11.694a.612.612 0 0 1-.022.102v.258c.01.046.018.092.022.14.01.14.017.28.025.421.014.277.03.556.054.834.057.657.2 1.303.424 1.923a4.124 4.124 0 0 0 1.147 1.777 2.626 2.626 0 0 0 1.662.683c.42.012.837.008 1.253.004.207-.002.415-.004.622-.004h.01c.162-.004.162-.004.162-.173v-2.598a4.329 4.329 0 0 1 .162-1.188 3 3 0 0 1 1.323-1.852 3.27 3.27 0 0 1 1.725-.454h5.73a4.022 4.022 0 0 0 1.572-.3 2.71 2.71 0 0 0 1.758-2.52c.023-.505.023-1.02.023-1.529V4.624c0-.157-.003-.313-.005-.47-.005-.311-.01-.623.005-.933a2.268 2.268 0 0 0-.473-1.537A3.548 3.548 0 0 0 15.581.56a8.938 8.938 0 0 0-2.887-.536 16.421 16.421 0 0 0-2.742.082c-.665.07-1.32.22-1.95.446-.515.177-.98.476-1.353.874a1.6 1.6 0 0 0-.465 1.057V5.23c0 .097.034.124.127.124h5.509c.109 0 .143.026.143.142v.563c0 .078 0 .118-.02.137-.02.02-.06.02-.138.02H3.713A3.162 3.162 0 0 0 1.17 7.499a5.998 5.998 0 0 0-1.087 3.146c-.026.24-.036.483-.046.726l-.014.323zM7.91 2.123a1.055 1.055 0 1 0 1.493 1.492A1.055 1.055 0 0 0 7.91 2.123z" fill="#3772A4"/>
    <path fill-rule="evenodd" clip-rule="evenodd" d="M23.977 12.302A.605.605 0 0 1 24 12.2c0-.088-.001-.173-.004-.255a1.259 1.259 0 0 1-.022-.135 48.38 48.38 0 0 1-.024-.422c-.015-.278-.03-.556-.055-.834a7.575 7.575 0 0 0-.42-1.931 4.124 4.124 0 0 0-1.148-1.777 2.625 2.625 0 0 0-1.66-.682 30.873 30.873 0 0 0-1.254-.005c-.207.002-.415.005-.622.005-.087.001-.13.001-.151.023-.021.021-.021.063-.021.149v2.598c.001.402-.053.802-.162 1.189a2.999 2.999 0 0 1-1.323 1.855 3.27 3.27 0 0 1-1.725.454H9.682a4.02 4.02 0 0 0-1.57.3 2.711 2.711 0 0 0-1.76 2.52c-.022.505-.022 1.02-.022 1.529v2.594c0 .157.002.313.005.47.005.311.01.623-.005.933-.036.552.133 1.1.473 1.537.422.52.984.91 1.62 1.124a8.936 8.936 0 0 0 2.887.537c.914.049 1.831.02 2.741-.083a8.334 8.334 0 0 0 1.947-.446 3.34 3.34 0 0 0 1.353-.874 1.6 1.6 0 0 0 .465-1.057V18.77c0-.097-.034-.124-.127-.124H12.18c-.109 0-.143-.026-.143-.142v-.563c0-.157 0-.157.158-.157h8.093a3.16 3.16 0 0 0 2.542-1.286 5.998 5.998 0 0 0 1.088-3.145c.025-.241.035-.484.045-.726l.014-.324zm-7.887 9.44a1.055 1.055 0 1 0-1.492-1.492 1.055 1.055 0 0 0 1.492 1.492z" fill="#FFDA4B"/>
</svg>
