<?xml version="1.0" encoding="utf-8"?>
<svg version="1.1" id="Capa_1" x="0px" y="0px" width="1024" height="1024" viewBox="0 0 1024 1024" xmlns="http://www.w3.org/2000/svg">
  <path d="M 352 256 L 672 256 L 672 608 L 896 608 L 512 1024 L 128 608 L 352 608 Z" id="polygon6" style="fill:#424242;fill-opacity:1"/>
  <rect x="128" y="-128" width="768" height="128" id="rect8" style="fill:#424242;fill-opacity:1" transform="matrix(1, 0, 0, -1, 0, 0)"/>
  <g id="g10" transform="matrix(1, 0, 0, -1, 0, 433.5)"/>
  <g id="g12" transform="matrix(1, 0, 0, -1, 0, 433.5)"/>
  <g id="g14" transform="matrix(1, 0, 0, -1, 0, 433.5)"/>
  <g id="g16" transform="matrix(1, 0, 0, -1, 0, 433.5)"/>
  <g id="g18" transform="matrix(1, 0, 0, -1, 0, 433.5)"/>
  <g id="g20" transform="matrix(1, 0, 0, -1, 0, 433.5)"/>
  <g id="g22" transform="matrix(1, 0, 0, -1, 0, 433.5)"/>
  <g id="g24" transform="matrix(1, 0, 0, -1, 0, 433.5)"/>
  <g id="g26" transform="matrix(1, 0, 0, -1, 0, 433.5)"/>
  <g id="g28" transform="matrix(1, 0, 0, -1, 0, 433.5)"/>
  <g id="g30" transform="matrix(1, 0, 0, -1, 0, 433.5)"/>
  <g id="g32" transform="matrix(1, 0, 0, -1, 0, 433.5)"/>
  <g id="g34" transform="matrix(1, 0, 0, -1, 0, 433.5)"/>
  <g id="g36" transform="matrix(1, 0, 0, -1, 0, 433.5)"/>
  <g id="g38" transform="matrix(1, 0, 0, -1, 0, 433.5)"/>
</svg>