<?xml version="1.0" encoding="UTF-8" standalone="no"?>
<svg
   xmlns:dc="http://purl.org/dc/elements/1.1/"
   xmlns:cc="http://creativecommons.org/ns#"
   xmlns:rdf="http://www.w3.org/1999/02/22-rdf-syntax-ns#"
   xmlns:svg="http://www.w3.org/2000/svg"
   xmlns="http://www.w3.org/2000/svg"
   xmlns:sodipodi="http://sodipodi.sourceforge.net/DTD/sodipodi-0.dtd"
   xmlns:inkscape="http://www.inkscape.org/namespaces/inkscape"
   viewBox="0 0 1024 1024"
   id="svg2"
   version="1.1"
   inkscape:version="0.91 r13725"
   sodipodi:docname="delete-files.svg"
   width="1024"
   height="1024"
   inkscape:export-filename="C:\Users\JimLamb\Documents\edit-delete.png"
   inkscape:export-xdpi="2.8099999"
   inkscape:export-ydpi="2.8099999">
  <metadata
     id="metadata10">
    <rdf:RDF>
      <cc:Work
         rdf:about="">
        <dc:format>image/svg+xml</dc:format>
        <dc:type
           rdf:resource="http://purl.org/dc/dcmitype/StillImage" />
        <dc:title></dc:title>
      </cc:Work>
    </rdf:RDF>
  </metadata>
  <defs
     id="defs8" />
  <sodipodi:namedview
     pagecolor="#ffffff"
     bordercolor="#666666"
     borderopacity="1"
     objecttolerance="10"
     gridtolerance="10"
     guidetolerance="10"
     inkscape:pageopacity="0"
     inkscape:pageshadow="2"
     inkscape:window-width="1438"
     inkscape:window-height="922"
     id="namedview6"
     showgrid="true"
     inkscape:snap-bbox="true"
     inkscape:bbox-nodes="true"
     inkscape:zoom="0.52678571"
     inkscape:cx="907.38983"
     inkscape:cy="527.72881"
     inkscape:window-x="101"
     inkscape:window-y="81"
     inkscape:window-maximized="0"
     inkscape:current-layer="svg2">
    <inkscape:grid
       type="xygrid"
       id="grid4138"
       spacingx="32"
       spacingy="32"
       empspacing="2" />
  </sodipodi:namedview>
  <path
     style="fill:#ffffff;fill-opacity:1;stroke:none"
     d="m 352,0 c -35.456,0 -64,28.544 -64,64 l 0,64 -128,0 c -35.456,0 -64,28.544 -64,64 l 0,64 c 0,35.456 28.544,64 64,64 l 0,640 c 0,35.456 28.544,64 64,64 l 576,0 c 35.456,0 64,-28.544 64,-64 l 0,-640 c 35.456,0 64,-28.544 64,-64 l 0,-64 c 0,-35.456 -28.544,-64 -64,-64 l -128,0 0,-64 C 736,28.544 707.456,0 672,0 L 352,0 Z"
     id="rect4147"
     inkscape:connector-curvature="0" />
  <path
     d="m 416,768 -64,0 0,-384 64,0 0,384 z m 128,-384 -64,0 0,384 64,0 0,-384 z m 128,0 -64,0 0,384 64,0 0,-384 z m 192,-192 0,64 -64,0 0,640 c 0,35.344 -28.652,64 -64,64 l -448,0 c -35.348,0 -64,-28.656 -64,-64 l 0,-640 -64,0 0,-64 192,0 0,-64 c 0,-35.348 28.652,-64 64,-64 l 192,0 c 35.348,0 64,28.652 64,64 l 0,64 192,0 z m -448,0 192,0 0,-64 -192,0 0,64 z m 320,64 -448,0 0,640 448,0 0,-640 z"
     id="path4"
     style="fill:#f34235;fill-opacity:1"
     inkscape:connector-curvature="0" />
</svg>
