<svg width="24" height="24" fill="none" xmlns="http://www.w3.org/2000/svg">
    <path d="M12.004 24a1.8 1.8 0 0 1-.91-.247l-2.896-1.738c-.432-.245-.221-.332-.079-.382.577-.204.694-.25 1.31-.605.065-.037.15-.024.215.015l2.225 1.339a.29.29 0 0 0 .27 0l8.674-5.077a.278.278 0 0 0 .133-.237V6.919a.283.283 0 0 0-.135-.242L12.14 1.605a.263.263 0 0 0-.267 0l-8.67 5.072a.281.281 0 0 0-.137.24v10.149c0 .096.052.189.134.235l2.376 1.391c1.29.654 2.078-.116 2.078-.891V7.785a.25.25 0 0 1 .252-.254h1.099c.136 0 .25.11.25.254v10.02c0 1.744-.939 2.745-2.57 2.745-.501 0-.896 0-2-.55L2.41 18.67a1.865 1.865 0 0 1-.91-1.605V6.918c0-.66.347-1.277.91-1.602l8.683-5.08a1.88 1.88 0 0 1 1.824 0l8.673 5.08c.56.329.91.943.91 1.603v10.149c0 .658-.35 1.272-.91 1.602l-8.673 5.079a1.804 1.804 0 0 1-.914.246" fill="#689F63"/>
    <path d="M14.945 16.734c-3.805 0-4.603-1.758-4.603-3.233a.25.25 0 0 1 .252-.251h1.123a.25.25 0 0 1 .248.214c.17 1.152.675 1.733 2.976 1.733 1.833 0 2.612-.417 2.612-1.395 0-.563-.222-.982-3.069-1.262-2.381-.237-3.853-.765-3.853-2.681 0-1.766 1.48-2.818 3.96-2.818 2.784 0 4.164.973 4.338 3.063a.256.256 0 0 1-.252.276h-1.13a.25.25 0 0 1-.244-.197c-.272-1.212-.93-1.6-2.717-1.6-2 0-2.233.702-2.233 1.227 0 .638.274.824 2.974 1.183 2.673.357 3.942.861 3.942 2.752 0 1.906-1.58 2.999-4.336 2.999l.012-.01z" fill="#689F63"/>
</svg>
