<svg width="24" height="24" fill="none" xmlns="http://www.w3.org/2000/svg">
    <path d="M22.727 5.174H1.551v16.5h21.176v-16.5zm-.75-.674H.801v.213h21.176V4.5zm1.412 0v17.25h.05V4.5h-.05z" fill="#fff"/>
    <path d="M0 1.5v21h24v-21H0zm1.411 1.412h21.177V4.5H1.41V2.912zm21.177 18.177H1.412V5.912h21.177V21.09z" fill="#333"/>
    <path d="M22.588 2.911H1.41V4.5h21.177V2.91z" fill="#666"/>
    <path d="M4.643 16.295V15.23c.096.087.21.165.341.234.133.07.273.129.42.177.148.047.296.084.444.11.147.027.284.039.409.039.434 0 .759-.072.97-.216a.717.717 0 0 0 .321-.632.69.69 0 0 0-.107-.385 1.15 1.15 0 0 0-.298-.299 3.247 3.247 0 0 0-.45-.258 41.24 41.24 0 0 0-.555-.26 9.575 9.575 0 0 1-.592-.342 2.594 2.594 0 0 1-.476-.385 1.6 1.6 0 0 1-.317-.477 1.54 1.54 0 0 1-.115-.621c0-.294.066-.547.197-.763a1.68 1.68 0 0 1 .522-.536c.216-.14.462-.244.737-.313.276-.068.557-.102.844-.102.653 0 1.128.073 1.427.223v1.021c-.354-.255-.809-.382-1.366-.382a2.49 2.49 0 0 0-.459.043 1.38 1.38 0 0 0-.409.143.887.887 0 0 0-.293.258.63.63 0 0 0-.113.378c0 .14.029.26.087.36a.931.931 0 0 0 .255.279c.11.084.247.166.409.246.16.08.346.165.558.258.218.114.423.233.616.357.193.125.362.262.508.414.147.15.263.318.349.502.085.184.129.393.129.629 0 .315-.064.58-.192.8a1.545 1.545 0 0 1-.515.53 2.255 2.255 0 0 1-.746.295 4.114 4.114 0 0 1-.892.092c-.104 0-.232-.007-.386-.024a6.133 6.133 0 0 1-.467-.07c-.16-.03-.31-.068-.452-.11a1.46 1.46 0 0 1-.343-.148zm4.85 0V15.23c.096.087.209.165.341.234.132.07.272.129.42.177.148.047.296.084.443.11.148.027.285.039.409.039.435 0 .759-.072.972-.216.214-.146.32-.356.32-.632a.696.696 0 0 0-.105-.385 1.15 1.15 0 0 0-.299-.299 3.247 3.247 0 0 0-.45-.258 40.954 40.954 0 0 0-.555-.26 9.573 9.573 0 0 1-.592-.342 2.568 2.568 0 0 1-.476-.385c-.134-.14-.24-.3-.317-.477a1.54 1.54 0 0 1-.116-.621c0-.294.066-.547.198-.763.132-.216.306-.395.521-.536.216-.14.462-.244.738-.313a3.5 3.5 0 0 1 .844-.102c.652 0 1.127.073 1.426.223v1.021c-.353-.255-.809-.382-1.366-.382-.154 0-.306.015-.459.043a1.38 1.38 0 0 0-.409.143.887.887 0 0 0-.293.258.63.63 0 0 0-.113.378c0 .14.03.26.087.36a.932.932 0 0 0 .255.279c.111.084.248.166.409.246.16.08.346.165.558.258.218.114.423.233.616.357.193.125.363.262.509.414.147.15.263.318.348.502.085.184.128.393.128.629 0 .315-.064.58-.191.8-.128.216-.3.394-.516.53a2.255 2.255 0 0 1-.746.295 4.115 4.115 0 0 1-.892.092 3.67 3.67 0 0 1-.385-.024 6.128 6.128 0 0 1-.467-.07c-.16-.03-.31-.068-.452-.11a1.445 1.445 0 0 1-.343-.148zm10.146.248h-1.04v-2.705h-2.935v2.705h-1.035v-6.236h1.035v2.622h2.935v-2.622h1.04v6.236z" fill="#333"/>
    <path d="M4.643 16.295V15.23c.096.087.21.165.341.234.133.07.273.129.42.177.148.047.296.084.444.11.147.027.284.039.409.039.434 0 .759-.072.97-.216a.717.717 0 0 0 .321-.632.69.69 0 0 0-.107-.385 1.15 1.15 0 0 0-.298-.299 3.247 3.247 0 0 0-.45-.258 41.24 41.24 0 0 0-.555-.26 9.575 9.575 0 0 1-.592-.342 2.594 2.594 0 0 1-.476-.385 1.6 1.6 0 0 1-.317-.477 1.54 1.54 0 0 1-.115-.621c0-.294.066-.547.197-.763a1.68 1.68 0 0 1 .522-.536c.216-.14.462-.244.737-.313.276-.068.557-.102.844-.102.653 0 1.128.073 1.427.223v1.021c-.354-.255-.809-.382-1.366-.382a2.49 2.49 0 0 0-.459.043 1.38 1.38 0 0 0-.409.143.887.887 0 0 0-.293.258.63.63 0 0 0-.113.378c0 .14.029.26.087.36a.931.931 0 0 0 .255.279c.11.084.247.166.409.246.16.08.346.165.558.258.218.114.423.233.616.357.193.125.362.262.508.414.147.15.263.318.349.502.085.184.129.393.129.629 0 .315-.064.58-.192.8a1.545 1.545 0 0 1-.515.53 2.255 2.255 0 0 1-.746.295 4.114 4.114 0 0 1-.892.092c-.104 0-.232-.007-.386-.024a6.133 6.133 0 0 1-.467-.07c-.16-.03-.31-.068-.452-.11a1.46 1.46 0 0 1-.343-.148zm4.85 0V15.23c.096.087.209.165.341.234.132.07.272.129.42.177.148.047.296.084.443.11.148.027.285.039.409.039.435 0 .759-.072.972-.216.214-.146.32-.356.32-.632a.696.696 0 0 0-.105-.385 1.15 1.15 0 0 0-.299-.299 3.247 3.247 0 0 0-.45-.258 40.954 40.954 0 0 0-.555-.26 9.573 9.573 0 0 1-.592-.342 2.568 2.568 0 0 1-.476-.385c-.134-.14-.24-.3-.317-.477a1.54 1.54 0 0 1-.116-.621c0-.294.066-.547.198-.763.132-.216.306-.395.521-.536.216-.14.462-.244.738-.313a3.5 3.5 0 0 1 .844-.102c.652 0 1.127.073 1.426.223v1.021c-.353-.255-.809-.382-1.366-.382-.154 0-.306.015-.459.043a1.38 1.38 0 0 0-.409.143.887.887 0 0 0-.293.258.63.63 0 0 0-.113.378c0 .14.03.26.087.36a.932.932 0 0 0 .255.279c.111.084.248.166.409.246.16.08.346.165.558.258.218.114.423.233.616.357.193.125.363.262.509.414.147.15.263.318.348.502.085.184.128.393.128.629 0 .315-.064.58-.191.8-.128.216-.3.394-.516.53a2.255 2.255 0 0 1-.746.295 4.115 4.115 0 0 1-.892.092 3.67 3.67 0 0 1-.385-.024 6.128 6.128 0 0 1-.467-.07c-.16-.03-.31-.068-.452-.11a1.445 1.445 0 0 1-.343-.148zm10.146.248h-1.04v-2.705h-2.935v2.705h-1.035v-6.236h1.035v2.622h2.935v-2.622h1.04v6.236z" fill="#333"/>
</svg>
