<?xml version="1.0" encoding="UTF-8" standalone="no"?>
<!-- Created with Inkscape (http://www.inkscape.org/) -->

<svg
   xmlns:dc="http://purl.org/dc/elements/1.1/"
   xmlns:cc="http://creativecommons.org/ns#"
   xmlns:rdf="http://www.w3.org/1999/02/22-rdf-syntax-ns#"
   xmlns:svg="http://www.w3.org/2000/svg"
   xmlns="http://www.w3.org/2000/svg"
   xmlns:sodipodi="http://sodipodi.sourceforge.net/DTD/sodipodi-0.dtd"
   xmlns:inkscape="http://www.inkscape.org/namespaces/inkscape"
   version="1.1"
   width="1024"
   height="1024"
   id="svg2"
   inkscape:version="0.91 r13725"
   sodipodi:docname="icon.svg"
   inkscape:export-filename="C:\Users\Jamie\Sources\vso-agent-tasks\Tasks\AndroidBuild\icon.png"
   inkscape:export-xdpi="2.8099999"
   inkscape:export-ydpi="2.8099999">
  <sodipodi:namedview
     pagecolor="#ffffff"
     bordercolor="#666666"
     borderopacity="1"
     objecttolerance="10"
     gridtolerance="10"
     guidetolerance="10"
     inkscape:pageopacity="0"
     inkscape:pageshadow="2"
     inkscape:window-width="3440"
     inkscape:window-height="1377"
     id="namedview48"
     showgrid="true"
     inkscape:zoom="0.89600868"
     inkscape:cx="202.80028"
     inkscape:cy="498.98973"
     inkscape:window-x="-8"
     inkscape:window-y="-8"
     inkscape:window-maximized="1"
     inkscape:current-layer="svg2"
     inkscape:snap-bbox="true"
     inkscape:bbox-nodes="true">
    <inkscape:grid
       type="xygrid"
       id="grid4195"
       spacingx="32"
       spacingy="32"
       empspacing="8" />
  </sodipodi:namedview>
  <defs
     id="defs4" />
  <metadata
     id="metadata7">
    <rdf:RDF>
      <cc:Work
         rdf:about="">
        <dc:format>image/svg+xml</dc:format>
        <dc:type
           rdf:resource="http://purl.org/dc/dcmitype/StillImage" />
        <dc:title />
      </cc:Work>
    </rdf:RDF>
  </metadata>
  <rect
     width="128"
     height="401.98032"
     rx="64"
     x="320"
     y="622.01965"
     id="c-4-14-6-4-9"
     style="fill:#a4c639;stroke:none" />
  <path
     d="M 224.39159,288.00001 C 224.18245,290.46124 224,292.95672 224,295.47729 l 0,422.4838 c 0,45.43846 35.06014,82.0389 78.58548,82.0389 l 418.82859,0 c 43.52579,0 78.58593,-36.60044 78.58593,-82.0389 l 0,-422.4838 c 0,-2.52011 -0.0846,-5.0165 -0.29369,-7.47728 l -575.3134,0 z"
     id="rect8719-3-2-7-4-3"
     style="fill:#a4c639;stroke:#ffffff;stroke-width:0;stroke-miterlimit:4;stroke-dasharray:none"
     inkscape:connector-curvature="0" />
  <rect
     width="128"
     height="401.98032"
     rx="64"
     x="576"
     y="622.01965"
     id="c-4-8-9-1-4-9"
     style="fill:#a4c639;stroke:none" />
  <rect
     width="128"
     height="416"
     rx="64"
     x="64"
     y="320"
     id="c-4-9-2-9-2-9"
     style="fill:#a4c639;stroke:none" />
  <rect
     width="127.81993"
     height="416"
     rx="63.909966"
     x="832"
     y="320"
     id="c-4-1-7-3-8-4"
     style="fill:#a4c639;stroke:none" />
  <path
     d="M 224.9664,256 C 226.74537,139.82119 338.1013,44.558303 481.05185,32 l 64.23173,0 c 142.95054,12.558303 254.30647,107.82119 256.08543,224 l -576.40261,0 z"
     id="path4090-4-4-4-8"
     style="fill:#a4c639;fill-opacity:1;stroke:none"
     inkscape:connector-curvature="0" />
  <path
     d="M 247.19271,6.8148349 314.61213,123.5889"
     id="path4160-1-3-5-6"
     style="fill:none;stroke:#a4c639;stroke-width:13.46341896;stroke-linecap:round;stroke-linejoin:round;stroke-miterlimit:4;stroke-dasharray:none;stroke-opacity:1"
     inkscape:connector-curvature="0" />
  <path
     d="M 779.14226,6.8148349 711.72284,123.5889"
     id="path4160-9-0-1-7-9"
     style="fill:none;stroke:#a4c639;stroke-width:13.46341896;stroke-linecap:round;stroke-linejoin:round;stroke-miterlimit:4;stroke-dasharray:none;stroke-opacity:1"
     inkscape:connector-curvature="0" />
  <path
     d="m 447.99997,159.65963 a 33.062265,32.293378 0 1 1 -66.12446,0 33.062265,32.293378 0 1 1 66.12446,0 z"
     id="path4109-7-3-2-5-7-2-0"
     style="fill:#ffffff;fill-opacity:1;stroke:none"
     inkscape:connector-curvature="0" />
  <path
     d="m 642.1245,160.34037 a 33.062265,32.293378 0 1 1 -66.12446,0 33.062265,32.293378 0 1 1 66.12446,0 z"
     id="path4109-0-0-3-1-5-0-0-0"
     style="fill:#ffffff;fill-opacity:1;stroke:none"
     inkscape:connector-curvature="0" />
</svg>
