<?xml version="1.0" encoding="UTF-8" standalone="no"?>
<!-- Created with Inkscape (http://www.inkscape.org/) -->

<svg
   xmlns:dc="http://purl.org/dc/elements/1.1/"
   xmlns:cc="http://creativecommons.org/ns#"
   xmlns:rdf="http://www.w3.org/1999/02/22-rdf-syntax-ns#"
   xmlns:svg="http://www.w3.org/2000/svg"
   xmlns="http://www.w3.org/2000/svg"
   xmlns:sodipodi="http://sodipodi.sourceforge.net/DTD/sodipodi-0.dtd"
   xmlns:inkscape="http://www.inkscape.org/namespaces/inkscape"
   width="1024"
   height="1024"
   viewBox="0 0 1024 1024"
   id="svg2"
   version="1.1"
   inkscape:version="0.91 r13725"
   sodipodi:docname="icon.svg"
   inkscape:export-filename="C:\Users\Jamie\Sources\vsts-tasks\Tasks\BatchScript\icon.png"
   inkscape:export-xdpi="2.8099999"
   inkscape:export-ydpi="2.8099999">
  <defs
     id="defs4">
    <pattern
       y="0"
       x="0"
       height="6"
       width="6"
       patternUnits="userSpaceOnUse"
       id="EMFhbasepattern" />
    <pattern
       y="0"
       x="0"
       height="6"
       width="6"
       patternUnits="userSpaceOnUse"
       id="EMFhbasepattern-6" />
  </defs>
  <sodipodi:namedview
     id="base"
     pagecolor="#ffffff"
     bordercolor="#666666"
     borderopacity="1.0"
     inkscape:pageopacity="0.0"
     inkscape:pageshadow="2"
     inkscape:zoom="0.49497475"
     inkscape:cx="267.52157"
     inkscape:cy="389.45023"
     inkscape:document-units="px"
     inkscape:current-layer="text4138"
     showgrid="true"
     units="px"
     inkscape:snap-bbox="true"
     inkscape:bbox-nodes="true"
     inkscape:window-width="1624"
     inkscape:window-height="895"
     inkscape:window-x="78"
     inkscape:window-y="78"
     inkscape:window-maximized="0">
    <inkscape:grid
       type="xygrid"
       id="grid4136"
       spacingx="32"
       spacingy="32"
       empspacing="4" />
  </sodipodi:namedview>
  <metadata
     id="metadata7">
    <rdf:RDF>
      <cc:Work
         rdf:about="">
        <dc:format>image/svg+xml</dc:format>
        <dc:type
           rdf:resource="http://purl.org/dc/dcmitype/StillImage" />
        <dc:title></dc:title>
      </cc:Work>
    </rdf:RDF>
  </metadata>
  <g
     inkscape:label="Layer 1"
     inkscape:groupmode="layer"
     id="layer1"
     transform="translate(0,-28.362114)">
    <g
       style="font-style:normal;font-weight:normal;font-size:40px;line-height:125%;font-family:sans-serif;letter-spacing:0px;word-spacing:0px;fill:#000000;fill-opacity:1;stroke:none;stroke-width:1px;stroke-linecap:butt;stroke-linejoin:miter;stroke-opacity:1"
       id="text4138"
       transform="matrix(2.4283836,0,0,2.4600599,-357.88541,-943.61331)">
      <rect
         style="fill:#ffffff;fill-opacity:1;stroke:none;stroke-width:64;stroke-miterlimit:4;stroke-dasharray:none;stroke-opacity:1"
         id="rect4867"
         width="421.67966"
         height="312.18753"
         x="147.37598"
         y="447.13361" />
      <rect
         style="fill-opacity:1;stroke:none;stroke-width:64;stroke-miterlimit:4;stroke-dasharray:none;stroke-opacity:1"
         id="rect4157"
         width="421.67966"
         height="52.031242"
         x="147.37598"
         y="447.13361" />
      <rect
         y="512.17267"
         x="147.37598"
         height="247.14845"
         width="421.67966"
         id="rect4159"
         style="fill-opacity:1;stroke:none;stroke-width:64;stroke-miterlimit:4;stroke-dasharray:none;stroke-opacity:1" />
      <rect
         y="460.14142"
         x="529.52319"
         height="26.015625"
         width="26.35498"
         id="rect4161"
         style="fill-opacity:1;stroke:none;stroke-width:64;stroke-miterlimit:4;stroke-dasharray:none;stroke-opacity:1;fill:#ffffff" />
      <rect
         style="fill:#ffffff;fill-opacity:1;stroke:none;stroke-width:64;stroke-miterlimit:4;stroke-dasharray:none;stroke-opacity:1"
         id="rect4163"
         width="26.35498"
         height="26.015625"
         x="489.99072"
         y="460.14142" />
      <rect
         y="460.14142"
         x="450.45825"
         height="26.015625"
         width="26.35498"
         id="rect4165"
         style="fill:#ffffff;fill-opacity:1;stroke:none;stroke-width:64;stroke-miterlimit:4;stroke-dasharray:none;stroke-opacity:1" />
      <g
         style="font-style:normal;font-variant:normal;font-weight:400;font-size:16.91569519px;line-height:125%;font-family:'Segoe UI Symbol';text-align:start;letter-spacing:0px;word-spacing:0px;text-anchor:start;fill:#ffffff;fill-opacity:1;stroke:none"
         id="text4069"
         transform="matrix(11.525147,0,0,11.525457,14.031257,-11129.75)">
        <path
           d="m 28.958753,1020.3906 -0.256049,1.3629 1.833635,1.3711 -1.362836,2.3044 -2.048385,-0.9416 -1.156347,0.9416 0.21475,2.0484 -2.519183,0.6855 -0.685548,-1.8418 -1.577587,-0.2148 -1.362837,1.6271 -2.304433,-1.4123 0.941597,-1.8337 -0.941597,-1.1068 -2.048385,0.2148 -0.685548,-2.734 2.048385,-0.6855 0,-1.4041 -1.618885,-1.3711 1.404135,-2.2632 2.048385,0.9003 0.900298,-0.9003 -0.21475,-2.0897 2.519183,-0.6855 0.892039,1.8419 1.412395,0.256 1.577586,-1.6271 2.048385,1.3711 -0.677288,1.8336 0.677288,1.1481 2.304433,-0.2065 0.685549,2.5109 -2.048385,0.9003 z m -9.762867,-0.099 q 0,0.7682 0.289086,1.4455 0.289087,0.669 0.792923,1.1728 0.503837,0.5039 1.172866,0.793 0.677289,0.289 1.445433,0.289 0.768144,0 1.445433,-0.289 0.677288,-0.2891 1.172865,-0.793 0.503837,-0.5038 0.792924,-1.1728 0.297346,-0.6773 0.297346,-1.4455 0,-0.7681 -0.297346,-1.4454 -0.289087,-0.6773 -0.792924,-1.1729 -0.495577,-0.5038 -1.172865,-0.7929 -0.677289,-0.2973 -1.445433,-0.2973 -0.768144,0 -1.445433,0.2973 -0.669029,0.2891 -1.172866,0.7929 -0.503836,0.4956 -0.792923,1.1729 -0.289086,0.6773 -0.289086,1.4454 z"
           style="font-style:normal;font-variant:normal;font-weight:400;font-size:16.91569519px;font-family:'Segoe UI Symbol';fill:#ffffff;fill-opacity:1"
           id="path4093"
           inkscape:connector-curvature="0" />
      </g>
      <path
         inkscape:connector-curvature="0"
         id="path4823"
         d="m 424.10326,668.26642 0,143.08578 144.95219,0 0,-143.08578 -144.95219,0 z"
         style="fill:#ffffff;fill-opacity:1;fill-rule:evenodd;stroke:none" />
      <path
         inkscape:connector-curvature="0"
         id="path4825"
         d="m 437.28042,681.27412 0,52.03135 52.71007,0 0,-52.03135 -52.71007,0 z"
         style="fill:#f25022;fill-opacity:1;fill-rule:evenodd;stroke:none" />
      <path
         inkscape:connector-curvature="0"
         id="path4827"
         d="m 437.28042,746.31316 0,52.03135 52.71007,0 0,-52.03135 -52.71007,0 z"
         style="fill:#00a4ef;fill-opacity:1;fill-rule:evenodd;stroke:none" />
      <path
         inkscape:connector-curvature="0"
         id="path4829"
         d="m 503.16808,681.27412 0,52.03135 52.70978,0 0,-52.03135 -52.70978,0 z"
         style="fill:#7fba00;fill-opacity:1;fill-rule:evenodd;stroke:none" />
      <path
         inkscape:connector-curvature="0"
         id="path4831"
         d="m 503.16808,746.31316 0,52.03135 52.70978,0 0,-52.03135 -52.70978,0 z"
         style="fill:#ffb900;fill-opacity:1;fill-rule:evenodd;stroke:none" />
    </g>
  </g>
</svg>
