<svg width="24" height="24" fill="none" xmlns="http://www.w3.org/2000/svg">
    <path d="M12.023 10.613a.208.208 0 0 1-.106-.031l-7.06-4.104a.215.215 0 0 1-.108-.188.21.21 0 0 1 .107-.185l7.015-4.077a.217.217 0 0 1 .213 0l7.062 4.106a.217.217 0 0 1 .107.185.218.218 0 0 1-.107.187l-7.017 4.077a.212.212 0 0 1-.106.03z" fill="#3999C6"/>
    <path d="M11.008 20.588a.212.212 0 0 1-.108-.028l-7.04-4.092a.21.21 0 0 1-.108-.186v-8.21c0-.077.04-.147.109-.188a.222.222 0 0 1 .215 0l7.038 4.091c.065.04.104.11.104.188v8.21c0 .08-.04.148-.104.187a.222.222 0 0 1-.106.028zm1.992 0a.226.226 0 0 1-.11-.028.216.216 0 0 1-.105-.187v-8.158a.22.22 0 0 1 .106-.187l7.036-4.09a.219.219 0 0 1 .215 0c.065.039.106.11.106.186v8.158c0 .078-.04.148-.106.186l-7.04 4.092a.186.186 0 0 1-.103.028z" fill="#59B4D9"/>
    <path opacity=".5" d="M13 20.588a.226.226 0 0 1-.11-.028.216.216 0 0 1-.105-.187v-8.158a.22.22 0 0 1 .106-.187l7.036-4.09a.219.219 0 0 1 .215 0c.065.039.106.11.106.186v8.158c0 .078-.04.148-.106.186l-7.04 4.092a.186.186 0 0 1-.103.028z" fill="#fff"/>
    <path d="M4.588 21.5a.69.69 0 0 1-.348-.094l-3.286-1.91C.401 19.174 0 18.474 0 17.831V5.669c0-.643.4-1.342.954-1.663l3.286-1.91a.696.696 0 0 1 .954.257.707.707 0 0 1-.255.96l-3.286 1.91c-.117.068-.256.31-.256.446v12.163c0 .136.139.378.256.446l3.286 1.91a.705.705 0 0 1-.35 1.312zM19.412 2a.69.69 0 0 1 .35.095l3.285 1.91c.552.322.953 1.021.953 1.664v12.163c0 .643-.4 1.343-.954 1.664l-3.286 1.91a.696.696 0 0 1-.954-.257.707.707 0 0 1 .255-.96l3.286-1.91c.117-.069.256-.31.256-.447V5.67c0-.136-.139-.378-.256-.446l-3.286-1.91a.705.705 0 0 1 .351-1.312z" fill="#7A7A7A"/>
</svg>
