<svg width="24" height="24" fill="none" xmlns="http://www.w3.org/2000/svg">
    <path d="M7.084 1.5a1.845 1.845 0 0 0-1.56.9L.608 10.912a1.849 1.849 0 0 0 0 1.797l4.916 8.516a1.846 1.846 0 0 0 1.56.9h9.832a1.845 1.845 0 0 0 1.56-.9l4.916-8.513a1.848 1.848 0 0 0 0-1.796L18.476 2.4a1.846 1.846 0 0 0-1.56-.9H7.084zm.09 4.98H8.91a.225.225 0 0 1 .184.109L11.97 11.7a.222.222 0 0 1 .026.083.22.22 0 0 1 .027-.083l2.868-5.111a.225.225 0 0 1 .191-.109h1.695a.232.232 0 0 1 .192.322l-2.798 5.01 2.809 5.003a.232.232 0 0 1-.191.33H15.09a.225.225 0 0 1-.191-.116l-2.873-5.115A.222.222 0 0 1 12 11.83a.221.221 0 0 1-.026.083l-2.88 5.115a.224.224 0 0 1-.184.116H7.215a.231.231 0 0 1-.213-.221.232.232 0 0 1 .022-.109l2.805-5.003-2.809-5.01a.229.229 0 0 1 .15-.322h.004z" fill="#3498DB"/>
</svg>
