<?xml version="1.0" encoding="UTF-8" standalone="no"?>
<!-- Created with Inkscape (http://www.inkscape.org/) -->

<svg
   xmlns:dc="http://purl.org/dc/elements/1.1/"
   xmlns:cc="http://creativecommons.org/ns#"
   xmlns:rdf="http://www.w3.org/1999/02/22-rdf-syntax-ns#"
   xmlns:svg="http://www.w3.org/2000/svg"
   xmlns="http://www.w3.org/2000/svg"
   xmlns:sodipodi="http://sodipodi.sourceforge.net/DTD/sodipodi-0.dtd"
   xmlns:inkscape="http://www.inkscape.org/namespaces/inkscape"
   width="1024"
   height="1024"
   viewBox="0 0 1024 1024"
   id="svg2"
   version="1.1"
   inkscape:version="0.91 r13725"
   sodipodi:docname="icon.svg"
   inkscape:export-filename="C:\Users\Jamie\Sources\vsts-tasks\Tasks\XamariniOS\icon.png"
   inkscape:export-xdpi="2.8125"
   inkscape:export-ydpi="2.8125">
  <defs
     id="defs4">
    <pattern
       y="0"
       x="0"
       height="6"
       width="6"
       patternUnits="userSpaceOnUse"
       id="EMFhbasepattern" />
    <pattern
       y="0"
       x="0"
       height="6"
       width="6"
       patternUnits="userSpaceOnUse"
       id="EMFhbasepattern-4" />
    <pattern
       y="0"
       x="0"
       height="6"
       width="6"
       patternUnits="userSpaceOnUse"
       id="EMFhbasepattern-0" />
    <pattern
       y="0"
       x="0"
       height="6"
       width="6"
       patternUnits="userSpaceOnUse"
       id="EMFhbasepattern-6" />
  </defs>
  <sodipodi:namedview
     id="base"
     pagecolor="#ffffff"
     bordercolor="#666666"
     borderopacity="1.0"
     inkscape:pageopacity="0.0"
     inkscape:pageshadow="2"
     inkscape:zoom="0.49497475"
     inkscape:cx="331.80049"
     inkscape:cy="788.0024"
     inkscape:document-units="px"
     inkscape:current-layer="layer1"
     showgrid="true"
     units="px"
     inkscape:snap-bbox="true"
     inkscape:bbox-nodes="true"
     inkscape:window-width="3440"
     inkscape:window-height="1377"
     inkscape:window-x="-8"
     inkscape:window-y="-8"
     inkscape:window-maximized="1">
    <inkscape:grid
       type="xygrid"
       id="grid4136"
       spacingx="16"
       spacingy="16"
       empspacing="4" />
  </sodipodi:namedview>
  <metadata
     id="metadata7">
    <rdf:RDF>
      <cc:Work
         rdf:about="">
        <dc:format>image/svg+xml</dc:format>
        <dc:type
           rdf:resource="http://purl.org/dc/dcmitype/StillImage" />
        <dc:title></dc:title>
      </cc:Work>
    </rdf:RDF>
  </metadata>
  <g
     inkscape:label="Layer 1"
     inkscape:groupmode="layer"
     id="layer1"
     transform="translate(0,-28.362251)">
    <path
       inkscape:connector-curvature="0"
       id="path4220"
       d="m 298.99553,92.362251 c -27.48371,0 -52.22018,16.449389 -65.96204,41.236909 L 18.654486,501.87638 c -13.7456383,24.74971 -13.7456383,54.98255 0,79.71336 L 233.03349,949.867 c 13.74564,24.7497 38.47833,38.4953 65.96204,38.4953 l 426.0089,0 c 27.4856,0 54.96743,-13.8024 68.71306,-38.4953 L 1005.3455,581.58974 c 13.7456,-24.73081 13.7456,-54.96365 0,-79.71336 L 793.71749,133.59916 C 779.97186,108.84945 752.49003,92.362251 725.00443,92.362251 l -426.0089,0 z m 5.50204,217.131919 c 0,0 0,0 0,0 l 74.20943,0 c 2.74156,0 5.50204,2.64703 8.2436,5.48313 l 123.68238,222.61505 c 0,0 2.74157,0 2.74157,2.64703 0,-2.64703 0,-2.64703 0,-2.64703 L 637.05314,314.9773 c 2.74157,-2.64703 5.50204,-5.48313 8.24361,-5.48313 l 74.20753,0 c 5.50204,0 10.98517,8.31923 8.2436,13.80236 L 606.81841,540.42845 727.74978,757.54146 c 2.74156,8.31923 -2.74157,16.44939 -8.24361,16.44939 l -74.20753,0 c -2.74157,0 -5.50204,-2.64703 -8.2436,-5.48313 L 513.37644,545.89267 c 0,0 0,-2.64702 0,-2.64702 0,0 -2.74157,2.64702 -2.74157,2.64702 L 386.95249,768.50772 c -2.74156,2.64703 -5.50203,5.48313 -8.2436,5.48313 l -74.20943,0 c -5.50203,0 -10.98516,-8.31923 -8.2436,-16.44939 L 417.18722,540.42845 296.25586,323.29653 c -2.74156,-5.48313 0,-10.96626 8.2436,-13.80236 z"
       style="fill:#3498db;fill-opacity:1;fill-rule:evenodd;stroke:none" />
    <path
       style="fill:#ffffff;fill-opacity:1"
       d="M 959 464 C 911.31436 465.96295 853.65304 496.54691 819.44922 537.53906 C 800.96919 559.42365 783.88553 589.23449 774.80859 621.66016 C 758.67861 615.43313 740.91051 609.52977 722.63086 609.87891 C 672.57487 610.6072 626.45629 639.00878 600.65039 683.85938 C 548.70392 774.174 587.39033 907.96972 638.01367 981.25195 C 662.78801 1017.0775 692.31666 1057.4301 731.0918 1055.9609 C 768.45639 1054.4907 782.5579 1031.7949 827.67188 1031.7949 C 872.7995 1031.7949 885.49094 1055.9605 924.96289 1055.2324 C 965.13381 1054.4904 990.63488 1018.6662 1015.2051 982.70898 C 1043.6277 941.1183 1055.3454 900.85224 1056 898.75586 C 1055.1422 898.37644 977.70924 868.65109 976.88086 779.32617 C 976.21141 704.64718 1037.7964 668.75034 1040.5879 667.01758 C 1005.9433 616.24161 951.99218 609.26781 932.77148 608.4668 C 927.76893 607.95922 922.79503 607.90574 917.86914 608.17383 C 946.3653 568.24456 964.56089 516.00711 959 464 z "
       transform="translate(0,28.362251)"
       id="path5502" />
    <path
       d="m 955.43052,812.88724 c 0.71794,77.31539 67.82608,103.044 68.56948,103.37241 -0.5674,1.81452 -10.7228,36.66579 -35.35571,72.66466 -21.29413,31.12289 -43.39462,62.13169 -78.20942,62.77389 -34.20903,0.6303 -45.20914,-20.286 -84.31975,-20.286 -39.09878,0 -51.32041,19.6437 -83.70306,20.9163 -33.60512,1.2717 -59.19506,-33.6552 -80.66615,-64.66403 -43.87356,-63.42962 -77.40204,-179.23723 -32.38177,-257.40925 22.36512,-38.82054 62.33326,-63.40333 105.71511,-64.03371 32.99936,-0.62947 64.14684,22.20087 84.31977,22.20087 20.16014,0 58.01095,-27.45548 97.80214,-23.4233 16.65794,0.69332 63.41706,6.72887 93.44234,50.67813 -2.4193,1.49979 -55.79317,32.57153 -55.21298,97.2101"
       id="path5498"
       style="fill:#424242;fill-opacity:1" />
    <path
       d="m 891.13861,623.03485 c 17.84118,-21.59604 29.84933,-51.65973 26.57338,-81.5729 -25.71673,1.03358 -56.81403,17.13691 -75.26006,38.72107 -16.53119,19.11378 -31.00879,49.7066 -27.10248,79.02772 28.6643,2.21772 57.94711,-14.56612 75.78916,-36.17586"
       id="path4913"
       style="fill:#424242;fill-opacity:1" />
  </g>
</svg>
