<svg width="24" height="24" fill="none" xmlns="http://www.w3.org/2000/svg">
    <path d="M23.111 2.5H5c-.608.002-1.215.538-1.349 1.124L.027 19.937c-.135.586.254 1.064.861 1.063H15.25l3.75-.02c.608 0 1.215-.518 1.35-1.104l3.624-16.105c.133-.587-.255-1.273-.863-1.271z" fill="url(#paint0_linear)"/>
    <path d="M22.9 2.696l-3.588.011-4.144.013-2.036.006-1.652.005H5.062c-.593.002-1.049.491-1.18 1.064L.34 19.737c-.13.572.248 1.04.842 1.038l6.18-.019 1.652-.005 2.036-.006 4.144-.013 3.688-.012c.594-.001 1.187-.472 1.318-1.044l3.542-15.808c.182-.6-.248-1.173-.842-1.172z" fill="url(#paint1_linear)"/>
    <path opacity=".51" d="M15.112 11.746a1.115 1.115 0 0 0-.29-.86l-5.48-5.935a1.073 1.073 0 0 0-1.478-.1 1.074 1.074 0 0 0-.33 1.693l4.459 4.829-7.08 5.223c-.417.308-.543.87-.324 1.325.018.188.084.374.201.54a1.077 1.077 0 0 0 1.517.245l8.361-6.169c.253-.188.415-.475.444-.79z" fill="#3564AB"/>
    <path d="M5.506 18.658c-.332 0-.659-.156-.869-.45a1.101 1.101 0 0 1 .238-1.522l7.269-5.362-4.577-4.957a1.102 1.102 0 0 1 .048-1.54 1.06 1.06 0 0 1 1.515.048l5.41 5.858a1.1 1.1 0 0 1-.151 1.628L6.135 18.45a1.056 1.056 0 0 1-.63.208z" fill="#fff"/>
    <path opacity=".51" d="M16.325 16.488h-4.621c-.528 0-.854.435-.854.97 0 .536.31.977.837.977l4.639-.006c.527 0 .82-.435.82-.97 0-.535-.294-.97-.821-.97z" fill="#3564AB"/>
    <path d="M16.325 18.279l-4.639.006c-.527 0-.837-.441-.837-.977s.327-.97.854-.97h4.621c.527 0 .82.434.82.97 0 .535-.292.97-.82.97z" fill="#fff"/>
    <defs>
        <linearGradient id="paint0_linear" x1="22.399" y1="11.829" x2="1.587" y2="11.676" gradientUnits="userSpaceOnUse">
            <stop offset=".19" stop-color="#6488C5"/>
            <stop offset=".474" stop-color="#5D82C1"/>
            <stop offset=".887" stop-color="#4A72B7"/>
            <stop offset="1" stop-color="#436DB4"/>
        </linearGradient>
        <linearGradient id="paint1_linear" x1="19.193" y1="21.336" x2="4.333" y2="2.071" gradientUnits="userSpaceOnUse">
            <stop offset=".082" stop-color="#436DB4"/>
            <stop offset="1" stop-color="#668CC8"/>
        </linearGradient>
    </defs>
</svg>
