<svg id="Layer_1" data-name="Layer 1" xmlns="http://www.w3.org/2000/svg" viewBox="0 0 96 128"><defs><style>.cls-1{fill:#0072c6;}.cls-2{opacity:0.15;}.cls-3{fill:#fff;}.cls-4{fill:#dd5900;}.cls-5{fill:#ff8c00;}</style></defs><title>My</title><g id="Canvas"><g id="FxSymbol0-0a6"><g id="Group"><g id="Vector"><path id="path0_fill" data-name="path0 fill" class="cls-1" d="M0,17.48v93C0,120.16,21.49,128,48,128V17.48Z"/></g><g id="Vector-2" data-name="Vector"><path id="path1_fill" data-name="path1 fill" class="cls-1" d="M47.36,128H48c26.51,0,48-7.83,48-17.49v-93H47.36Z"/></g><g id="Vector-3" data-name="Vector" class="cls-2"><path id="path1_fill-2" data-name="path1 fill" class="cls-3" d="M47.36,128H48c26.51,0,48-7.83,48-17.49v-93H47.36Z"/></g><g id="Vector-4" data-name="Vector"><path id="path2_fill" data-name="path2 fill" class="cls-3" d="M96,17.49C96,27.15,74.51,35,48,35S0,27.14,0,17.49,21.49,0,48,0,96,7.83,96,17.49Z"/></g><g id="Vector-5" data-name="Vector"><path id="path3_fill" data-name="path3 fill" class="cls-4" d="M86.17,16.5C86.17,22.88,69.07,28,48,28S9.8,22.87,9.8,16.5,26.9,5,48,5,86.17,10.12,86.17,16.5Z"/></g><g id="Vector-6" data-name="Vector"><path id="path4_fill" data-name="path4 fill" class="cls-5" d="M78.17,23.55c5-2,8-4.39,8-7C86.17,10.12,69.07,5,48,5S9.8,10.13,9.8,16.5c0,2.65,3,5.09,8,7,7-2.73,17.89-4.49,30.18-4.49S71.18,20.82,78.17,23.55Z"/></g><g id="Vector-7" data-name="Vector"><path id="path5_fill" data-name="path5 fill" class="cls-3" d="M10,86H16V61.66l9.4,21.18c1.11,2.56,2.63,3.47,5.6,3.47s4.44-.91,5.55-3.47L46,61.66V86H52V61.7c0-2.37-.93-3.51-2.86-4.1-4.61-1.46-7.71-.2-9.11,3l-9.22,20.9-8.93-20.9c-1.34-3.15-4.49-4.42-9.11-3C10.89,58.2,10,59.34,10,61.7V86ZM57.1,66.19h6.07V79.57c-.06.73.23,2.43,3.55,2.49,1.7,0,13.1,0,13.2,0V66.12H86s0,21.73,0,21.82c0,5.36-6.56,6.52-9.6,6.62H57.23V90.42h19.2c3.91-.42,3.45-2.39,3.45-3V85.76H67C61,85.7,57.15,83,57.1,80c0-.28.13-13.67,0-13.81Z"/></g></g></g></g></svg>