<svg width="24" height="24" fill="none" xmlns="http://www.w3.org/2000/svg">
    <path d="M20.293 4.214L0 7.329l2.385 15.279 20.293-3.116-2.385-15.278z" fill="#63B2FF"/>
    <path d="M3.497 21.915L1.215 7.585m4.183 9.805l-.76-4.902m12.929 3.017l-.76-4.903m4.943 7.919L2.736 21.538m19.014-3.756L2.736 20.799M19.088 4.946l2.281 14.33M.835 8.34l19.394-3.017M3.497 13.996l15.21-2.64m-14.45 5.28l14.83-2.64" stroke="#fff" stroke-miterlimit="10"/>
    <path d="M23.754 3.505c-.76-.32-1.491-.844-2.442-.516a1.066 1.066 0 0 1-.962-.336c-.582-1.033-1.643-1.297-2.6-1.478-4.283-.8-6.059 1.376-6.519 1.787.046.098.092.196.141.295a.228.228 0 0 0 0 .045c.259-.038 2.141-.826 3.506.022.616.377 1.046.887.932 1.603-.008.056-.02.111-.034.166-.023.075 0 .09-.023.17l.068.022 1.799.581c.026-.053.057-.132.087-.181.685-1.101 2.054-.634 2.803.132.536.547 1.14.754 1.901 1.022.419.147.555-.083.609-.211.35-.83.639-1.67.924-2.523a.427.427 0 0 0-.19-.6z" fill="#58595B"/>
    <path d="M23.754 3.94c-.76-.325-1.491-.85-2.442-.521a1.066 1.066 0 0 1-.962-.336c-.582-1.03-1.643-1.297-2.6-1.478-3.929-.732-5.747 1.037-6.378 1.652a.228.228 0 0 0 0 .045c.259-.038 2.141-.826 3.506.023.616.377 1.046.886.932 1.602.017.119.017.24 0 .358l1.798.581c.027-.053.058-.132.088-.18.684-1.102 2.053-.634 2.802.131.537.547 1.141.754 1.902 1.022.418.147.555-.083.608-.211.35-.83.64-1.67.924-2.523a.405.405 0 0 0-.178-.166z" fill="#939598"/>
    <path d="M15.795 5.13l-1.985 5.144 1.696.664 2.175-5.166-1.886-.641z" fill="#939598"/>
    <path d="M14.03 10.697l2.145-5.48 1.156.412-2.327 5.64-.974-.572z" fill="#A7A9AC"/>
    <path d="M15.78 5.112l-.168.501c.14-.377 1.708.117 1.901.588l.202-.47c.137-.386-1.784-1.004-1.936-.62z" fill="#58595B"/>
    <path d="M15.563 10.832l-4.183 11.69a.766.766 0 0 1-.985.426l-1.076-.415a.762.762 0 0 1-.421-.399.748.748 0 0 1-.013-.577l4.913-11.332c.053-.14.312-.15.62-.09.548.09 1.247.467 1.145.697z" fill="#000"/>
    <path d="M15.563 10.832l-4.183 11.69a.753.753 0 0 1-.422.419l-1.077-.415a.762.762 0 0 1-.426-.404.749.749 0 0 1-.007-.584l4.902-11.313a.147.147 0 0 1 .068-.075c.548.075 1.247.452 1.145.682z" fill="#231F20"/>
    <path d="M11.026 8.626l-.232-.09a1.008 1.008 0 0 0-.764.017.996.996 0 0 0-.529.548L6.54 16.636v2.64l2.28-1.886 2.776-7.482a.984.984 0 0 0-.017-.758.997.997 0 0 0-.553-.524v0z" fill="#63B2FF" stroke="#fff" stroke-miterlimit="10"/>
    <path d="M9.326 9.577l2.092.795m-4.856 6.139l2.175.943" stroke="#fff" stroke-miterlimit="10"/>
</svg>
