<svg width="24" height="24" fill="none" xmlns="http://www.w3.org/2000/svg">
    <path d="M18.002.014L5.296 0v20.57s15.872.121 16.918-.032V3.905L18.002.015zm2.62 18.979l-13.733-.012V1.588h9.81l3.923 3.423v13.982z" fill="#333"/>
    <path d="M16.7 1.589H6.889V18.98l13.733.012V5.012L16.7 1.589z" fill="#fff"/>
    <path d="M14.492 3.385H1.786v20.57s15.872.12 16.917-.032V7.29l-4.21-3.905zm2.62 18.993l-13.734-.013V4.974h9.81l3.923 3.422v13.982z" fill="#333"/>
    <path d="M13.189 4.974h-9.81v17.391l13.732.013V8.396L13.19 4.974z" fill="#fff"/>
</svg>
