
<svg width="61px" height="53px" viewBox="-1 4 61 53" version="1.1" xmlns="http://www.w3.org/2000/svg" xmlns:xlink="http://www.w3.org/1999/xlink">
    <!-- Generator: Sketch 39.1 (31720) - http://www.bohemiancoding.com/sketch -->
    <desc>Created with Sketch.</desc>
    <defs></defs>
    <g id="icon" stroke="none" stroke-width="1" fill="none" fill-rule="evenodd" transform="translate(0.000000, 4.000000)">
        <polygon id="Shape" fill="#EEC649" points="29.9028 29.1643466 9.3102 40.0921023 9.3102 18.023608 29.9028 5.86747159 50.1786 18.023608 50.1786 40.0921023"></polygon>
        <polygon id="Shape" fill="#07090B" opacity="0.2" points="29.9028 5.86747159 50.1786 18.023608 50.1786 40.0921023 29.9028 29.1643466"></polygon>
        <polygon id="Shape" fill="#07090B" opacity="0.15" points="29.9028 5.86747159 9.3102 18.023608 9.3102 40.0921023 29.9028 29.1643466"></polygon>
        <polygon id="Shape" fill="#BFBFBF" points="29.9028 28.9465909 9.3102 18.0194318 9.3102 40.0873295 29.9028 52.2440625 50.1786 40.0873295 50.1786 18.0194318"></polygon>
        <polygon id="Shape" fill="#07090B" opacity="0.05" points="29.9028 52.2440625 50.1786 40.0873295 50.1786 18.0194318 29.9028 28.9465909"></polygon>
        <polygon id="Shape" fill="#07090B" opacity="0.07" points="13.8 32.2815341 29.9028 41.3121307 29.9028 28.9465909 9.3102 18.0194318"></polygon>
        <polygon id="Shape" fill="#F3F3F3" points="-1.77635684e-15 23.3326705 9.3102 18.0194318 29.9028 28.9465909 20.0202 34.5605114"></polygon>
        <polygon id="Shape" fill="#DEDEDE" points="-1.77635684e-15 12.7109659 9.3102 18.023608 29.9208 5.87045455 20.0388 0.2559375"></polygon>
        <polygon id="Shape" fill="#07090B" opacity="0.05" points="39.213 37.839375 50.1786 32.2332102 50.1786 18.023608 30.0648 28.858892 29.9028 28.9465909"></polygon>
        <polygon id="Shape" fill="#F3F3F3" points="29.9028 28.9465909 39.213 34.2598295 60 23.6333523 50.1786 18.023608"></polygon>
        <polygon id="Shape" fill="#DEDEDE" points="29.9208 5.87045455 39.231 0.557215909 60 12.4144602 50.1786 18.023608"></polygon>
        <polygon id="Shape" fill="#1FAECE" points="29.9028 1.89775568 9.3102 12.8207386 9.3102 18.0707386 29.9028 28.9465909 50.1786 18.023608 50.1786 12.773608"></polygon>
        <polygon id="Shape" fill="#07090B" opacity="0.05" points="29.9028 23.6965909 9.3102 12.8207386 9.3102 18.0707386 29.9028 28.9465909"></polygon>
        <polygon id="Shape" fill="#07090B" opacity="0.1" points="29.9028 23.6965909 50.1786 12.773608 50.1786 18.023608 29.9028 28.9465909"></polygon>
    </g>
</svg>