<svg width="24" height="24" fill="none" xmlns="http://www.w3.org/2000/svg">
    <path d="M12 23.963h.15c4.912 0 8.85-1.463 8.85-3.3V3.338l-9 .075v20.55z" fill="#0F80B0"/>
    <path d="M3 3.338v17.437c0 1.838 4.05 3.188 9 3.188V3.338H3z" fill="#005F87"/>
    <path d="M21.113 3.487c0 1.8-4.05 3.3-9.038 3.3C7.088 6.787 3 5.25 3 3.487c0-1.762 4.05-3.3 9.037-3.3 4.988 0 9.075 1.5 9.075 3.3z" fill="#fff"/>
    <path d="M19.275 3.263c0 1.2-3.225 2.175-7.2 2.175S4.838 4.5 4.838 3.263c0-1.238 3.225-2.175 7.2-2.175 3.974 0 7.237.975 7.237 2.175z" fill="#7FB900"/>
    <path d="M17.738 4.575c.974-.375 1.5-.825 1.5-1.313 0-1.2-3.226-2.212-7.2-2.212-3.975 0-7.2 1.012-7.2 2.212 0 .488.562.975 1.5 1.313 1.312-.525 3.375-.75 5.7-.75s4.387.262 5.7.75z" fill="#B7D332"/>
    <path d="M19.163 15.938c0 1.012-.713 1.912-1.726 1.912h-3.9v-1.5h3.45c.226 0 .413-.638.413-.638l-.412.188H14.85c-.862 0-1.5-.488-1.5-1.275v-2.363l-.637-.225v4.088h-1.725v-3.113l-.976 2.175c-.262.563-.525.938-1.2.938-.637 0-1.2-.375-1.462-.938l-.9-2.287v3.225H4.725v-4.8c0-.563.112-.9.6-1.05.225-.075.487-.113.75-.113.562-.037 1.087.3 1.312.825l1.425 2.775 1.163-2.774c.225-.525.75-.863 1.313-.825.262 0 .487.037.712.112.525.15.675.563.675 1.125v.6c0 .037-.038.037 0 .037h2.587v2.138a.894.894 0 0 0 .413.225h1.5v-2.363h1.95v3.9h.038z" fill="#fff"/>
</svg>
