<svg width="24" height="24" fill="none" xmlns="http://www.w3.org/2000/svg">
    <path d="M22.231 2c-.977 0-1.769.79-1.769 1.764 0 .209.053.402.12.588l-8.302 14.19c-.801.168-1.416.844-1.416 1.694 0 .974.791 1.764 1.768 1.764s1.77-.79 1.77-1.764c0-.196-.054-.375-.112-.551l8.343-14.237C23.41 5.264 24 4.598 24 3.765 24 2.791 23.208 2 22.231 2zm-9.6 19.201a.965.965 0 0 1-.966-.963c0-.533.434-.964.966-.964a.964.964 0 0 1 0 1.927zm9.6-16.472a.965.965 0 0 1-.966-.964c0-.532.433-.963.966-.963a.965.965 0 1 1 0 1.927z" fill="#0E564D"/>
    <path d="M14.99 2c-.977 0-1.769.79-1.769 1.764 0 .209.052.402.12.588L5.04 18.542c-.802.168-1.417.844-1.417 1.694 0 .974.792 1.764 1.769 1.764.977 0 1.769-.79 1.769-1.764 0-.196-.053-.375-.111-.551l8.342-14.237c.778-.185 1.368-.852 1.368-1.684 0-.973-.792-1.764-1.77-1.764zM5.392 21.201a.965.965 0 0 1-.966-.963.966.966 0 1 1 1.933 0 .966.966 0 0 1-.967.963zM14.99 4.73a.965.965 0 1 1 .966-.964.963.963 0 0 1-.966.964zM1.77 10.41c.977 0 1.769-.79 1.769-1.765 0-.196-.053-.375-.112-.55A1.749 1.749 0 0 0 1.769 6.88c-.125 0-.234.046-.352.071C.615 7.12 0 7.795 0 8.645a1.768 1.768 0 0 0 1.77 1.764zm0-2.73a.965.965 0 0 1 0 1.927.965.965 0 0 1-.966-.963c0-.532.433-.964.966-.964zm1.77 7.13c0-.195-.053-.374-.112-.55a1.75 1.75 0 0 0-1.658-1.214c-.125 0-.234.046-.352.071C.616 13.285 0 13.961 0 14.811c0 .974.792 1.764 1.769 1.764.978 0 1.77-.79 1.77-1.764zm-2.736 0a.966.966 0 0 1 1.932 0 .965.965 0 0 1-.966.964.964.964 0 0 1-.966-.963z" fill="#093754"/>
</svg>
