<svg width="24" height="24" fill="none" xmlns="http://www.w3.org/2000/svg">
    <path d="M0 2a2 2 0 0 1 2-2h20a2 2 0 0 1 2 2v20a2 2 0 0 1-2 2H2a2 2 0 0 1-2-2V2z" fill="#CF4547"/>
    <path d="M8.304 12.16a.92.92 0 0 0-.06.155 20.986 20.986 0 0 0-.24.765l-.15.495a40.773 40.773 0 0 0-.273.935 100.975 100.975 0 0 0-.139.486 1.178 1.178 0 0 1-.174.356.661.661 0 0 1-.136.143.252.252 0 0 1-.154.056c-.088 0-.152-.03-.192-.088-.04-.059-.06-.167-.06-.324v-.069a.63.63 0 0 1 .004-.073c.003-.052.023-.15.062-.295a21.082 21.082 0 0 1 .312-1.053l.168-.523a8.257 8.257 0 0 1-.476.489 5.127 5.127 0 0 1-.526.437c-.18.129-.361.235-.543.316a1.284 1.284 0 0 1-.526.123.945.945 0 0 1-.5-.128 1.096 1.096 0 0 1-.346-.334 1.507 1.507 0 0 1-.203-.466 2.1 2.1 0 0 1-.066-.52v-.064a5.935 5.935 0 0 1 .139-1.026c.073-.33.169-.66.288-.986.119-.327.256-.647.412-.96a8.44 8.44 0 0 1 .51-.885 6.89 6.89 0 0 1 .586-.768 4.66 4.66 0 0 1 .638-.604c.218-.168.438-.3.66-.395a1.68 1.68 0 0 1 .662-.142c.251 0 .494.068.729.206.234.137.454.36.658.667a.53.53 0 0 1 .09.209 1.3 1.3 0 0 1 .018.199.53.53 0 0 1-.106.348.317.317 0 0 1-.25.127c-.089 0-.17-.046-.247-.14a2.633 2.633 0 0 1-.254-.4.969.969 0 0 0-.292-.341.614.614 0 0 0-.346-.105c-.194 0-.4.08-.62.24-.22.16-.437.373-.652.636a6.949 6.949 0 0 0-.62.903 9.401 9.401 0 0 0-.524 1.04 7.43 7.43 0 0 0-.363 1.05c-.09.345-.134.656-.134.93 0 .092.006.186.019.283a.954.954 0 0 0 .07.263.522.522 0 0 0 .141.193c.06.051.135.076.226.076a.762.762 0 0 0 .348-.102c.13-.07.265-.159.404-.27.14-.112.28-.238.42-.378a6.709 6.709 0 0 0 .717-.842 2.39 2.39 0 0 0 .21-.346l.386-1.153a.547.547 0 0 1 .185-.265.41.41 0 0 1 .234-.079.36.36 0 0 1 .116.02.284.284 0 0 1 .176.17.412.412 0 0 1 .026.155c0 .157-.013.304-.04.441a3.538 3.538 0 0 1-.107.403 6.09 6.09 0 0 1-.143.395c-.051.131-.103.27-.152.414zm5.225.962a4.298 4.298 0 0 1-.924.893 3 3 0 0 1-.505.292c-.166.074-.315.11-.448.11a.424.424 0 0 1-.323-.132c-.083-.089-.124-.24-.124-.452 0-.15.022-.326.066-.525a2.683 2.683 0 0 1-.27.388c-.107.13-.23.25-.368.358a1.826 1.826 0 0 1-.464.262c-.172.067-.358.1-.56.1a.995.995 0 0 1-.263-.034.554.554 0 0 1-.375-.34.922.922 0 0 1-.058-.351l.017-.15a3.14 3.14 0 0 1 .106-.456c.059-.208.15-.477.275-.807.125-.33.3-.731.526-1.203a.666.666 0 0 1 .2-.267.416.416 0 0 1 .484-.01.29.29 0 0 1 .087.093.254.254 0 0 1 .033.13.33.33 0 0 1-.013.093 1.07 1.07 0 0 1-.09.219l-.158.31c-.061.115-.126.24-.193.375a5.32 5.32 0 0 0-.189.417c-.057.144-.107.29-.149.439a1.91 1.91 0 0 0-.07.434c0 .06.013.113.041.162.028.05.073.074.137.074.18 0 .35-.059.514-.177a2.27 2.27 0 0 0 .451-.439c.139-.174.264-.362.376-.564.111-.201.205-.385.28-.552.052-.111.098-.23.138-.358a3.57 3.57 0 0 1 .13-.354c.048-.108.101-.198.162-.27a.286.286 0 0 1 .228-.108c.1 0 .179.038.236.113a.43.43 0 0 1 .087.27.75.75 0 0 1-.056.243 6.87 6.87 0 0 1-.14.353l-.185.425a7.54 7.54 0 0 0-.184.459 4.616 4.616 0 0 0-.141.456 1.724 1.724 0 0 0-.056.415c0 .118.06.177.182.177a.8.8 0 0 0 .32-.089 2.22 2.22 0 0 0 .4-.247c.14-.107.278-.232.418-.376.14-.144.263-.3.37-.466l.042.667z" fill="#fff"/>
    <path d="M13.658 12.876c-.031.076-.06.163-.09.263a.965.965 0 0 0-.043.268c0 .049.008.088.025.118.016.03.048.044.095.044.058 0 .13-.02.218-.062.087-.04.18-.095.282-.162.1-.067.205-.144.315-.23a9.971 9.971 0 0 0 .897-.808.184.184 0 0 1 .078-.049.259.259 0 0 1 .079-.014c.055 0 .101.023.137.068a.286.286 0 0 1 .053.182.556.556 0 0 1-.058.23.733.733 0 0 1-.203.25c-.176.194-.354.377-.534.55-.18.174-.358.326-.537.459a2.852 2.852 0 0 1-.53.317 1.249 1.249 0 0 1-.512.117.66.66 0 0 1-.284-.054.473.473 0 0 1-.182-.147.589.589 0 0 1-.097-.22 1.216 1.216 0 0 1-.03-.27c0-.16.02-.325.06-.494.04-.168.088-.323.144-.463.096-.255.194-.509.294-.76.1-.253.19-.484.274-.693l1.255-3.165a.529.529 0 0 1 .2-.27.48.48 0 0 1 .256-.079.37.37 0 0 1 .234.083c.07.056.105.146.105.27a.553.553 0 0 1-.035.187 2.353 2.353 0 0 1-.089.211 70.926 70.926 0 0 0-.888 2.107l-.336.827a102.354 102.354 0 0 0-.553 1.39z" fill="#fff"/>
    <path d="M19.529 11.988a.93.93 0 0 1 .107-.064.212.212 0 0 1 .096-.025c.06 0 .106.028.136.081.03.054.046.12.046.2a.66.66 0 0 1-.056.26.547.547 0 0 1-.168.22c-.296.262-.56.5-.79.716a8.75 8.75 0 0 1-.658.558 2.97 2.97 0 0 1-.602.36 1.567 1.567 0 0 1-.63.127c-.21 0-.373-.046-.487-.137a.457.457 0 0 1-.172-.378v-.036a.89.89 0 0 1 .133-.38c.074-.128.164-.26.269-.398a9.87 9.87 0 0 1 .335-.417c.12-.141.229-.275.33-.4.1-.126.184-.242.25-.346.067-.105.1-.19.1-.256 0-.04-.014-.07-.041-.093-.028-.023-.074-.034-.137-.034a.777.777 0 0 0-.342.086 1.697 1.697 0 0 0-.348.23 3.083 3.083 0 0 0-.335.332 4.844 4.844 0 0 0-.568.792 5.593 5.593 0 0 0-.271.528l-.1.221a7.512 7.512 0 0 1-.114.253c-.04.087-.076.168-.109.245l-.09.206-.055.125c-.014.03-.037.085-.069.167l-.11.287-.13.346-.128.344-.106.284a2.69 2.69 0 0 0-.059.167c-.027.085-.06.165-.097.241a.975.975 0 0 1-.128.199.582.582 0 0 1-.166.137.426.426 0 0 1-.21.051.411.411 0 0 1-.246-.07c-.065-.048-.097-.139-.097-.273 0-.065.008-.132.024-.2.017-.07.038-.138.063-.204.024-.068.05-.133.076-.196.027-.064.05-.126.073-.185.149-.327.3-.655.456-.984.154-.329.303-.654.445-.977.142-.322.274-.638.396-.95a10 10 0 0 0 .302-.892l.091-.25a3.43 3.43 0 0 1 .133-.32 1.34 1.34 0 0 1 .167-.272c.062-.077.13-.115.201-.115.11 0 .19.025.24.076.05.05.075.125.075.223 0 .02-.003.05-.008.093a4.136 4.136 0 0 1-.048.27.684.684 0 0 1-.027.093c.102-.111.213-.221.332-.331a3.44 3.44 0 0 1 .369-.298c.127-.088.256-.16.39-.216.132-.055.264-.083.397-.083.09 0 .181.013.271.04.09.026.17.064.24.115.07.05.128.114.172.191a.528.528 0 0 1 .066.268c0 .134-.033.277-.101.43a3.136 3.136 0 0 1-.255.458 5.794 5.794 0 0 1-.331.449c-.12.146-.23.278-.334.398-.103.119-.19.22-.26.304-.071.084-.108.14-.11.169 0 .04.012.071.036.096.025.025.067.037.125.037a.48.48 0 0 0 .207-.079c.091-.052.22-.143.383-.272.164-.13.373-.303.626-.52a75.4 75.4 0 0 0 .934-.822z" fill="#fff"/>
</svg>
