<?xml version="1.0" encoding="utf-8"?>
<!-- Generator: Adobe Illustrator 16.0.0, SVG Export Plug-In . SVG Version: 6.00 Build 0)  -->
<!DOCTYPE svg PUBLIC "-//W3C//DTD SVG 1.1//EN" "http://www.w3.org/Graphics/SVG/1.1/DTD/svg11.dtd">
<svg version="1.1" id="Layer_1" xmlns="http://www.w3.org/2000/svg" xmlns:xlink="http://www.w3.org/1999/xlink" x="0px" y="0px"
	 width="32px" height="32px" viewBox="0 0 32 32" enable-background="new 0 0 32 32" xml:space="preserve">
<g>
	<path fill="#59B4D9" d="M21.4,5.6l4-2.9l3.8,3.8l-2.9,4c0.3,0.6,0.6,1.3,0.8,1.9l4.9,0.9v5.3l-4.9,0.9l-0.3,1l-0.5,0.9l2.9,4
		l-3.8,3.8l-4-2.9c-0.6,0.3-1.3,0.6-1.9,0.8L18.6,32h-5.3l-0.9-4.9l-1-0.3l-0.9-0.5l-4,2.9l-3.8-3.8l2.9-4c-0.3-0.6-0.6-1.3-0.8-1.9
		L0,18.6v-5.3l4.9-0.9l0.3-1l0.5-0.9l-2.9-4l3.8-3.8l4,2.9c0.6-0.3,1.3-0.6,1.9-0.8L13.4,0h5.3l0.9,4.9l0.4,0.1
		c0.3,0.1,0.5,0.2,0.6,0.2L21.4,5.6z M19.6,12.4c-1-1-2.2-1.5-3.6-1.5c-1.4,0-2.6,0.5-3.6,1.5s-1.5,2.2-1.5,3.6
		c0,1.4,0.5,2.6,1.5,3.6s2.2,1.5,3.6,1.5c1.4,0,2.6-0.5,3.6-1.5s1.5-2.2,1.5-3.6C21.1,14.6,20.6,13.4,19.6,12.4z"/>
</g>
</svg>
