<svg width="24" height="24" fill="none" xmlns="http://www.w3.org/2000/svg">
    <g clip-path="url(#clip0)">
        <path d="M9.648 22.32H1.68V14.4h1.632a4.228 4.228 0 0 1-.288-1.584v-.096H0V24h11.325v-6.72h-1.68l.003 5.04zM20.88 14.4h1.44v7.968h-7.968v-5.043h-1.677V24H24V12.72h-3.552c.272.484.42 1.029.432 1.584v.096zM1.68 9.6V1.68h7.968v4.608c.5-.37 1.07-.632 1.677-.768V0H0v11.28h3.264A4.54 4.54 0 0 1 4.32 9.648L1.68 9.6zm12.672-4.275V1.68h7.968v7.968h-3.504c.157.53.238 1.08.24 1.632v.045H24V0H12.675v5.232c.144 0 .24-.048.384-.048.433.023.865.07 1.293.141z" fill="#A0A1A2"/>
        <path d="M19.584 14.256a1.772 1.772 0 0 0-1.776-1.776h-.24a5.22 5.22 0 0 0 .192-1.248 4.725 4.725 0 0 0-9.216-1.488 3.745 3.745 0 0 0-1.056-.192 3.264 3.264 0 0 0 0 6.525h10.464a1.825 1.825 0 0 0 1.632-1.824" fill="#59B4D9"/>
        <path opacity=".2" d="M9.216 16.08a3.263 3.263 0 0 1 1.584-5.475 2.653 2.653 0 0 1 1.056-.048 4.761 4.761 0 0 1 2.64-3.84 4.524 4.524 0 0 0-1.44-.24A4.697 4.697 0 0 0 8.592 9.74a3.745 3.745 0 0 0-1.056-.192 3.264 3.264 0 0 0 0 6.525h1.68v.006z" fill="#fff"/>
    </g>
    <defs>
        <clipPath id="clip0">
            <path fill="#fff" d="M0 0h24v24H0z"/>
        </clipPath>
    </defs>
</svg>
