<svg width="24" height="24" fill="none" xmlns="http://www.w3.org/2000/svg">
    <g clip-path="url(#clip0)">
        <path fill-rule="evenodd" clip-rule="evenodd" d="M8.311 2.564c.485 1.039.158 8.296-.41 10.84-.567 2.55-1.135 5.79-1.268 8.518-.058 1.162.116 1.62.858 1.62 1.31 0 2.97-2.825 5.054-2.761 2.088.063 2.75 3.24 3.729 3.219.977-.021 1.764-.369 1.773-3.461.029-9.23-7.528-16.711-9.736-17.975z" fill="#666"/>
        <path fill-rule="evenodd" clip-rule="evenodd" d="M14.865 9.94c.46.793 1.632.182 1.682-.713.05-.895-.079-2.023-.646-2.065-.568-.043-.974-.624-1.541-.666-.568-.043-1.177.538-1.442-.234-.265-.772.713-1.098 1.442-1.221-.65-.666-1.032-1.404-1.318-2.172-.286-.768-.497-1.472.303-1.773.8-.3.733 1.247 1.648 1.956-.269-1.044-.368-1.476-.348-2.083.021-.606-.02-1.069.82-.95.842.119.477 1.909 1.132 2.638.199-.691.319-1.57.8-1.93.48-.36 1.574-.369.878 1.112-.697 1.48.203 2.281-.009 3.448-.211 1.166-.866.954-1.147 1.705-.282.75.165 2.46-.365 3.228-.53.767-.625 1.946-.282 2.888-1.056-1.01-1.607-3.168-1.607-3.168zm-6.583.996c-.426 2.995-1.91 3.351-1.984 4.594-.075 1.243.393 1.361.364 2.51-.029 1.15-1.027 1.617-1.147 2.24-.12.624.514.823.882.823.369 0 .738-1.654.887-2.706.149-1.052-.489-1.671-.489-2.392 0-.721.924-2.04.754-.882.766-1.239 1.131-2.817.733-4.187z" fill="#666"/>
        <path fill-rule="evenodd" clip-rule="evenodd" d="M8.854 12.077c-.323 1.62-2.34 10.668-1.313 10.782 1.027.115 2.49-2.8 4.884-2.778 2.399.021 3.343 3.266 3.927 3.245.584-.021.97.212 1.032-3.444.062-3.657-2.117-8.326-3.405-10.383-1.749.114-3.63 1.548-5.125 2.578z" fill="#fff"/>
        <path d="M13.963 10.105c-.096-1.013-.83-1.649-1.778-1.804-.916-.15-1.914.294-2.555.95-.721.74-.75 1.767-.245 2.642.498.863 1.602 1.149 2.506.933 1.238-.296 2.152-1.404 2.072-2.721z" fill="#000"/>
        <path d="M13.507 10.482c-.086.921-.802 1.66-1.665 1.875-.913.227-1.922-.133-2.25-1.094-.167-.49-.136-.994.152-1.426.243-.363.635-.648 1.023-.828.801-.373 1.947-.414 2.505.417.211.315.248.685.235 1.056z" fill="url(#paint0_radial)" stroke="#666"/>
    </g>
    <defs>
        <radialGradient id="paint0_radial" cx="0" cy="0" r="1" gradientUnits="userSpaceOnUse" gradientTransform="matrix(3.14822 0 0 3.22324 10.485 9.842)">
            <stop stop-color="#fff"/>
            <stop offset=".06" stop-color="#FBC8B4"/>
            <stop offset=".071" stop-color="#FBC3B0"/>
            <stop offset=".183" stop-color="#F7978B"/>
            <stop offset=".299" stop-color="#F4716B"/>
            <stop offset=".42" stop-color="#F15251"/>
            <stop offset=".545" stop-color="#EF3A3D"/>
            <stop offset=".678" stop-color="#EE292F"/>
            <stop offset=".822" stop-color="#ED1F27"/>
            <stop offset="1" stop-color="#ED1C24"/>
        </radialGradient>
        <clipPath id="clip0">
            <path fill="#fff" transform="translate(5.5)" d="M0 0h13v24H0z"/>
        </clipPath>
    </defs>
</svg>
